<svg version="1.2" xmlns="http://www.w3.org/2000/svg" viewBox="0 0 334 188" width="334" height="188">
	<title>logo-with-moto-svg</title>
	<style>
		.s0 { fill: #fff } 
		.s1 { fill: none } 
		.s2 { fill: #fff } 
		.s3 { fill: #fff } 
		.s4 { fill: #fff } 

		.my-line {
			animation: draw_in 0.3s;
			stroke-dasharray: 100%;
			width: 100px;   
		  }
		  
		  @keyframes draw_in {
			from: {
			   stroke-dashoffset: 0%;
			}
			to: {
			   stroke-dashoffset: 100%;
			}
		  }
	</style>
	<g id="path0" >
		<path id="Layer" fill-rule="evenodd" class="s0" d="m183.1 37.1c-3.8 8.7-10.3 19.3-16.6 27.1-2.2 2.7-7.9 9.7-8.7 10.5-0.4 0.4-0.7 1.2-0.7 1.6 0 0.5-0.2 1.8-0.4 2.9-0.4 2.1-0.7 4.2-2.4 19.3-0.2 2.1-0.6 5.2-0.8 7-1.2 10.3-0.8 10.7 2.3 2.8 5.7-14.4 15.2-30.5 20.2-34.3 7.4-5.6 13.9-0.4 13 10.6-0.4 4.7-1 8.2-3.1 19.1-2.4 12.1-1.8 16.2 2.1 14.6 4.9-2 12.7-10.3 24.1-25.8 5.6-7.5 5.6-7.5 6.6-10.4 2.1-6.1 6.3-12.4 9.7-14.7 8.5-5.7 16.5-0.8 14.7 8.9-0.7 3.9-1.2 3.5-1.1-1.1 0-7.4-3.7-11.1-8.4-8.3-8 4.9-14.5 37.1-9.5 47.3 3.9 8.2 16.5-0.7 20.9-14.9 1.9-6.1 1.9-6-0.6-7.3-4.2-2.1-6.5-7-4.5-9.6 2.8-3.5 8.3 1.5 8.4 7.6 0 2 0.1 2.1 1.4 2.7 1.6 0.7 7.2 0.8 8.7 0.3 0.5-0.2 1.6-0.6 2.5-0.9 3.6-1.1 7.8-4.2 11.3-8.1 1.3-1.6 2.1-1.9 2.1-0.9 0 0.9-5 5.8-7.8 7.7-5.3 3.5-11.8 5-16.3 3.6-1.8-0.5-2.1-0.2-2.5 2.1-1.8 10.8-11.4 21.7-19 21.7-8.6 0-12.6-6.6-12.5-21 0-7.6-0.1-8.2-1.1-6.6-2.6 4.2-12.8 16.9-17.1 21.3-5.6 5.8-9 8-12.3 8-7.6 0-8.2-7.3-3-31.2 2.2-9.6 2.3-14.1 0.4-15.4-3.4-2.5-10.2 4.3-17.1 17-2.8 5.4-8.1 16.2-8.1 16.8 0 0.1-0.5 1.3-1.1 2.7-0.7 1.4-1.9 4.5-2.9 6.9-2.5 6.4-5.8 8.9-8.2 6.2-0.7-0.8-1-9.2-0.4-11.8 0.1-0.4 0.4-3.7 0.6-7.2 0.6-8.5 1.1-14.4 1.4-15.4 0.5-1.4-0.7-0.9-3.4 1.6-6.9 6.5-13.6 9.7-20.4 9.7h-3.9l-2.9 6c-8 16.5-15.6 21.8-22.1 15.4-3.4-3.5-5.3-17.4-3.5-26.7 0.5-2.7 0.5-4 0-4-0.2 0-0.4 0.3-0.4 0.6 0 0.3-0.2 0.9-0.4 1.3-0.2 0.4-1.1 2.7-2 5.1-7.3 19.1-15.4 25.2-20.7 15.4-3.5-6.6-3.4-29.2 0.3-36.4 2.1-4.1 7.5-3.1 6.4 1.2-0.2 0.8-0.5 2.7-0.8 4.4-0.3 1.6-0.6 3.9-0.8 5-0.3 1.9-0.7 4.7-1.6 11.5-2.6 19.8 5 23.2 12.8 5.8 0.8-1.8 4.4-12.7 5.5-16.5 0.7-2.2 1.8-6 3.4-11.2 2-6.6 4.7-8.9 7.2-6.3 1.2 1.1 1.3 2.2 0.7 5.7-0.2 1.2-0.6 3.8-0.8 5.8-0.2 2-0.6 4.9-0.8 6.4-2.8 21.7-2.1 33.8 2 33.8 4.9 0 11-8 16.4-21.6 0.5-1.3 0.5-1.4-0.8-2.4-2.9-2.2-5.8-5.1-7-7-5.7-9-4-21.3 3.6-24.9 11-5.1 15.2 9.5 8.2 28.8-1 3-1 3 0.6 3.5 1.1 0.4 2.1 0.4 4.1 0 6.1-1.2 12-4.6 17.7-10.4l3.5-3.4 0.4-2.8c0.2-1.5 0.6-4.3 0.9-6.2 0.2-1.9 0.6-4.4 0.8-5.6 0.2-1.2 0.6-3.5 0.8-5 0.4-2.6 2.1-11 2.8-14.2 0.8-3.4 1.2-5.1 1.5-6.4 0.3-0.8 0.7-2.5 1.1-3.8 4.5-16.5 11.3-27.3 18.8-29.9 11.1-3.7 15.6 10.2 8.6 26.3zm-18.4-1.9c-1.5 5.4-1.6 5.9-2 7.9-0.2 1.1-0.6 2.7-0.8 3.6-0.8 3.5-1.3 6.1-1.6 8.2-0.2 1.2-0.6 3.8-0.9 5.8-1.9 11.4-1.9 12.2 0.4 9.6 9.5-10.9 20.2-28.4 23.3-38.2 3.2-10 2.3-17.4-2.4-19.8-5.8-3-11.1 4.6-16 22.9zm-50.7 32.3c-9.4 5.1-7.9 21.5 2.6 28.7 2 1.4 2.1 1.3 3.3-1.7 4.3-11 4.3-24.9 0-27.2-1-0.6-4.8-0.4-5.9 0.2zm127.3 19.4c0.7 1.4 4 4.4 4.8 4.4 1.9 0-0.1-6.7-2.4-8-2.7-1.7-4.1 0.3-2.4 3.6zm-71.8 37.2c0.8 0 0.3 1.2-1.3 3-0.9 1.1-2.1 2.4-2.6 3-0.4 0.5-1.6 1.9-2.5 2.9-1.9 2.3-1.9 2.4-0.3 3.1 0.7 0.3 2.6 1.2 4.3 1.9l2.9 1.4 4.5-2.3c2.4-1.2 4.6-2.2 4.7-2.2 0.2 0 1.1-0.3 2-0.8 3.4-1.5 9.4-3.4 12.9-4.2 0.7-0.1 2-0.4 3-0.6 4.4-1 7.5-1.3 15.4-1.5 16.6-0.4 25.3 2.9 28 10.7 1.8 5.1-3.6 11.5-11.6 13.5-0.9 0.3-2.4 0.6-3.4 0.9-2.3 0.6-15.6 0.6-19.1 0-5.7-1-7.1-1.3-13.6-3-2.2-0.6-3.7-1.1-5.5-1.8-0.4-0.2-1.9-0.7-3.2-1.2-1.3-0.5-3.5-1.4-4.9-2.1-1.4-0.6-2.6-1.1-2.7-1.1-0.1 0-1.5-0.6-3.1-1.4-3.6-1.7-3.2-1.7-8.7 2-5.1 3.4-10.7 8.9-13.5 13.2-2.9 4.5-3.2 4.8-3.5 4.5-0.4-0.3 0.7-2.5 3.1-6.1 2.4-3.6 8.8-9.6 13.4-12.7 4.9-3.3 4.9-2.9 0.5-5-4.7-2.2-4.2-2.3-8.3 1.8-14.8 14.5-35.4 21.3-47 15.3-0.4-0.2-0.9-0.4-1.1-0.4-2.2 0-8.4-5.3-10-8.6-3.9-8.2 2.3-15.4 16.6-18.9 5-1.3 15-1.8 19.3-0.9 1 0.2 3.1 0.5 4.5 0.8 1.4 0.3 3.1 0.6 3.6 0.8 0.6 0.2 2.3 0.7 3.8 1.2 1.5 0.4 3.2 1 3.6 1.2 0.4 0.2 1.4 0.5 2.2 0.8 0.8 0.3 2.5 1 3.9 1.7 3.9 1.7 4.2 1.7 5.5 0.2 0.6-0.7 1.8-2.1 2.7-3.1 1-1 2.5-2.7 3.4-3.9 1-1.2 1.9-2.1 2.1-2.1zm-44 2.9c-0.1 0-1.6 0.2-3.4 0.4-20.4 2.2-29.7 12.5-20 22.1 9.3 9.1 28.6 8.2 43.6-2 1.3-0.9 2.5-1.7 2.6-1.8 0.1-0.1 1.2-1 2.4-2 4.5-3.7 8.1-7.6 7.5-8.2-0.9-0.8-9.7-4.4-13.3-5.4-0.7-0.2-1.9-0.6-2.8-0.8-3.4-0.9-5-1.2-10.6-1.8-3.2-0.3-5.9-0.6-6-0.5zm75.6 2.7c-5.7 0.9-14.1 3.2-17.8 4.8-0.4 0.2-1.6 0.7-2.6 1.1-1 0.4-3.2 1.4-5 2.3-4.6 2.3-4.7 2.1 2.6 5.3 8.3 3.8 18.3 6.9 25.6 8.1 6.7 1.1 8.2 1.2 12.4 1.2 10.8 0 18.9-2.9 22-7.9 4.5-7.1-2.4-13.6-16.4-15.5-6.1-0.9-12.9-0.7-20.8 0.6zm-127.5 104.9c0 1.4 0 3.5-0.1 4.8 0 1.8-0.1 2.3-0.6 2.3-0.6 0-0.9-7.5-0.4-9 0.6-1.5 1.2-0.5 1.1 1.9zm36.1 0.4c1.3 1.6 2.7 3.3 3.3 3.7q1 0.9 0.8 1.8c-0.1 0.9-0.4 0.6-2.5-2-1.3-1.6-2.9-3.5-3.5-4.1-0.8-0.6-1.1-1.3-1-1.7 0.4-0.9 0.5-0.8 2.9 2.3zm19.5 1.3c-0.1 2.8-0.1 4.4 0.3 4.7 0.4 0.6-0.4 1.3-1 0.8-0.3-0.3-0.3-9.1 0.1-9.4 0.6-0.7 0.8 0 0.6 3.9zm22.5-0.6c0.4 1.2 0.9 2.8 1.3 3.5 0.5 0.9 0.6 1.4 0.2 1.7-0.4 0.5-3.3-6.7-3.3-8.2 0-1.4 1.1 0.4 1.8 3zm6.5 4.8c0.4 1.6-0.5 0.6-1.3-1.5-0.4-1-0.9-2.1-1.2-2.3-0.2-0.2-0.5-0.8-0.5-1.2 0-0.4-0.1-1.4-0.3-2.2-0.9-4 2.2 2.6 3.3 7.2zm17.8-1.1c-0.1 1.8-0.2 2.3-0.7 2.3-0.6 0-0.9-7.5-0.3-9 0.6-1.8 1.1 1.2 1 6.7zm65.1-2.5c0 4-0.1 4.8-0.6 4.8-0.6 0-0.9-8.7-0.3-9.3 0.7-0.8 0.9 0.1 0.9 4.5zm20.9 0.1c0.1 3.6 0 4.7-0.4 4.7-0.5 0-0.8-8.8-0.2-9.3 0.4-0.5 0.5-0.1 0.6 4.6zm-170.1-4.5c0.2 0 0.4 1.8 0.4 4.6 0 2.8-0.2 4.6-0.4 4.6-0.2 0-0.4-1.8-0.4-4.6 0-2.8 0.2-4.6 0.4-4.6zm90 4.6c0 2.5-0.2 4.6-0.4 4.6-0.4 0-0.7-3.9-0.5-7 0.3-4 0.9-2.3 0.9 2.4zm22.4-3.5c1.2 1.5 1.1 4.9-0.2 6.4l-1 1.1 0.6-1.7c0.8-2.4 0.8-3.2-0.2-5.1-0.4-0.9-0.8-1.6-0.8-1.7 0-0.4 0.9 0.1 1.6 1zm19.3 1.6c2.1 4.7 2.7 6.5 2.3 6.7-0.4 0.3-1.7-2.1-2.6-4.9-0.4-1-0.9-2.2-1.3-2.5-0.3-0.4-0.4-1-0.3-1.3 0.4-1 0.5-0.9 1.9 2zm22.1-2.1c0.7 0.8 0.7 1.2 0.2 2.2-0.6 1.2-1.1 1-0.9-0.4 0.1-0.7 0-1.5-0.3-1.8-0.7-0.8 0.2-0.8 1 0zm-47.6-0.2c0.5 0 0.4 0.2-0.2 0.9-0.9 1-1 5-0.2 6.9 0.3 0.8 0.3 0.8-0.5 0.1-1.9-1.7-2.1-4.8-0.4-6.9 0.4-0.5 1-1 1.3-1zm-63.3 0.5c1 0.3 2 2.8 1.8 4.5-0.2 1.6-2 3.8-2.6 3.3-0.1-0.2-0.1-0.5 0.2-0.6 1.3-0.9 1.7-4.1 0.7-6.2-0.5-0.9-0.5-1.2-0.1-1zm108.5 3.5c0.3 0 0.6 0.2 0.6 0.5 0 0.2 0.7 1.3 1.6 2.3 0.9 1.1 1.4 2.1 1.2 2.2-0.3 0.2-2.7-2.5-3.6-4.1-0.3-0.7-0.3-0.9 0.2-0.9zm22 4.4c0.6 0 1 0.2 1 0.4 0 0.2-0.4 0.4-1 0.4-0.5 0-1-0.2-1-0.4 0-0.2 0.5-0.4 1-0.4zm-77.3 15.8c0.1 3.6 0.2 4.4 0.9 4.8 0.7 0.5 0.7 0.6 0.1 0.6-1.7 0-3.1-6.2-2.1-9 0.6-1.4 0.9-0.3 1.1 3.6zm-43.2-3.8c0.9 0 3.5 5.6 3.5 7.5 0 0.9-0.2 1.7-0.4 1.7-0.2 0-0.4-0.7-0.4-1.6 0-1-0.5-2.5-1.6-4.6-1.1-1.9-1.5-3-1.1-3zm21.1 1.7c-1 1.6-1.1 4.2-0.2 5.9 0.7 1.3 0.3 1.6-0.7 0.5-1.6-1.7-1.4-5.3 0.4-7.1 1.3-1.3 1.6-1.1 0.5 0.7zm6.3-0.8c1.6 1.7 1.4 6.5-0.3 7-0.4 0.2-0.4 0-0.2-0.5 0.8-1.8 0.7-4.6-0.1-6-1-1.6-0.6-1.8 0.6-0.5z" />
	</g>
	<g id="path1">
		<path id="Layer" class="s1" d="m-32.5-79.5h200 200v200 200h-200-200v-200zm213.9 89.7c0.1 0.1 0.4 0.3 0.7 0.3 0.8 0 3.1 2.3 3.7 3.8 0.3 0.7 0.8 1.5 0.9 1.9 0.2 0.4 0.4 1.5 0.4 2.5 0 1 0.2 2.2 0.5 2.8 0.3 0.8 0.3 1.2 0 1.8-0.3 0.4-0.5 1.9-0.5 3.2 0 1.3-0.2 2.5-0.4 2.6-0.2 0.1-0.4 0.9-0.4 1.6 0 0.8-0.2 1.4-0.4 1.4-0.2 0-0.4 0.5-0.4 1 0 0.6-0.2 1.3-0.4 1.7-0.1 0.4-0.5 1.1-0.7 1.7-0.9 2.3-1.3 3.2-3.1 6.8-1.8 3.7-3 6-3.4 6.4-0.1 0.1-0.5 0.7-0.8 1.3-0.3 0.6-0.7 1.1-0.9 1.1-0.1 0-0.3 0.2-0.3 0.4 0 0.4-3.9 6.4-4.4 6.8-0.1 0.1-0.7 0.8-1.2 1.6-0.5 0.8-1.1 1.5-1.2 1.6-0.1 0.1-0.7 0.8-1.2 1.6-0.5 0.8-1.1 1.5-1.2 1.6-0.1 0.1-0.7 0.9-1.3 1.7-0.6 0.8-1.6 1.9-2 2.4-0.5 0.5-1.2 1.3-1.6 1.8-0.3 0.5-1.2 1.6-2 2.5-0.8 0.9-1.5 1.9-1.5 2.4 0 0.4-0.2 0.9-0.4 1-0.2 0.1-0.4 1.4-0.4 2.8 0 1.4-0.2 2.7-0.4 2.8-0.2 0.1-0.4 1.6-0.4 3.2 0 1.6-0.2 3.1-0.4 3.2-0.2 0.1-0.4 1.8-0.4 3.6 0 1.8-0.2 3.5-0.4 3.6-0.2 0.1-0.4 1.8-0.4 3.6 0 1.8-0.2 3.5-0.4 3.6-0.2 0.1-0.4 1.2-0.4 2.4 0 1.4 0.2 2.2 0.4 2 0.2-0.1 0.4-0.6 0.4-1 0-0.5 0.2-0.8 0.4-0.8 0.2 0 0.4-0.3 0.4-0.6 0-0.3 0.2-0.9 0.3-1.3 1.5-3 2.1-4.3 2.1-4.7 0-0.3 0.2-0.6 0.4-0.6 0.2 0 0.4-0.2 0.4-0.5 0-0.6 3.3-7.3 3.7-7.4 0.2-0.1 0.3-0.5 0.3-0.9 0-0.5 0.1-0.8 0.3-0.8 0.2 0 0.6-0.7 1-1.5 0.7-1.5 1.9-3.7 2.3-4.1 0.1-0.1 0.5-0.7 0.8-1.3 0.3-0.6 0.7-1.1 0.9-1.1 0.2 0 0.3-0.2 0.3-0.5 0-0.3 0.3-0.9 0.7-1.3 0.4-0.5 1.2-1.4 1.7-2.2 1.3-1.9 5.2-5.6 5.9-5.6 0.3 0 0.5-0.2 0.5-0.4 0-0.2 0.3-0.4 0.8-0.4 0.4 0 0.9-0.2 1-0.4 0.1-0.2 1.1-0.4 2.2-0.4 1.1 0 2.1 0.2 2.2 0.4 0.1 0.2 0.6 0.4 1 0.4 0.5 0 0.8 0.2 0.8 0.4 0 0.2 0.3 0.4 0.6 0.4 0.3 0 0.9 0.5 1.3 1.2 0.4 0.7 0.8 1.2 1 1.2 0.2 0 0.3 0.3 0.3 0.7 0 0.4 0.2 0.9 0.4 1.1 0.3 0.4 0.8 4.2 0.8 6.6 0 3.4-0.5 8.2-0.8 8.6-0.2 0.2-0.4 1.3-0.4 2.5 0 1.1-0.2 2.2-0.4 2.3-0.2 0.1-0.4 1-0.4 2 0 1-0.2 1.9-0.4 2-0.2 0.1-0.4 1-0.4 2 0 1-0.2 1.9-0.4 2-0.2 0.1-0.4 1.2-0.4 2.3 0 1.2-0.2 2.3-0.4 2.6-0.7 0.7-0.3 7.7 0.5 8.2 0.7 0.5 2.3-0.1 3.4-1.2 0.3-0.3 1.2-1 2-1.6 1.8-1.4 5.2-4.7 6.6-6.5 0.5-0.8 1.6-2 2.4-2.8 0.7-0.8 1.7-2 2.3-2.8 0.5-0.8 1.2-1.7 1.6-2 0.4-0.3 1.1-1.2 1.6-2 0.5-0.8 1.1-1.5 1.2-1.6 0.1-0.1 0.7-0.8 1.2-1.6 0.5-0.8 1.1-1.5 1.2-1.6 0.1-0.1 0.7-0.8 1.2-1.6 0.5-0.8 1.1-1.5 1.2-1.6 0.1-0.1 0.7-0.8 1.2-1.6 0.5-0.8 1.1-1.5 1.2-1.6 0.9-0.7 2.8-4.1 2.8-4.9 0-0.6 0.2-1.2 0.4-1.3 0.2-0.1 0.4-0.6 0.4-1 0-0.5 0.2-0.8 0.4-0.8 0.2 0 0.4-0.3 0.4-0.8 0-0.4 0.2-0.9 0.4-1 0.2-0.1 0.4-0.6 0.4-0.9 0-0.4 0.4-1.1 0.8-1.6 0.4-0.5 0.8-1 0.8-1.1 0-2 7.5-9 9.6-9 0.4 0 0.8-0.2 0.8-0.4 0-0.2 1.5-0.4 3.6-0.4 2.1 0 3.6 0.2 3.6 0.4 0 0.2 0.3 0.4 0.6 0.4 2.6 0 4.3 4 4.2 10.3l-0.1 5.4 1 0.5c2 1 3.9 3.8 3.9 5.5 0 0.5 0.2 1.1 0.4 1.3 0.2 0.2 0.4 1.2 0.5 2.2l0.1 1.8 4.4 0.1c2.6 0.1 4.5 0 4.7-0.3 0.3-0.2 1-0.4 1.6-0.4 0.6 0 1.1-0.2 1.1-0.4 0-0.2 0.3-0.4 0.6-0.4 0.7 0 2-0.7 3.2-1.7 0.4-0.4 0.9-0.7 1.1-0.7 0.4 0 4.4-4 5.3-5.3 0.8-1.3 3.6-1.6 4-0.5 0.5 1-3.7 5.9-7 8.2-0.8 0.5-1.6 1.2-1.9 1.5-0.3 0.3-1.2 0.8-2 1.1-0.8 0.4-1.8 0.8-2.2 1-0.4 0.2-1 0.4-1.5 0.4-0.4 0-0.9 0.2-1 0.4-0.1 0.2-1 0.4-1.9 0.4-1 0-1.9 0.2-2.2 0.4-0.4 0.5-1.2 0.4-5.6-0.2l-1.7-0.3v1.4c0 0.8-0.2 1.6-0.4 1.7-0.2 0.1-0.4 0.7-0.4 1.2 0 0.5-0.2 1.1-0.4 1.2-0.2 0.1-0.4 0.6-0.4 0.9 0 0.9-3.2 7.3-3.7 7.3-0.1 0-0.3 0.2-0.3 0.5 0 1.4-6.1 7.4-8.8 8.6-0.8 0.3-1.7 0.7-2.1 0.9-0.9 0.5-7 0.5-7.3 0-0.1-0.2-0.6-0.4-1-0.4-0.5 0-0.8-0.2-0.8-0.4 0-0.2-0.2-0.4-0.5-0.4-1.1 0-5.1-4.7-5.1-6 0-0.2-0.2-0.8-0.5-1.3-1-2-1.1-2.3-1.1-3.5 0-0.6-0.2-1.3-0.4-1.4-0.2-0.1-0.4-2.7-0.4-6.4 0-3.9-0.2-6.2-0.4-6.2-0.2 0-0.4 0.2-0.4 0.5 0 0.3-0.3 0.9-0.7 1.3-0.4 0.5-1.2 1.4-1.7 2.2-0.5 0.8-1.1 1.5-1.2 1.6-0.1 0.1-0.7 0.8-1.2 1.6-0.5 0.8-1.2 1.7-1.6 2-0.4 0.3-1.1 1.2-1.6 2-0.5 0.8-1.2 1.7-1.6 2-0.3 0.3-1.4 1.6-2.4 2.8-3.6 4.4-10.3 10.4-11.6 10.4-0.2 0-0.4 0.2-0.4 0.4 0 0.2-0.3 0.4-0.8 0.4-0.4 0-0.9 0.2-1 0.4-0.1 0.2-1.5 0.4-3 0.4-2.9 0-6.4-2.2-6.4-4.1 0-0.4-0.2-0.8-0.4-0.9-0.2-0.1-0.4-2.4-0.4-5.4 0-3 0.2-5.3 0.4-5.4 0.2-0.1 0.4-1.4 0.4-2.8 0-1.4 0.2-2.7 0.4-2.8 0.2-0.1 0.4-1 0.4-2 0-1 0.2-1.9 0.4-2 0.2-0.1 0.4-1 0.4-2 0-1 0.2-1.9 0.4-2 0.2-0.1 0.4-0.9 0.4-1.8 0-0.9 0.2-1.7 0.4-1.8 0.2-0.1 0.4-0.9 0.4-1.8 0-0.9 0.2-1.7 0.4-1.8 0.2-0.1 0.4-1.3 0.4-2.6 0-1.3 0.2-2.5 0.4-2.6 0.6-0.4 0.5-2.7-0.2-4.1-0.8-1.5-2.2-1.7-3.8-0.5-0.6 0.4-1.1 0.8-1.3 0.8-1 0-6.2 6.6-8.6 10.8-0.5 0.8-1.1 1.9-1.4 2.4-0.3 0.6-0.6 1.1-0.7 1.2-0.4 0.4-6 11.8-6 12.3 0 0.3-0.2 0.5-0.4 0.5-0.2 0-0.4 0.4-0.4 0.8 0 0.4-0.2 0.8-0.4 0.8-0.2 0-0.4 0.3-0.4 0.6 0 0.3-0.2 0.9-0.4 1.3-0.4 0.9-2 4.5-2.5 5.7-0.2 0.5-0.6 1.3-0.7 1.7-0.2 0.4-0.4 1-0.4 1.3 0 0.3-0.2 0.6-0.4 0.6-0.2 0-0.4 0.4-0.4 1 0 0.5-0.2 1.1-0.4 1.2-0.2 0.1-0.4 0.6-0.4 1 0 0.5-0.2 0.8-0.4 0.8-0.2 0-0.4 0.3-0.4 0.6 0 1.3-2.3 4.2-3.4 4.2-0.3 0-0.7 0.2-0.8 0.4-0.1 0.2-0.9 0.4-1.6 0.4-0.8 0-1.4-0.2-1.4-0.4 0-0.2-0.2-0.4-0.5-0.4-1.6 0-2-1.3-1.7-6.3 0.5-12.5 1.4-24.1 2-26.8 0.4-1.6 0.1-1.6-1.6 0.1-0.7 0.7-2 1.8-2.9 2.5-0.8 0.6-1.8 1.4-2.3 1.8-0.4 0.4-1 0.7-1.2 0.7-0.3 0-0.6 0.1-0.7 0.3 0 0.2-1.4 0.9-2.9 1.6-1.5 0.8-3.1 1.5-3.5 1.7-0.4 0.2-1.1 0.4-1.7 0.4-0.5 0-1.1 0.2-1.2 0.4-0.1 0.2-2 0.4-4.1 0.4-4.1 0-4.9 0.5-4.9 2.7 0 0.3-0.2 0.5-0.4 0.5-0.2 0-0.4 0.4-0.4 0.8 0 0.4-0.2 0.8-0.4 0.8-0.2 0-0.4 0.4-0.4 0.8 0 0.4-0.2 0.8-0.4 0.8-0.2 0-0.4 0.2-0.4 0.5 0 0.8-0.9 2.7-1.3 2.7-0.2 0-0.3 0.4-0.3 0.8 0 0.4-0.2 0.8-0.4 0.8-0.1 0-0.4 0.3-0.5 0.7-0.3 0.7-1.5 2.9-1.9 3.3-0.1 0.1-0.7 0.8-1.2 1.6-3.9 5.6-10.7 8.3-14.9 5.9-2.4-1.3-5.1-4.9-5.1-6.7 0-0.4-0.2-0.9-0.4-1-0.2-0.1-0.4-1-0.4-1.9 0-1-0.2-1.9-0.4-2.1-0.2-0.2-0.4-3.5-0.5-7.2-0.1-4.1-0.2-6.5-0.4-6-0.2 0.4-0.6 1.2-0.8 1.8-0.2 0.6-0.6 1.3-0.7 1.7-0.2 0.4-0.4 1-0.4 1.3 0 0.3-0.2 0.6-0.4 0.6-0.2 0-0.4 0.2-0.4 0.5 0 0.7-2.5 5.6-2.9 5.8-0.2 0.1-0.3 0.4-0.3 0.7 0 0.2-0.3 0.8-0.7 1.2-0.4 0.5-0.9 1.2-1.1 1.6-3.8 6.7-15.8 3.9-15.8-3.6 0-0.5-0.2-1.1-0.4-1.2-0.2-0.1-0.4-1.3-0.4-2.5 0-1.3-0.2-2.5-0.4-2.8-0.7-0.7 0.1-20.3 0.8-21.1 0.2-0.2 0.4-1 0.4-1.9 0-0.8 0.2-1.8 0.4-2.2 0.2-0.4 0.6-1.3 0.9-2.1 1.4-3.2 4.8-4.6 7.3-3 1.1 0.7 1.6 7 0.6 7.6-0.2 0.1-0.4 1.1-0.4 2.2 0 1.1-0.2 2.1-0.4 2.2-0.2 0.1-0.4 1.3-0.4 2.5 0 1.3-0.2 2.5-0.4 2.7-1.1 1.2-1.5 20.4-0.5 22.3 1.1 1.8 3.2 1.9 5.1 0.1 0.8-0.7 3-4.1 3-4.6 0-0.2 0.2-0.4 0.4-0.4 0.2 0 0.4-0.3 0.4-0.6 0-0.3 0.4-1.3 0.9-2.3 0.4-0.9 1-2.1 1.2-2.7 0.2-0.6 0.6-1.3 0.7-1.7 0.2-0.4 0.4-1 0.4-1.5 0-0.4 0.2-0.9 0.4-1 0.2-0.1 0.4-0.7 0.4-1.2 0-0.5 0.2-1.1 0.4-1.2 0.2-0.1 0.4-0.7 0.4-1.2 0-0.5 0.2-1.1 0.4-1.2 0.2-0.1 0.4-0.7 0.4-1.2 0-0.5 0.2-1.1 0.4-1.2 0.2-0.1 0.4-0.8 0.4-1.4 0-0.6 0.2-1.3 0.4-1.4 0.2-0.1 0.4-0.8 0.4-1.4 0-0.6 0.2-1.3 0.4-1.4 0.2-0.1 0.4-0.8 0.4-1.4 0-0.6 0.2-1.3 0.4-1.4 0.2-0.1 0.4-0.8 0.4-1.4 0-0.7 0.2-1.2 0.4-1.2 0.2 0 0.4-0.5 0.4-1.2 0-0.6 0.2-1.3 0.4-1.4 0.2-0.1 0.4-0.8 0.4-1.4 0-0.6 0.2-1.3 0.4-1.4 0.2-0.1 0.4-0.6 0.4-1 0-1.2 1.6-3.9 2.7-4.4 2.2-1.2 6.1-0.3 6.1 1.3 0 0.4 0.2 0.8 0.4 0.9 0.5 0.3 0.5 1.9 0 2.4-0.2 0.2-0.4 1.7-0.6 3.2-0.1 1.5-0.3 4.1-0.4 5.8-0.2 1.7-0.4 3.2-0.6 3.4-0.2 0.2-0.4 1.8-0.4 3.6 0 1.8-0.2 3.4-0.4 3.6-0.7 0.8-1.5 22.9-0.8 23.5 0.2 0.3 0.4 0.9 0.4 1.5 0 1.1 2 3.7 2.3 2.9 0.1-0.3 0.4-0.5 0.7-0.5 1.3 0 4.7-2.8 6.6-5.6 0.5-0.8 1.1-1.5 1.2-1.6 0.3-0.3 1.6-2.5 2.3-4.1 0.4-0.8 0.8-1.5 1-1.5 0.2 0 0.3-0.3 0.3-0.6 0-0.3 0.2-0.9 0.4-1.3 0.2-0.4 0.7-1.6 1.2-2.7 0.5-1.1 1.1-2.4 1.3-2.9 0.4-0.9-0.9-2.9-2-2.9-0.5 0-3.1-2.5-4.1-4-0.5-0.8-1.2-1.6-1.5-1.9-0.3-0.3-0.8-1.2-1.1-2-0.4-0.8-0.8-1.8-1-2.2-0.2-0.4-0.4-1-0.4-1.5 0-0.4-0.2-0.9-0.4-1-0.2-0.1-0.4-2.4-0.4-5.4 0-3 0.2-5.3 0.4-5.4 0.2-0.1 0.4-0.6 0.4-1 0-2.9 5.3-8.4 8.2-8.4 0.5 0 1.1-0.2 1.2-0.4 0.1-0.2 0.8-0.4 1.4-0.4 0.6 0 1.3 0.2 1.4 0.4 0.1 0.2 0.8 0.4 1.4 0.4 1.4 0 4.8 3.1 4.8 4.3 0 0.4 0.2 0.9 0.4 1.1 1 1.1 1 14.1 0 15.2-0.2 0.2-0.4 1-0.4 1.9 0 0.8-0.2 1.6-0.4 1.7-0.2 0.1-0.4 0.9-0.4 1.6 0 0.7-0.2 1.5-0.4 1.6-0.2 0.1-0.4 0.7-0.4 1.2 0 0.5-0.2 1.1-0.4 1.2-0.2 0.1-0.4 0.7-0.4 1.2 0 0.6-0.2 1-0.4 1-0.2 0-0.4 0.2-0.4 0.4 0 0.2 1.2 0.4 2.8 0.4 1.5 0 2.9-0.2 3-0.4 0.1-0.2 0.7-0.4 1.2-0.4 0.5 0 1.1-0.2 1.2-0.4 0.1-0.2 0.7-0.4 1.2-0.4 0.6 0 1-0.2 1-0.4 0-0.2 0.4-0.4 0.8-0.4 0.4 0 0.8-0.1 0.8-0.3 0-0.2 0.5-0.5 1.1-0.8 3-1.3 10.9-8.3 12-10.5 0.3-0.6 0.6-2.2 0.7-3.7 0.5-6.8 0.7-8.1 1-8.5 0.2-0.2 0.4-1.4 0.4-2.7 0-1.2 0.2-2.4 0.4-2.5 0.2-0.1 0.4-1.2 0.4-2.4 0-1.2 0.2-2.3 0.4-2.4 0.2-0.1 0.4-1 0.4-2 0-1 0.2-1.9 0.4-2 0.2-0.1 0.4-1 0.4-2 0-1 0.2-1.9 0.4-2 0.2-0.1 0.4-0.9 0.4-1.8 0-0.9 0.2-1.7 0.4-1.8 0.2-0.1 0.4-0.9 0.4-1.6 0-0.7 0.2-1.5 0.4-1.6 0.2-0.1 0.4-0.9 0.4-1.6 0-0.7 0.2-1.5 0.4-1.6 0.2-0.1 0.4-0.8 0.4-1.4 0-0.6 0.2-1.3 0.4-1.4 0.2-0.1 0.4-0.8 0.4-1.4 0-0.6 0.2-1.3 0.4-1.4 0.2-0.1 0.4-0.7 0.4-1.2 0-0.5 0.2-1.1 0.4-1.2 0.2-0.1 0.4-0.7 0.4-1.2 0-0.5 0.2-1.1 0.4-1.2 0.2-0.1 0.4-0.6 0.4-1 0-0.5 0.2-1.1 0.4-1.5 0.1-0.4 0.5-1.2 0.7-1.7 1.1-2.6 4.7-9.6 5-9.6 0.1 0 0.3-0.2 0.3-0.5 0-1.6 5.1-6.6 8.4-8.2 2.4-1.2 8.7-1.5 9.1-0.4zm1.7 6.3c0 0.4 0.2 0.9 0.4 1 0.2 0.1 0.4 2.1 0.4 4.6 0 2.5-0.2 4.5-0.4 4.6-0.2 0.1-0.4 0.9-0.4 1.6 0 0.7-0.2 1.5-0.4 1.6-0.2 0.1-0.4 0.7-0.4 1.2 0 0.5-0.2 1.1-0.4 1.2-0.2 0.1-0.4 0.6-0.4 1 0 0.5-0.2 1.2-0.4 1.6-0.2 0.4-0.6 1.2-0.8 1.6-0.2 0.4-0.4 1.1-0.4 1.4 0 0.3-0.2 0.6-0.4 0.6-0.2 0-0.4 0.4-0.4 0.8 0 0.4-0.2 0.8-0.4 0.8-0.2 0-0.4 0.4-0.4 0.8 0 0.4-0.2 0.8-0.4 0.8-0.2 0-0.4 0.4-0.4 0.8 0 0.4-0.2 0.8-0.4 0.8-0.2 0-0.4 0.3-0.4 0.8 0 0.4-0.1 0.8-0.3 0.9-0.4 0.1-1.7 2.3-2 3.2-0.1 0.4-0.4 0.7-0.5 0.7-0.2 0-0.4 0.2-0.4 0.4 0 0.5-5.4 8.6-6.5 9.8-0.4 0.4-0.7 0.9-0.7 1.1 0 0.2-0.5 0.9-1.2 1.6-0.7 0.7-1.2 1.5-1.2 1.7 0 0.1-0.3 0.6-0.7 1-0.4 0.3-1.2 1.2-1.7 2q-1.7 2.4-2.2 2.4c-0.4 0-0.2-2.3 0.2-2.6 0.2-0.1 0.4-1.4 0.4-2.8 0-1.4 0.2-2.7 0.4-2.8 0.2-0.1 0.4-1.2 0.4-2.4 0-1.2 0.2-2.3 0.4-2.4 0.2-0.1 0.4-1.1 0.4-2.2 0-1.1 0.2-2.1 0.4-2.2 0.2-0.1 0.4-1 0.4-2 0-1 0.2-1.9 0.4-2 0.2-0.1 0.4-0.9 0.4-1.8 0-0.9 0.2-1.7 0.4-1.8 0.2-0.1 0.4-0.9 0.4-1.6 0-0.7 0.2-1.5 0.4-1.6 0.2-0.1 0.4-0.9 0.4-1.6 0-0.7 0.2-1.5 0.4-1.6 0.2-0.1 0.4-0.9 0.4-1.6 0-0.7 0.2-1.5 0.4-1.6 0.2-0.1 0.4-0.7 0.4-1.2 0-0.5 0.2-1.1 0.4-1.2 0.2-0.1 0.4-0.8 0.4-1.4 0-0.6 0.2-1.3 0.4-1.4 0.2-0.1 0.4-0.6 0.4-1 0-0.5 0.2-1.1 0.4-1.5 0.3-0.8 1.1-2.7 1.6-3.9 0.6-1.6 2.2-4.8 2.5-4.9 0.2-0.1 0.3-0.4 0.3-0.7 0-0.2 0.8-1.3 1.7-2.3 2.8-3.1 8.7-1.9 8.7 1.7zm57.6 54.7c0 0.5 0.2 1 0.4 1.1 0.2 0.1 0.4 1 0.4 2 0 1-0.2 1.9-0.4 2-0.2 0.1-0.4 1.1-0.4 2.1 0 1.4-0.2 2-1.2 3-2.3 2.3-1.3 7.4 2 9.9 0.8 0.5 1.5 1.1 1.6 1.2 0.1 0.1 0.7 0.5 1.3 0.8 1.1 0.5 1.5 1.7 0.7 2.2-0.2 0.1-0.4 0.9-0.4 1.6 0 0.8-0.2 1.4-0.4 1.4-0.2 0-0.4 0.5-0.4 1.2 0 0.7-0.2 1.2-0.4 1.2-0.2 0-0.4 0.3-0.4 0.6 0 0.6-1.7 3.9-2.1 4.1-0.2 0.1-0.3 0.3-0.3 0.6 0 1.5-5.6 7.6-8.3 9-3.4 1.8-7.7 0.7-7.7-1.9 0-0.4-0.2-0.9-0.4-1-0.2-0.1-0.4-0.9-0.4-1.7 0-0.9-0.2-1.7-0.4-2-0.7-0.6 0.1-16.3 0.8-17.1 0.2-0.2 0.4-1.2 0.4-2.3 0-1 0.2-1.9 0.4-1.9 0.2 0 0.4-0.7 0.4-1.6 0-0.8 0.2-1.7 0.4-1.8 0.2-0.1 0.4-0.8 0.4-1.4 0-0.6 0.2-1.3 0.4-1.4 0.2-0.1 0.4-0.6 0.4-1 0-0.5 0.2-1.1 0.4-1.5 0.1-0.4 0.5-1.2 0.7-1.7 0.5-1.2 1.7-3.8 2.5-5.2 0.3-0.5 1.3-1.8 2.2-2.7 2.8-3 7.8-1.6 7.8 2.2zm-120.7-2.6c0.9 0.9 1.5 2.3 1.5 3.1 0 0.4 0.2 0.9 0.4 1 0.2 0.1 0.4 2.3 0.4 5.2 0 2.9-0.2 5.1-0.4 5.2-0.2 0.1-0.4 1.1-0.4 2.2 0 1.1-0.2 2-0.4 2-0.2 0-0.4 0.6-0.4 1.4 0 0.7-0.2 1.5-0.4 1.6-0.2 0.1-0.4 0.6-0.4 1 0 0.5-0.2 1.1-0.4 1.5-0.2 0.4-0.6 1.3-0.9 2l-0.6 1.3-2.1-1.8c-2.4-2.1-4.8-4.9-4.8-5.7 0-0.3-0.2-0.5-0.4-0.5-0.2 0-0.4-0.3-0.4-0.8 0-0.4-0.2-0.9-0.4-1-0.2-0.1-0.4-0.8-0.4-1.4 0-0.6-0.2-1.3-0.4-1.4-0.2-0.1-0.4-1.8-0.4-3.8 0-2 0.2-3.7 0.4-3.8 0.2-0.1 0.4-0.6 0.4-1 0-1.2 1.3-3.3 3.2-5.1 0.5-0.5 1.2-1.1 1.4-1.3 0.6-0.6 5.4-0.5 5.9 0.1zm124.7 17.4c0 0.3 0.2 0.5 0.4 0.5 0.2 0 0.4 0.7 0.4 1.6 0 1.9-0.1 1.9-1.7 0.3-1.6-1.6-2.5-3.3-2.2-4.1 0.5-1.2 3 0.2 3.1 1.7zm-73.7 38.5c0.1 0.5 0 1-0.2 1.2-0.2 0.1-1.1 1.2-2.1 2.4-1 1.2-2.2 2.6-2.7 3.1-1.2 1.2-3 3.7-2.9 3.8 0.9 0.6 5.4 2.7 5.8 2.7 0.3 0 0.6 0.2 0.7 0.4 0.1 0.5 2.3-0.4 2.3-0.9 0-0.2 0.4-0.3 0.8-0.3 0.4 0 0.8-0.2 0.8-0.4 0-0.2 0.4-0.4 0.8-0.4 0.4 0 0.8-0.2 0.8-0.4 0-0.2 0.3-0.4 0.6-0.4 0.3 0 1.3-0.4 2.3-0.9 0.9-0.4 2.1-1 2.7-1.2 0.5-0.2 1.3-0.6 1.7-0.7 0.4-0.2 1-0.4 1.3-0.4 0.3 0 1-0.2 1.4-0.4 0.4-0.2 1.2-0.6 1.6-0.8 0.4-0.2 1.2-0.4 1.8-0.4 0.5 0 1.1-0.2 1.2-0.4 0.1-0.2 0.8-0.4 1.4-0.4 0.6 0 1.3-0.2 1.4-0.4 0.1-0.2 0.9-0.4 1.8-0.4 0.9 0 1.7-0.2 1.8-0.4 0.1-0.2 1-0.4 2-0.4 1 0 1.9-0.2 2-0.4 0.1-0.2 1.7-0.4 3.4-0.4 1.7 0 3.3-0.2 3.4-0.4 0.2-0.2 3.1-0.4 7.4-0.4 4.3 0 7.3 0.2 7.4 0.4 0.1 0.2 1.3 0.4 2.6 0.4 1.3 0 2.5 0.2 2.6 0.4 0.1 0.2 0.8 0.4 1.4 0.4 0.7 0 1.5 0.2 1.9 0.4 0.4 0.1 1.2 0.5 1.9 0.8 6.4 2.6 9.4 6.3 9.4 11.3 0 2.7-0.6 5.1-1.3 5.1-0.2 0-0.3 0.3-0.3 0.6 0 0.5-1.1 1.5-3.4 3.4-0.5 0.3-1.7 1-2.8 1.5-1.1 0.6-2.3 1.1-2.7 1.3-0.4 0.2-1.1 0.4-1.7 0.4-0.5 0-1.1 0.2-1.2 0.4-0.1 0.2-1.1 0.4-2.2 0.4-1.1 0-2.1 0.2-2.2 0.4-0.1 0.2-3.1 0.4-7.4 0.4-4.3 0-7.2-0.2-7.4-0.4-0.1-0.2-1.4-0.4-2.8-0.4-1.4 0-2.7-0.2-2.8-0.4-0.1-0.2-1-0.4-2-0.4-1 0-1.9-0.2-2-0.4-0.1-0.2-0.9-0.4-1.8-0.4-0.9 0-1.7-0.2-1.8-0.4-0.1-0.2-0.8-0.4-1.4-0.4-0.6 0-1.3-0.2-1.4-0.4-0.1-0.2-0.8-0.4-1.4-0.4-0.6 0-1.3-0.2-1.4-0.4-0.1-0.2-0.6-0.4-1-0.4-0.5 0-1.2-0.2-1.6-0.4-0.4-0.2-1.2-0.6-1.6-0.8-0.4-0.2-1.1-0.4-1.6-0.4-0.4 0-0.9-0.2-1-0.4-0.1-0.2-0.6-0.4-1-0.4-0.5 0-0.8-0.2-0.8-0.4 0-0.2-0.4-0.4-0.8-0.4-0.4 0-1.4-0.4-2.2-0.8-0.8-0.4-1.7-0.8-2-0.8-0.3 0-0.6-0.2-0.6-0.4 0-0.2-0.3-0.4-0.6-0.4-0.3 0-0.9-0.2-1.3-0.4-3.7-1.9-3.9-1.9-8.1 1-1.6 1.1-3.2 2.2-3.6 2.4-1 0.7-8.8 8.5-8.8 8.9 0 0.2-0.3 0.7-0.7 1.1-0.4 0.5-1 1.3-1.3 1.9-0.3 0.6-0.7 1.1-0.9 1.1-0.2 0-0.3 0.2-0.3 0.4 0 2-2.8 3.4-3.7 2-0.4-0.7 0.4-3.2 1-3.2 0.2 0 0.3-0.2 0.3-0.4 0-2.3 13.3-16.4 15.4-16.4 0.1 0 0.6-0.4 1.1-0.8 0.5-0.4 1.1-0.8 1.4-0.8 0.3 0 0.5-0.1 0.5-0.2 0-0.4-1.1-1.4-1.6-1.4-0.2 0-1-0.4-1.8-0.8-2.1-1.2-2.3-1.1-5.5 2.1-1.7 1.6-3.7 3.5-4.5 4.1-0.9 0.7-1.9 1.5-2.2 1.8-0.8 0.9-6.7 4.8-7.2 4.8-0.2 0-0.4 0.2-0.4 0.4 0 0.2-0.4 0.4-0.8 0.4-0.4 0-0.8 0.2-0.8 0.4 0 0.2-0.4 0.4-0.8 0.4-0.4 0-0.8 0.2-0.8 0.4 0 0.2-0.3 0.4-0.6 0.4-0.3 0-0.9 0.2-1.3 0.4-0.4 0.1-1.2 0.5-1.9 0.8-0.7 0.3-1.5 0.7-1.9 0.8-0.4 0.2-1.1 0.4-1.7 0.4-0.5 0-1.1 0.2-1.2 0.4-0.1 0.2-0.9 0.4-1.8 0.4-0.9 0-1.7 0.2-1.8 0.4-0.1 0.2-3.1 0.4-7.4 0.4-4.3 0-7.2-0.2-7.4-0.4-0.1-0.2-0.8-0.4-1.4-0.4-0.7 0-1.6-0.2-2.1-0.5-1.8-0.9-2.3-1.1-2.7-1.1-2.6 0-10-7.7-10-10.4 0-0.4-0.2-0.9-0.4-1-0.5-0.3-0.5-3.7 0-4 0.2-0.1 0.4-0.7 0.4-1.3 0-1.7 4.4-7.3 5.9-7.3 0.2 0 0.5-0.1 0.6-0.3 0.2-0.4 3.5-2.1 4.1-2.1 0.3 0 0.6-0.2 0.6-0.4 0-0.2 0.3-0.4 0.8-0.4 0.4 0 0.9-0.2 1-0.4 0.1-0.2 0.8-0.4 1.4-0.4 0.6 0 1.3-0.2 1.4-0.4 0.1-0.2 0.9-0.4 1.8-0.4 0.9 0 1.7-0.2 1.8-0.4 0.1-0.2 1.4-0.4 2.8-0.4 1.4 0 2.7-0.2 2.8-0.4 0.1-0.2 2.3-0.4 5-0.4 2.7 0 4.9 0.2 5 0.4 0.1 0.2 1.5 0.4 3 0.4 1.5 0 2.9 0.2 3 0.4 0.1 0.2 0.9 0.4 1.8 0.4 0.9 0 1.7 0.2 1.8 0.4 0.1 0.2 0.9 0.4 1.6 0.4 0.7 0 1.5 0.2 1.6 0.4 0.1 0.2 0.7 0.4 1.2 0.4 0.5 0 1.1 0.2 1.2 0.4 0.1 0.2 0.7 0.4 1.2 0.4 0.5 0 1.1 0.2 1.2 0.4 0.1 0.2 0.6 0.4 1 0.4 0.4 0 1.4 0.4 2.2 0.8 0.8 0.4 1.7 0.8 2 0.8 0.3 0 1.2 0.4 2 0.8 0.8 0.4 1.7 0.8 2 0.8 0.3 0 0.6 0.2 0.7 0.5 0.2 0.6 0.3 0.5 3.5-3.3 1.2-1.4 2.7-3.1 3.3-3.8 0.7-0.7 1.5-1.6 1.8-2.1 0.9-1.3 3-1.1 3.2 0.3zm-44.1 3.6c3.7 0 6.3 0.2 6.4 0.4 0.1 0.2 1.2 0.4 2.4 0.4 1.2 0 2.3 0.2 2.4 0.4 0.1 0.2 0.9 0.4 1.8 0.4 0.9 0 1.7 0.2 1.8 0.4 0.1 0.2 0.7 0.4 1.2 0.4 0.5 0 1.1 0.2 1.2 0.4 0.1 0.2 0.7 0.4 1.2 0.4 0.5 0 1.1 0.2 1.2 0.4 0.1 0.2 0.6 0.4 1 0.4 0.5 0 1.1 0.2 1.5 0.4 0.4 0.1 1.1 0.5 1.7 0.7 1.8 0.7 3.4 1.4 4.1 1.7 0.4 0.2 1 0.4 1.3 0.4 1.7 0-2.1 4.5-7 8.4-1 0.7-1.9 1.5-1.9 1.7-0.1 0.2-0.4 0.3-0.6 0.3-0.3 0-1.1 0.6-1.9 1.2-0.7 0.7-1.6 1.2-1.9 1.2-0.2 0-0.5 0.1-0.6 0.3-0.1 0.3-4.6 2.6-6.7 3.4-0.6 0.2-1.3 0.6-1.7 0.7-0.4 0.2-1 0.4-1.5 0.4-0.4 0-0.9 0.2-1 0.4-0.1 0.2-0.9 0.4-1.6 0.4-0.7 0-1.5 0.2-1.6 0.4-0.1 0.2-1.4 0.4-2.8 0.4-1.4 0-2.7 0.2-2.8 0.4-0.1 0.2-1.3 0.4-2.6 0.4-1.3 0-2.5-0.2-2.6-0.4-0.1-0.2-1.2-0.4-2.4-0.4-1.2 0-2.3-0.2-2.4-0.4-0.1-0.2-0.6-0.4-1-0.4-0.5 0-1.1-0.2-1.5-0.4-0.4-0.2-1-0.4-1.3-0.6-0.7-0.2-2.7-1.5-4.9-3-0.8-0.5-1.8-1.7-2.4-2.5-0.5-0.8-1-1.5-1.2-1.5-0.2 0-0.3-0.3-0.3-0.8 0-0.4-0.2-0.9-0.4-1-0.2-0.1-0.4-1-0.4-2 0-1 0.2-1.9 0.4-2 0.2-0.1 0.4-0.6 0.4-1 0-2 9-8.4 11.7-8.4 0.3 0 0.8-0.2 0.9-0.4 0.1-0.2 0.9-0.4 1.6-0.4 0.7 0 1.5-0.2 1.6-0.4 0.1-0.2 1.2-0.4 2.4-0.4 1.2 0 2.3-0.2 2.4-0.4 0.1-0.2 2.7-0.4 6.4-0.4zm87 1.6c5.1 0 8.4 0.2 8.6 0.4 0.1 0.2 1.2 0.4 2.4 0.4 1.2 0 2.3 0.2 2.4 0.4 0.1 0.2 0.6 0.4 1 0.4 0.5 0 1.1 0.2 1.5 0.4 0.4 0.2 1.5 0.7 2.5 1.2 2.7 1.3 6 4.5 6 5.9 0 0.4 0.2 1 0.5 1.2 0.4 0.4 0.4 0.6 0 1-0.3 0.2-0.5 0.8-0.5 1.2 0 2.3-6.4 7.5-9.2 7.5-0.4 0-0.9 0.2-1 0.4-0.1 0.2-0.9 0.4-1.6 0.4-0.7 0-1.5 0.2-1.6 0.4-0.2 0.2-3.5 0.4-8.8 0.4-5.3 0-8.6-0.2-8.8-0.4-0.1-0.2-1.2-0.4-2.4-0.4-1.2 0-2.3-0.2-2.4-0.4-0.1-0.2-0.9-0.4-1.8-0.4-0.9 0-1.7-0.2-1.8-0.4-0.1-0.2-0.9-0.4-1.6-0.4-0.7 0-1.5-0.2-1.6-0.4-0.1-0.2-0.8-0.4-1.4-0.4-0.6 0-1.3-0.2-1.4-0.4-0.1-0.2-0.7-0.4-1.2-0.4-0.5 0-1.1-0.2-1.2-0.4-0.1-0.2-0.6-0.4-1-0.4-0.5 0-1.2-0.2-1.6-0.4-0.4-0.2-1.2-0.6-1.6-0.8-0.4-0.2-1-0.4-1.4-0.4-0.3 0-1.3-0.4-2.3-0.9-0.9-0.4-2.1-0.9-2.5-1.1-1.1-0.4-6.2-2.9-6.2-3 0-0.3 2.5-1.4 3.1-1.4 0.3 0 0.5-0.2 0.5-0.4 0-0.2 0.4-0.4 0.8-0.4 0.4 0 0.8-0.2 0.8-0.4 0-0.2 0.3-0.4 0.6-0.4 0.3 0 1-0.2 1.4-0.4 0.4-0.2 1.2-0.6 1.6-0.8 0.4-0.2 1.1-0.4 1.4-0.4 0.3 0 1-0.2 1.5-0.5 1.9-1 2.3-1.1 3.1-1.1 0.4 0 0.9-0.2 1-0.4 0.1-0.2 0.8-0.4 1.4-0.4 0.6 0 1.3-0.2 1.4-0.4 0.1-0.2 0.9-0.4 1.6-0.4 0.7 0 1.5-0.2 1.6-0.4 0.1-0.2 1-0.4 2-0.4 1 0 1.9-0.2 2-0.4 0.1-0.2 1.4-0.4 2.8-0.4 1.4 0 2.7-0.2 2.8-0.4 0.2-0.2 3.5-0.4 8.6-0.4zm-135.8 101.8c1.8 0.7 0.6 1.9-1.6 1.6l-2.2-0.3v1.7c0 1.6 0 1.6 1.4 1.6 1.9 0 1.8 1.3-0.1 1.5-1.2 0.1-1.3 0.2-1.4 2.4-0.1 2.2-0.2 2.3-1.1 2.3h-1l-0.1-5c-0.1-2.7 0-5.2 0.1-5.5 0.2-0.5 4.7-0.7 6-0.3zm14.5 0.3c1.7 1.7 0.3 11.6-1.5 10.5-0.6-0.4-0.5-10.5 0.1-10.7 0.8-0.4 0.9-0.3 1.4 0.2zm15.9 0.6c0.6 0.6 1.7 1.9 2.5 3 1.9 2.5 2.1 2.4 2.1-0.9 0-2.5 0.1-2.8 0.8-2.8 0.8 0 0.8 0.3 0.8 5.1 0 6.9-0.2 7-4.2 1.9l-2.4-3.1-0.2 3.2c-0.2 2.8-0.3 3.1-1.1 3.2-0.9 0.2-0.9 0.1-0.9-4.8 0-6.1 0.6-7.1 2.6-4.8zm24.6-0.6c6.9 2.2 5.2 10.7-2.1 10.7-3.6 0-3.5 0.2-3.5-5.4 0-6 0.9-6.9 5.6-5.3zm17.9 0c0.2 0.3 0.8 1.8 1.3 3.5 0.8 2.6 1 2.9 1.5 2.2 0.6-0.9 0.7-2.9 0.1-4.3-0.3-0.8-0.2-1.2 0.3-1.5 1-0.9 1.8 0 2.8 3 1.2 3.7 1.5 3.8 2.3 1.3 1.1-3.4 1.5-4.3 2-4.3 1 0 1 0.7-0.1 3.4-0.5 1.6-1.3 3.8-1.8 5.1-1 3.1-2 2.9-3.1-0.4-0.7-2.2-0.9-2.1-1.8 0.3-1.1 3.2-1.8 3.1-3-0.3-0.4-1-1.2-3.1-1.7-4.7-1.2-3.1-0.4-5.3 1.2-3.3zm25.2 0c0.3 0.2 0.5 1.3 0.5 2.4v1.9h1.8 1.8v-2c0-2.7 1.9-3.9 2.6-1.5 0.5 1.9 0.2 9-0.4 9.5-1.3 1-2.2 0.1-2.2-2.2v-2.2h-1.8-1.8l-0.1 2.3c-0.1 2.2-0.2 2.3-1.1 2.3h-1l-0.1-5c-0.1-6 0.2-7.1 1.8-5.5zm28 0.8c4.4 4.1 0.1 11.4-5.7 9.9-4.4-1.3-4.7-8.2-0.5-10.5 2.2-1.1 4.5-0.9 6.2 0.6zm19.7 1.6c2.7 6 3.3 7.5 3 7.9-0.5 0.8-1.8 0.4-2.5-0.7-1.5-2.3-4-2.5-5.2-0.3-1.5 2.4-2.5 1.5-1.3-1.1 0.4-0.9 1.3-3.1 2-4.7 2.1-4.8 2.3-4.9 4-1.1zm21.2-2.3c2.3 1.2 2.6 2.9 0.8 4.6l-1.3 1.2 1.8 2c1.6 2 1.6 2.1 0.9 2.6-1 0.8-1.7 0.3-3.6-2.4-1.9-2.8-2.1-2.8-2.3 0.1-0.1 2.2-0.2 2.3-1.1 2.3h-1l-0.1-4.9q-0.1-5 0.3-5.5c0.7-0.8 4.1-0.8 5.6 0zm21.8 0.4c0 0.7-0.3 0.8-2 0.8h-2l-0.1 1.5c-0.1 1.5-0.1 1.5 1.3 1.5 1.5 0 2.2 0.7 1.4 1.2-0.4 0.2-1.1 0.4-1.7 0.4-1 0-1.1 0.1-1.1 1.6v1.6l2-0.1c2.2-0.1 2.6 0.1 2.3 1.1-0.2 0.5-0.9 0.6-3.4 0.5l-3.1-0.1-0.1-5.2c-0.1-6-0.2-5.8 3.7-5.7 2.5 0.1 2.8 0.2 2.8 0.9zm-133.6 1.5c2.6 2.2 1.4 7.1-1.6 7.1h-1.4v-4c0-4.5 0.6-5.1 3-3.1zm69.8 4.5c-0.5 3.1-3.9 3.9-5 1.2-1-2.3-0.7-4.1 0.9-5.9 2.1-2.4 4.8 0.7 4.1 4.7zm41-3.2c-0.4 1.7-2.6 1.4-2.6-0.3 0-0.8 0.1-1.5 0.3-1.6 1-1.1 2.7 0.4 2.3 1.9zm-21.6 1.9c0.3 1 0.2 1.1-0.8 1.1-1.1 0-1.2-0.3-0.5-1.8 0.5-1.1 0.9-0.9 1.3 0.7zm-77.2 15.4c0.3 0.2 1 1.2 1.6 2.4 1.3 2.6 1.2 2.6 2.5-0.1 0.9-2.1 1.7-2.7 2.3-1.8 0.1 0.2-0.4 1.6-1.2 3.3-1 2-1.4 3.4-1.4 4.8 0 1.5-0.1 1.9-0.8 2.1-1.2 0.4-1.6-0.1-1.6-1.9 0-1.1-0.5-2.6-1.6-4.8-1.9-3.6-1.8-5.3 0.2-4zm26.6 0.6c1.7 1.2 2.6 3.5 2.2 5.7-0.9 5.1-8 6.5-10.2 2.1-2.8-5.3 3.2-11.1 8-7.8zm16.3-0.4c0.3 0.3 0.5 1.8 0.5 4.3 0 4.3 0.3 4.8 2.2 4.8 2 0 2.4-0.8 2.5-5.3 0.2-3.4 0.3-3.9 0.8-3.8 1.5 0.3 1 8.6-0.5 9.9-1.7 1.4-5.7 1.1-6.8-0.5-0.6-0.9-0.9-9.1-0.3-9.6 0.4-0.4 1.1-0.4 1.6 0.2zm-16.9 5.4q0 4.1-2.6 4.1c-2.7 0-3.8-5.4-1.6-7.6 2.1-2.1 4.2-0.4 4.2 3.5z" />
	</g>
	<g id="path2">
		<path id="Layer" fill-rule="evenodd" class="s2" d="m177.5 9.8c0.8 0 1.1 0.1 0.7 0.2-0.4 0.1-1 0.1-1.4 0-0.4-0.1-0.1-0.2 0.7-0.2zm3.1 2.7c0.2 0 0.8 0.5 1.3 1.1l1 1.1-1.2-1c-0.7-0.5-1.3-1-1.4-1.1-0.1-0.1 0-0.1 0.3-0.1zm-11.6 0.8c0.3 0 0 0.3-1.2 1.4l-1.3 1.2 1.2-1.3c0.6-0.7 1.2-1.3 1.3-1.3zm15.6 6.9c0.1 0.6 0.1 1.7 0 2.4-0.1 0.7-0.2 0.2-0.2-1.1 0-1.3 0.1-1.9 0.2-1.3zm2.4 0.2c0.1 0.7 0.1 2 0 2.8-0.1 0.8-0.2 0.2-0.2-1.3 0-1.5 0.1-2.2 0.2-1.5zm54.3 46.2l1.2 1.3-1.3-1.2c-0.7-0.6-1.3-1.2-1.3-1.3 0-0.3 0.3 0 1.4 1.2zm-82.7 3.2c0.1 0.4 0.4 0.6 0.6 0.4q0.4-0.2 0.1 0.2c-0.4 0.8-1 0.6-1-0.4 0.1-0.7 0.1-0.7 0.3-0.2zm23.1 1.2c0.9 0 1.3 0.1 0.9 0.2-0.4 0.1-1.1 0.1-1.6 0-0.5-0.1-0.2-0.2 0.7-0.2zm-80.3 1c0.1 0.5 0.1 1.4 0 2-0.1 0.6-0.2 0.2-0.2-0.9 0-1.1 0.1-1.6 0.2-1.1zm59.7-0.2c0 0.1-0.6 0.7-1.3 1.3l-1.3 1.2 1.2-1.3c1.1-1.2 1.4-1.5 1.4-1.2zm82.7 1.2c0.1 0.4 0.1 1.1 0 1.6-0.1 0.5-0.2 0.2-0.2-0.7 0-0.9 0.1-1.3 0.2-0.9zm-118.4 3c0.1 0.9 0.1 2.5 0 3.4-0.1 0.9-0.2 0.2-0.2-1.7 0-1.9 0.1-2.6 0.2-1.7zm52-1.1c0.3 0 0 0.3-1.4 1.6l-1.5 1.4 1.4-1.5c0.7-0.8 1.4-1.5 1.5-1.5zm6.8 3.3c0.1 0.4 0.1 1 0 1.4-0.1 0.4-0.2 0.1-0.2-0.7 0-0.8 0.1-1.1 0.2-0.7zm5.2 3.2c0.1 0.8 0.1 2.2 0 3.2-0.1 0.9-0.2 0.3-0.2-1.5 0-1.8 0.1-2.5 0.2-1.7zm-42.7 3.6c0 0.1-1.2 1.3-2.7 2.7l-2.7 2.6 2.6-2.7c2.4-2.5 2.8-2.9 2.8-2.6zm126.3 0.7c0.3 0 0 0.3-1.4 1.6l-1.5 1.4 1.4-1.5c0.7-0.8 1.4-1.5 1.5-1.5zm-3.5 0.5c0 0.1-0.6 0.7-1.3 1.3l-1.3 1.2 1.2-1.3c1.1-1.2 1.4-1.5 1.4-1.2zm-27.6 1.1c0.1 0 0.9 0.7 1.8 1.6 0.9 0.9 1.5 1.6 1.4 1.6-0.1 0-0.9-0.7-1.8-1.6-0.9-0.9-1.5-1.6-1.4-1.6zm-176.9 1.5c0.1 0.5 0.1 1.4 0 2-0.1 0.6-0.2 0.2-0.2-0.9 0-1.1 0.1-1.6 0.2-1.1zm181.6 0.4c0.3 0.7-0.2 1.7-0.8 1.7-0.4-0.1-0.4-0.1 0-0.3 0.3-0.1 0.5-0.6 0.5-1 0-0.5 0.2-0.7 0.3-0.4zm-30.3 2.2c-0.1 0.7-0.1 0.7-0.3 0.2-0.1-0.6-0.3-0.7-0.8-0.2-0.6 0.4-0.6 0.4-0.2-0.2 0.8-1 1.3-0.9 1.3 0.2zm-69.7 0c0.1 0.4 0.1 1 0 1.4-0.1 0.4-0.2 0.1-0.2-0.7 0-0.8 0.1-1.1 0.2-0.7zm-47.6 1.2c0.1 0.4 0.1 1 0 1.4-0.1 0.4-0.2 0.1-0.2-0.7 0-0.8 0.1-1.1 0.2-0.7zm-34.4 2.4c0.1 1 0.1 2.8 0 4-0.1 1.1-0.2 0.3-0.2-1.9 0-2.2 0.1-3.2 0.2-2.1zm49.1 1.2l1.2 1.3-1.3-1.2c-0.7-0.6-1.3-1.2-1.3-1.3 0-0.3 0.3 0 1.4 1.2zm138.8-1.2c0.9 0 1.3 0.1 0.9 0.2-0.4 0.1-1.1 0.1-1.6 0-0.5-0.1-0.2-0.2 0.7-0.2zm-161.9 1.2c0.1 0.4 0.1 1 0 1.4-0.1 0.4-0.2 0.1-0.2-0.7 0-0.8 0.1-1.1 0.2-0.7zm132.4 0.8c0.1 0.4 0.1 1.1 0 1.6-0.1 0.5-0.2 0.2-0.2-0.7 0-0.9 0.1-1.3 0.2-0.9zm-124.4 0.8c0.1 0.4 0.1 1 0 1.4-0.1 0.4-0.2 0.1-0.2-0.7 0-0.8 0.1-1.1 0.2-0.7zm47.2 2c0.1 0.4 0.1 1 0 1.4-0.1 0.4-0.2 0.1-0.2-0.7 0-0.8 0.1-1.1 0.2-0.7zm-55.6 0.6c0.1 0.5 0.1 1.3 0 1.8-0.1 0.5-0.2 0.1-0.2-0.9 0-1 0.1-1.4 0.2-0.9zm31.7-0.1c0 0-0.5 0.2-1.2 0.3-0.6 0.1-1.1 0-1-0.2 0.2-0.3 2.2-0.4 2.2-0.1zm-23.7 1.1c0.1 0.4 0.1 1.1 0 1.6-0.1 0.5-0.2 0.2-0.2-0.7 0-0.9 0.1-1.3 0.2-0.9zm-26.8 0.4c0.1 0.4 0.1 1.1 0 1.6-0.1 0.5-0.2 0.2-0.2-0.7 0-0.9 0.1-1.3 0.2-0.9zm82.8 1.2c0.1 0.4 0.1 1 0 1.4-0.1 0.4-0.2 0.1-0.2-0.7 0-0.8 0.1-1.1 0.2-0.7zm-8.8 0.6c0.1 0.5 0.1 1.3 0 1.8-0.1 0.5-0.2 0.1-0.2-0.9 0-1 0.1-1.4 0.2-0.9zm55.7 2.6c0 0.1-0.6 0.7-1.3 1.3l-1.3 1.2 1.2-1.3c1.1-1.2 1.4-1.5 1.4-1.2zm-22.1 0.8c0.1 0.4 0.1 1 0 1.4-0.1 0.4-0.2 0.1-0.2-0.7 0-0.8 0.1-1.1 0.2-0.7zm-88.8 0.8c0.1 0.4 0.1 1.1 0 1.6-0.1 0.5-0.2 0.2-0.2-0.7 0-0.9 0.1-1.3 0.2-0.9zm63.1 2.3c0.3 0 0.4 2.4 0.1 2.6-0.1 0.2-0.3-0.4-0.3-1.2 0-0.8 0.1-1.4 0.2-1.4zm43.7 0.4c0.3 0 0 0.3-1.4 1.6l-1.5 1.4 1.4-1.5c0.7-0.8 1.4-1.5 1.5-1.5zm-52 1.5c0.1 0.5 0.1 1.4 0 2-0.1 0.6-0.2 0.2-0.2-0.9 0-1.1 0.1-1.6 0.2-1.1zm40 1.2c0.1 0.5 0.1 1.3 0 1.8-0.1 0.5-0.2 0.1-0.2-0.9 0-1 0.1-1.4 0.2-0.9zm-104 0.1c0.3 0 0 0.3-1.4 1.6l-1.5 1.4 1.4-1.5c0.7-0.8 1.4-1.5 1.5-1.5zm-13.3 1l1.4 1.2c2.2 1.9 2.2 1.9 1.4 1.5-0.4-0.2-1.2-0.9-1.8-1.6zm76.9 2.7c0.1 0.4 0.1 1.1 0 1.6-0.1 0.5-0.2 0.2-0.2-0.7 0-0.8 0.1-1.2 0.2-0.9zm-70.9 0.4c0.9 0 1.3 0.1 0.9 0.2-0.4 0.1-1.1 0.1-1.6 0-0.5-0.1-0.2-0.2 0.7-0.2zm36.2 1.3c0 0-0.8 0.8-1.7 1.7l-1.7 1.5 1.6-1.7c1.4-1.5 1.8-1.8 1.8-1.5zm-10.4 2c0.5 0.6 1.2 1.1 1.7 1.1 0.8 0 0.8 0.1 0.2 0.2-0.8 0.2-2.7-1.2-2.7-2 0-0.2 0.4 0.1 0.8 0.7zm0.8 3.1c0.8 0 1.1 0.1 0.7 0.2-0.4 0.1-1 0.1-1.4 0-0.4-0.1-0.1-0.2 0.7-0.2zm31.6 2c0.8 0 1.1 0.1 0.7 0.2-0.4 0.1-1 0.1-1.4 0-0.4-0.1-0.1-0.2 0.7-0.2zm82.6 1.3c2.6 0 3.8 0.1 2.5 0.1-1.2 0.1-3.4 0.1-4.8 0-1.4 0-0.3-0.1 2.3-0.1zm-81.8 0.7c0.8 0 1.1 0.1 0.7 0.2-0.4 0.1-1 0.1-1.4 0-0.4-0.1-0.1-0.2 0.7-0.2zm81.8 1.3c2.4 0 3.5 0.1 2.3 0.1-1.1 0.1-3.1 0.1-4.4 0-1.3 0-0.3-0.1 2.1-0.1zm24.7 10l0.2 1.3c0.1 0.7-0.1 1.6-0.3 2-0.4 0.7-0.4 0.7-0.2 0 0.1-0.4 0.2-1.3 0.3-2zm-81.5 8.2c0.3 0 0 0.4-2.4 2.6l-2.5 2.4 2.4-2.5c1.3-1.4 2.5-2.5 2.5-2.5zm1.7 1.3c0 0.1-1.1 1.2-2.5 2.5l-2.5 2.4 2.4-2.5c2.2-2.3 2.6-2.7 2.6-2.4zm66.4 2.7c-0.3 0.2-0.9 0.4-1.4 0.4-0.6-0.1-0.6-0.1 0.2-0.4 1.4-0.4 1.9-0.4 1.2 0zm-13.2 0.5c1 0 1.4 0.1 0.9 0.2-0.5 0.1-1.3 0.1-1.8 0-0.5-0.1-0.1-0.2 0.9-0.2zm7.4 0c0.9 0 1.3 0.1 0.9 0.2-0.3 0.1-1.1 0.1-1.6 0-0.5-0.1-0.1-0.2 0.7-0.2zm-7.4 2c1.2 0 1.7 0.1 1.1 0.2-0.6 0.1-1.6 0.1-2.2 0-0.6-0.1-0.1-0.2 1.1-0.2zm7.4 0c1.1 0 1.6 0.1 1.1 0.2-0.5 0.1-1.4 0.1-2 0-0.6-0.1-0.2-0.2 0.9-0.2zm-100.2 1.6c2.1 0 3 0.1 1.9 0.2-1 0.1-2.7 0.1-3.8 0-1-0.1-0.2-0.2 1.9-0.2zm0.2 2c1.6 0 2.2 0.1 1.3 0.2-0.8 0.1-2.1 0.1-2.8 0-0.7-0.1 0-0.2 1.5-0.2zm27.3 4c0 0.7 0.1 0.9 0.7 0.8 0.5 0 0.6 0.1 0.3 0.4-0.6 0.6-1.8-0.5-1.4-1.4 0.3-1 0.5-0.9 0.4 0.2zm-69.3 70.3c0.1 0 0.2 0.3 0.2 0.6 0 0.4-0.3 0.6-0.9 0.6-0.6-0.1-0.7-0.1-0.2-0.3 0.4-0.1 0.7-0.3 0.7-0.5 0-0.2 0.1-0.4 0.2-0.4zm14.3 0.4c0.2 0.1 0.3 2.5 0.2 5.2l-0.1 5-0.2-5.3c-0.1-2.9 0-5.1 0.1-4.9zm14.5 4.7c0 4.6 0 4.8 0.2 1.7l0.3-3.4 0.1 3.5c0 2.7-0.1 3.5-0.5 3.4-0.5-0.2-0.9-8.6-0.5-9.8 0.4-1 0.4-0.5 0.4 4.6zm21.4 0.2l-0.2 5.3-0.1-4.8c0-2.6 0-5 0.1-5.3 0.4-1 0.4-0.4 0.2 4.8zm4.6-5.1c0.3 0.2 0.5 0.5 0.4 0.8-0.2 0.6-1.4-0.1-1.4-0.8 0-0.3 0.2-0.3 1 0zm49.5 0.2c0.2 0.1 0.3 2.4 0.2 5l-0.1 4.8-0.2-5.1c-0.1-2.8 0-4.9 0.1-4.7zm-68.1 3.4c0 2.8-0.1 3.3-0.6 3.1-0.6-0.2-0.8-4.5-0.3-5.9 0.6-1.5 0.9-0.4 0.9 2.8zm-23.3-0.9c0.1 1.2 0.1 3.4 0 4.8 0 1.4-0.1 0.3-0.1-2.3 0-2.6 0-3.8 0.1-2.5zm70.1-1.7c0.1 0.4 0.2 0.3 0.5-0.1 0.3-0.4 0.4-0.4 0.2 0.1 0 0.3-0.4 0.6-0.8 0.6-0.7 0.1-0.9-0.2-0.4-0.8 0.2-0.1 0.4 0 0.5 0.2zm80.4 1.7c-0.1 2-0.2 2-0.3 0.6-0.1-0.9 0-1.8 0.1-2.1 0.4-1 0.4-0.6 0.2 1.5zm19.1 0c0.1 1.2 0.1 3.4 0 4.8 0 1.4-0.1 0.3-0.1-2.3 0-2.6 0-3.8 0.1-2.5zm-38.7 0c0.4 0.5 0.3 0.6-0.6 0.4-0.5-0.1-0.9-0.3-0.7-0.5 0.3-0.5 0.8-0.5 1.3 0.1zm-61.3 0.4c0.6 0 0.6 0.1-0.1 0.6-0.7 0.5-1.2 0.4-0.8-0.2 0.1-0.2 0.5-0.4 0.9-0.4zm60.4 1.2c0 0.2-0.5 0.5-0.9 0.5-0.8 0.2-0.8 0.1 0-0.4 1-0.7 1.1-0.7 0.9-0.1zm-65.7 1.1c0.1 0.2-0.1 0.4-0.6 0.5-0.8 0.2-1-0.1-0.5-0.6 0.4-0.4 0.8-0.4 1.1 0.1zm4.6 0c0.6 0 0.5 0.1-0.1 0.6-0.9 0.6-1.3 0.5-0.9-0.2 0.2-0.2 0.6-0.4 1-0.4zm81.5 0.9c0.1 0.6 0.1 1.7 0 2.4-0.1 0.7-0.1 0.2-0.1-1.1 0-1.3 0-1.9 0.1-1.3zm-18.1-0.5c0.1 0 0.2 0.5 0.1 1 0 0.9-0.2 1-1.9 1-1.3 0-1.6-0.1-1.2-0.4 0.4-0.2 1.1-0.4 1.7-0.4 0.7 0 1.1-0.2 1.1-0.6 0-0.3 0.1-0.6 0.2-0.6zm-22.8 3.6c0.6 0 1 0.2 1 0.4 0 0.2-0.3 0.4-0.7 0.4-0.5 0-0.9-0.2-1.1-0.4-0.1-0.2 0.2-0.4 0.8-0.4zm-50.4 13.9c0.4 0.1 0.5 0.3 0.4 0.5-0.1 0.2-0.5 0.3-0.8 0.1-0.3-0.1-0.5-0.3-0.4-0.5 0.2-0.2 0.5-0.3 0.8-0.1zm-3.1 4.8c0.1 0.5 0.1 1.3 0 1.8-0.1 0.5-0.2 0.1-0.2-0.9 0-1 0.1-1.4 0.2-0.9zm46.8 0c0.1 0.3 0.4 0.4 0.6 0.3 0.4-0.3 0.5 0.3 0.1 0.7-0.5 0.5-1.3-0.2-1.1-0.8q0.3-0.6 0.4-0.2zm-24.9 2.1c0.6 0 1 0.2 1 0.4 0 0.2-0.4 0.4-1 0.4-0.5 0-1-0.2-1-0.4 0-0.2 0.5-0.4 1-0.4z" />
	</g>
	<g id="path3">
		<path id="Layer" fill-rule="evenodd" class="s3" d="m175.7 10.1l0.8 0.1-0.8 0.3c-1.2 0.5-2.2 0.5-1.4 0 0.3-0.2 1-0.4 1.4-0.4zm5 0.4c0.4 0.3 0.3 0.4-0.6 0.2-0.7-0.2-1.3-0.4-1.4-0.5-0.4-0.3 1.5 0 2 0.3zm1.4 0.7c0.9 0.5 2.3 1.9 2.8 2.9 0.1 0.3-0.1 0.2-0.5-0.4-0.5-0.5-1.4-1.4-2-1.9-0.6-0.6-0.8-0.8-0.3-0.6zm-10.4 0.5c0.2 0 0 0.4-0.6 0.8-0.5 0.4-1.1 0.7-1.2 0.6-0.1-0.1 0.2-0.5 0.6-0.8 0.5-0.3 1-0.6 1.2-0.6zm5 0c0.3 0 0 0.4-0.8 0.8-0.8 0.5-1.9 1.5-2.5 2.1-1.1 1.2-1.1 1.2-0.5 0.2 0.4-0.6 1.3-1.6 2-2.1 0.6-0.5 1.5-1 1.8-1zm3.6 0.4c0.4 0.3 0.3 0.4-0.6 0.2-0.7-0.2-1.3-0.4-1.4-0.5-0.4-0.3 1.5 0 2 0.3zm1.8 1.2c1.2 1.1 2.4 3.1 2 3.5-0.1 0.1-0.2 0-0.2-0.2 0-0.2-0.7-1.3-1.5-2.4-1.1-1.5-1.2-1.7-0.3-0.9zm-12.6 0.1c0 0.1-0.7 0.8-1.5 1.5l-1.5 1.4 1.4-1.5c1.3-1.4 1.6-1.7 1.6-1.4zm2.6 2.7c0.1 0-0.2 0.9-0.8 2-0.6 1.1-1.2 2.5-1.4 3.1-0.2 0.5-0.5 0.9-0.6 0.8-0.2-0.1 0.4-1.5 1.2-3.1 0.8-1.5 1.5-2.8 1.6-2.8zm-5.7 0.4c0.1 0-0.6 1.3-1.6 2.8-1 1.5-1.9 2.7-2 2.6-0.1-0.1 0.6-1.3 1.6-2.8 0.9-1.4 1.8-2.6 2-2.6zm19.9 0.8c0.2 0.3 0.4 1 0.4 1.4l-0.1 0.8-0.3-0.8c-0.2-0.4-0.4-1.1-0.4-1.4 0-0.5 0.1-0.5 0.4 0zm-1.5 1.1c0.3 0.9 0.3 4.7 0 6.7-0.3 1.1-0.3 0.2-0.3-2.9 0-2.4 0.1-4.2 0.3-3.8zm-16.6 6.2c0.1 0.1 0.1 0.6-0.1 1.1-0.2 0.5-0.4 0.8-0.5 0.7-0.1-0.2-0.1-0.6 0.1-1.1 0.1-0.5 0.4-0.8 0.5-0.7zm18.4 0.1c0.1 0.1 0.1 1-0.1 2-0.1 1-0.3 1.8-0.4 1.7-0.1-0.1-0.1-1 0.1-2 0.1-1.1 0.3-1.8 0.4-1.7zm-2.6 4.1c-0.1 0.8-0.3 1.2-0.4 1.1-0.1-0.1-0.1-0.7 0.1-1.4 0.4-1.6 0.7-1.3 0.3 0.3zm1.8 0.6c0.1 0.1 0 0.7-0.1 1.3-0.2 0.6-0.4 1-0.5 0.9-0.1-0.1 0-0.7 0.1-1.3 0.2-0.6 0.4-1 0.5-0.9zm-2.4 1.2c0.1 0.1 0 0.6-0.1 1.1-0.2 0.5-0.4 0.8-0.5 0.7-0.1-0.2 0-0.6 0.1-1.1 0.1-0.5 0.4-0.8 0.5-0.7zm1.6 1.6c0.1 0.1 0 0.6-0.1 1.1-0.1 0.5-0.4 0.8-0.5 0.7-0.1-0.2-0.1-0.6 0.1-1.1 0.1-0.5 0.4-0.8 0.5-0.7zm-2.4 0.8c0.1 0.2 0 0.6-0.1 1.1-0.2 0.5-0.4 0.8-0.5 0.7-0.1-0.1-0.1-0.6 0.1-1.1 0.2-0.5 0.4-0.8 0.5-0.7zm-17.6 1.6c0.1 0.1 0 0.7-0.1 1.3-0.2 0.6-0.4 1-0.5 0.9-0.1-0.1 0-0.7 0.1-1.3 0.2-0.6 0.4-1 0.5-0.9zm19.2 0c0.1 0.1 0.1 0.6-0.1 1.1-0.2 0.5-0.4 0.8-0.5 0.7-0.1-0.2-0.1-0.6 0.1-1.1 0.1-0.5 0.4-0.8 0.5-0.7zm-20 3.2c0.1 0.1 0.1 0.6-0.1 1.1-0.2 0.5-0.4 0.8-0.5 0.7-0.1-0.2-0.1-0.6 0.1-1.1 0.1-0.5 0.4-0.8 0.5-0.7zm16 1.3c0.2 0.2-1.8 4.2-2.1 4.2-0.1 0 0.3-1 0.9-2.2 0.6-1.2 1.1-2.1 1.2-2zm-16.8 1.5c0.1 0.2 0.1 0.8-0.1 1.5-0.2 0.7-0.4 1.2-0.5 1.1-0.1-0.2-0.1-0.8 0.1-1.5 0.2-0.7 0.4-1.2 0.5-1.1zm-8 0.8c0.1 0.2 0 0.6-0.1 1.1-0.2 0.5-0.4 0.8-0.5 0.7-0.1-0.1 0-0.6 0.1-1.1 0.1-0.5 0.4-0.8 0.5-0.7zm-0.8 2.8c0.1 0.1 0 0.6-0.1 1.1-0.2 0.5-0.4 0.8-0.5 0.7-0.1-0.2-0.1-0.6 0.1-1.1 0.2-0.5 0.4-0.8 0.5-0.7zm8 0.4c0.1 0.1 0 0.7-0.1 1.3-0.2 0.6-0.4 1-0.5 0.9-0.1-0.1 0-0.7 0.1-1.3 0.2-0.6 0.4-1 0.5-0.9zm14.3 0.7c0.1 0-0.1 0.5-0.4 1.2-0.3 0.7-0.7 1.2-0.8 1.2-0.1 0 0.1-0.5 0.4-1.2 0.3-0.7 0.7-1.2 0.8-1.2zm2.4 0c0.1 0-0.1 0.5-0.4 1.2-0.3 0.7-0.7 1.2-0.8 1.2-0.1 0 0.1-0.5 0.4-1.2 0.3-0.7 0.7-1.2 0.8-1.2zm-25.5 2.1c0.1 0.1 0 0.7-0.1 1.3-0.2 0.6-0.4 1-0.5 0.9-0.1-0.1 0-0.7 0.1-1.3 0.2-0.6 0.4-1 0.5-0.9zm8 0.8c0.1 0.1 0 0.7-0.1 1.3-0.2 0.6-0.4 1-0.5 0.9-0.1-0.1 0-0.7 0.1-1.3 0.2-0.6 0.4-1 0.5-0.9zm13.1 1.1c-0.4 0.7-0.8 1.2-0.9 1.1-0.1-0.1 0.1-0.7 0.5-1.3 0.9-1.4 1.2-1.3 0.4 0.2zm2.8-1.2c0.3 0-0.8 2.1-1.6 3-0.7 0.8-0.7 0.8-0.1-0.2 0.3-0.6 0.8-1.4 1.1-1.9 0.2-0.5 0.5-0.9 0.6-0.9zm-24.7 2.5c0.1 0.2 0.1 0.8-0.1 1.5-0.2 0.7-0.4 1.2-0.5 1.1-0.1-0.2-0.1-0.8 0.1-1.5 0.2-0.7 0.4-1.2 0.5-1.1zm8 1.2c0.1 0.2 0.1 1-0.1 1.9-0.2 0.9-0.4 1.6-0.5 1.5-0.1-0.2-0.1-1 0.1-1.9 0.2-0.9 0.4-1.6 0.5-1.5zm-8.8 2.4c0.1 0.1 0 0.9-0.1 1.7-0.2 0.8-0.4 1.3-0.5 1.2-0.1-0.1-0.1-0.8 0.1-1.6 0.1-0.8 0.3-1.4 0.5-1.3zm8 2.4c0.1 0.1 0 0.9-0.1 1.7-0.2 0.8-0.4 1.4-0.5 1.3-0.1-0.1 0-0.9 0.1-1.7 0.2-0.8 0.4-1.4 0.5-1.3zm12 0.3c0.3 0-2.3 3.5-2.8 3.9-0.4 0.2 0.4-1 2.2-3.4 0.2-0.3 0.5-0.5 0.6-0.5zm-20.8 1.3c0.1 0.1 0 0.9-0.1 1.7-0.2 0.8-0.4 1.4-0.5 1.3-0.1-0.1 0-0.9 0.1-1.7 0.2-0.8 0.4-1.4 0.5-1.3zm15 3c-3.2 4.4-7.3 9.5-7.8 9.6-0.2 0.1-0.3-0.7-0.1-2 0.1-1.5 0.1-1.8-0.2-0.9-1.6 5.8 0.1 4.6 7.6-5.4 1.4-1.9 2.7-3.6 2.9-3.9 0.2-0.3 0.3-0.5 0.2-0.5-0.2 0-1.3 1.4-2.6 3.1zm-7-0.2c0.1 0.2 0.1 1.2-0.1 2.3-0.2 1.1-0.4 2-0.5 1.9-0.1-0.2-0.1-1.2 0.1-2.3 0.2-1.1 0.4-2 0.5-1.9zm9.6 0.3c0.2 0-1.3 2.1-2.7 3.6-1.5 1.6-0.8 0.6 1.2-1.9 0.7-0.9 1.4-1.7 1.5-1.7zm-18.4 1.3c0 0.1 0 0.9-0.1 1.9-0.2 0.9-0.4 1.5-0.5 1.4-0.1-0.1-0.1-0.9 0.1-1.8 0.2-0.9 0.4-1.6 0.5-1.5zm87.6 2.2c0.2 0.2-1 0.3-2.8 0.3-1.7 0-2.8-0.1-2.4-0.3 0.9-0.3 4.6-0.4 5.2 0zm-123.5 0.5c0.5 0.1 0.5 0.1 0 0.3-0.3 0.1-1.1 0.5-1.7 0.8-0.6 0.3-1.1 0.4-1.1 0.3 0-0.1 0.5-0.4 1.1-0.8 0.6-0.3 1.4-0.6 1.7-0.6zm4.7 0c0.6 0 2.1 0.7 2.7 1.4 1.2 1.3 1.4 1.8 0.2 0.7-0.8-0.7-1.9-1.4-2.4-1.7-0.6-0.2-0.8-0.4-0.5-0.4zm120 0c0.6 0 3.3 3.1 3.3 3.7 0 0.3-0.3-0.1-0.8-0.7-0.4-0.7-1.2-1.7-1.8-2.1-0.6-0.5-0.9-0.9-0.7-0.9zm-1.1 1.2c0.3 0.2-0.2 0.2-1.3 0.1-2.4-0.3-4.4 1-6.3 3.9-0.7 1.1-1.4 2-1.5 2-0.1 0 0.1-0.5 0.5-1.1 1.5-2.4 2.7-3.8 3.9-4.5 1.4-0.8 3.7-1 4.7-0.4zm-74.9 2.2c-0.9 1.2-1.9 2.2-2.1 2.2-0.3 0 0.1-0.5 2.6-3.3 1.6-1.8 1.4-1.2-0.5 1.1zm-52-1.8c0.2 0-0.4 0.7-1.1 1.5-0.8 0.8-1.5 1.7-1.7 1.9-0.2 0.2-0.3 0.2-0.3 0.1 0-0.2 0.7-1 1.4-1.9 0.8-0.9 1.6-1.6 1.7-1.6zm4.2 0c0.9 0.1 0.9 0.1 0.1 0.4q-1.6 0.7-1.2 0c0.1-0.2 0.6-0.4 1.1-0.4zm3.2 0c0.3 0 1 0.3 1.4 0.7 0.4 0.4 0.5 0.6 0.3 0.4-0.2-0.1-0.9-0.4-1.4-0.7q-1-0.3-0.3-0.4zm120.2-0.2l1.1 1.1c0.6 0.6 1.1 1.2 0.9 1.3-0.1 0.1-0.6-0.4-1.1-1.1zm-89.2 0.7c0.1 0.2 0.1 1-0.1 1.9-0.1 0.9-0.3 1.6-0.5 1.4-0.1-0.1 0-0.9 0.1-1.8 0.2-0.9 0.4-1.6 0.5-1.5zm-36.2 0.3c0.2 0-0.5 0.7-1.4 1.6-1 0.9-2 2.2-2.3 2.8-0.3 0.7-0.6 1.1-0.7 1-0.3-0.3 0.8-2 2.5-3.7 0.9-0.9 1.7-1.7 1.9-1.7zm113.8 0c0.1 0-0.8 1.1-2 2.5-1.1 1.4-2.4 2.9-2.8 3.5l-0.7 1 0.5-1c0.2-0.6 1.4-2.1 2.6-3.5 1.2-1.4 2.3-2.5 2.4-2.5zm-106 1.2c0.2 0 1.4 2.9 1.2 3-0.1 0.1-0.4-0.5-0.8-1.4-0.3-0.9-0.5-1.6-0.4-1.6zm-24.6 0.4c0.2 0-0.4 0.7-1.2 1.5-0.8 0.9-1.6 1.5-1.6 1.4-0.1-0.1 0.4-0.7 1.1-1.5 0.8-0.8 1.5-1.4 1.7-1.4zm2.6 0c0.5 0 1.9 1.5 1.7 1.8-0.1 0.1-0.6-0.3-1.1-0.8-0.5-0.6-0.8-1-0.6-1zm143.7 0.8c0.2 0.3 0.4 1 0.4 1.6l-0.1 1-0.3-1c-0.2-0.6-0.3-1.3-0.3-1.6-0.1-0.5 0-0.5 0.3 0zm-118.4 1.4c0.4 0.8 0.6 3.3 0.3 3-0.1-0.1-0.3-1-0.4-2q-0.2-1.8 0.1-1zm36.3-0.2c0.3 0 0 0.3-1.2 1.4l-1.3 1.2 1.2-1.3c0.6-0.7 1.2-1.3 1.3-1.3zm20.7 0.1c1.1 0 1.6 0.1 1.1 0.2-0.5 0.1-1.4 0.1-2 0-0.6-0.1-0.2-0.2 0.9-0.2zm-2.4 0.3c0.2 0-0.3 0.4-1.1 0.8-1.6 0.9-4.3 3.4-6.8 6.4-0.9 1-1.2 1.2-0.7 0.6 1.4-2.3 4.6-5.5 6.4-6.7 1-0.6 2-1.1 2.2-1.1zm4.8 0c0.7 0 3 2 3.6 3.2 1 1.9 0.7 1.9-0.4 0.1-0.5-0.9-1.6-2-2.3-2.5-0.7-0.4-1.1-0.8-0.9-0.8zm-35.1 0.5c0.1 0.2 0.1 1.2-0.1 2.3-0.1 1.1-0.3 2-0.5 1.8-0.1-0.1 0-1.1 0.1-2.2 0.2-1.1 0.4-2 0.5-1.9zm33 0.3c0.4 0 2.3 1.6 2.3 2.1 0 0.3-0.3 0.1-0.6-0.4-0.5-0.7-1-0.9-2.3-0.9-1.4-0.1-1.5-0.1-0.7-0.4 0.6-0.2 1.1-0.3 1.3-0.4zm-88.2 0.5c0.1 0.1 0.1 0.6-0.1 1.1-0.1 0.5-0.3 0.8-0.4 0.7-0.2-0.2-0.1-0.6 0-1.1 0.2-0.5 0.4-0.8 0.5-0.7zm-20.8 0.7q0.2 0.5-0.6 0.2c-0.6-0.2-1.5 0-2.5 0.6-1.9 1-2.1 0.7-0.3-0.4 1.5-0.9 2.9-1 3.4-0.4zm50.2 1.5c0.2 1.2 0.2 3.3 0 4.8-0.3 2.5-0.4 2.3-0.3-2.1 0-4 0-4.4 0.3-2.7zm56.1-1.9c0.2 0 0 0.3-0.6 0.7-0.5 0.4-1.8 1.4-2.7 2.4-1 0.9-1.9 1.6-2 1.6 0-0.1 1-1.2 2.4-2.5 1.3-1.2 2.7-2.2 2.9-2.2zm-21.3 2.1c-0.4 0.8-0.7 1.2-0.8 1-0.1-0.2 0.1-0.8 0.3-1.3 0.8-1.5 1.2-1.2 0.5 0.3zm-57-0.4c0.1 0.2 0.1 1.2-0.1 2.3-0.1 1.1-0.3 2-0.5 1.8-0.1-0.1 0-1.1 0.1-2.2 0.2-1.1 0.4-2 0.5-1.9zm5.5 4.7c0 2.6-0.1 4.5-0.2 4.1-0.4-0.9-0.4-6.8-0.1-8 0.3-1.3 0.3-1.3 0.3 3.9zm114.7-3.4c-0.3 0.8-0.7 1.3-0.8 1.2-0.1-0.1 0.2-0.7 0.5-1.4 0.9-1.7 1.2-1.5 0.3 0.2zm-128.2-0.9c0.1 0.1 0.1 0.6-0.1 1.1-0.1 0.5-0.3 0.8-0.4 0.7-0.2-0.2-0.1-0.6 0-1.1 0.2-0.5 0.4-0.8 0.5-0.7zm150.4 0.6c0.2 1.3-0.6 3.7-1.3 3.7-0.7 0-0.9-0.4-0.6-1.6l0.3-1 0.1 1.1c0 1.7 0.7 0.9 1.1-1.2 0.2-1.2 0.3-1.6 0.4-1zm-175.8 1.3c-0.4 0.8-0.7 1.4-0.8 1.2-0.1-0.2 0.2-0.9 0.5-1.6 0.9-1.7 1.1-1.5 0.3 0.4zm40.6 2.7c0 2.8-0.1 3.2-0.3 2.1-0.2-0.8-0.3-2.3-0.1-3.5 0.3-3.1 0.5-2.6 0.4 1.4zm-33.6-2.9c0.1 0.1 0.1 0.8-0.1 1.6-0.1 0.8-0.3 1.4-0.4 1.3-0.1-0.1-0.1-0.9 0-1.7 0.2-0.8 0.4-1.4 0.5-1.2zm114.1 0.4c0.4 0.8 0.6 2.9 0.3 2.6-0.1-0.1-0.3-0.9-0.4-1.8-0.2-1.1-0.1-1.4 0.1-0.8zm-40.5 0.7c0.1 0.1 0.1 1.2-0.1 2.5-0.1 1.2-0.4 2.1-0.5 2-0.1-0.1 0-1.2 0.1-2.4 0.2-1.3 0.4-2.2 0.5-2.1zm8.8 0c0.1 0.1 0.1 1.1-0.1 2.1-0.1 1-0.4 1.7-0.5 1.6-0.1-0.1 0-1 0.1-2 0.2-1 0.4-1.8 0.5-1.7zm15.9 1.7c-0.6 0.8-1.2 1.4-1.3 1.4q-0.3 0 1.5-2.1c1-1.3 0.9-0.7-0.2 0.7zm-106.3-0.5c0.1 0.1 0.1 0.9-0.1 1.7-0.1 0.8-0.4 1.3-0.5 1.2-0.1-0.1 0-0.8 0.1-1.6 0.2-0.8 0.4-1.4 0.5-1.3zm117.6 0.9c0.1 0.1 0.1 0.9-0.1 1.8-0.1 0.9-0.3 1.6-0.4 1.5-0.1-0.1-0.1-0.9 0.1-1.9 0.1-0.9 0.3-1.5 0.4-1.4zm-92.8 0.3c0.1 0.1 0 0.7-0.1 1.3-0.2 0.6-0.3 1-0.4 0.9-0.1-0.1-0.1-0.7 0.1-1.3 0.1-0.6 0.3-1 0.4-0.9zm8.8 0.4c0.1 0.2 0.1 1.2-0.1 2.3-0.1 1.1-0.3 2-0.5 1.8-0.1-0.1 0-1.1 0.1-2.2 0.2-1.1 0.4-2 0.5-1.9zm24.8 0.1c0.1 0.1 0.1 1-0.1 2-0.1 1-0.3 1.8-0.4 1.7-0.1-0.1-0.1-1.1 0-2.1 0.2-1 0.4-1.8 0.5-1.6zm-51.2 0.3c0.1 0.2 0.1 1-0.1 1.9-0.1 0.9-0.3 1.6-0.5 1.4-0.1-0.1 0-0.9 0.1-1.8 0.2-0.9 0.4-1.6 0.5-1.5zm152 0c0.1 0.1 0.1 0.6-0.1 1.1-0.1 0.5-0.3 0.8-0.4 0.7-0.2-0.2-0.1-0.6 0-1.1 0.2-0.5 0.4-0.8 0.5-0.7zm18.1-0.1c0.6 0 3.6 3.2 3.6 3.7 0 0.4-0.7-0.2-1.5-1.5-0.2-0.2-0.8-0.8-1.4-1.3-0.7-0.5-1-0.9-0.7-0.9zm30.8 1.7c0 1-6.3 7.3-8.7 8.6-2.4 1.3-2.1 0.9 0.6-0.9 4.9-3.2 10.1-9.6 6.4-7.8-0.8 0.4-0.8 0.4-0.1-0.2 1.1-0.9 1.8-0.8 1.8 0.3zm-35.4-0.1c0 0 0 0.9 0 2 0 2.3 1.6 4.8 3.9 6.4 0.9 0.5 1.4 1 1.3 1.1-0.4 0.4-3.2-2.2-4.5-4.1-1.2-1.8-1.7-4.4-1-5.1 0.1-0.2 0.3-0.3 0.3-0.3zm1.9 1.7c-0.2 1.5-0.2 1.6-0.5 0.8-0.2-0.6-0.2-1.3 0-1.7 0.6-1.1 0.7-1 0.5 0.9zm2.6-1.3c0.4 0.2 1.1 0.8 1.5 1.4 0.9 1.4 0.8 1.7-0.3 0.3-0.5-0.6-1.1-1.3-1.5-1.6-0.5-0.5-0.4-0.5 0.3-0.1zm-76 1.1c-0.9 1.6-2.1 3.1-1.4 1.7 0.2-0.6 0.7-1.4 1-1.9 0.8-1.3 1.1-1.1 0.4 0.2zm-102-0.6c0.1 0.1 0 1.2-0.1 2.4-0.2 1.3-0.4 2.2-0.5 2.1-0.1-0.1 0-1.2 0.1-2.4 0.2-1.3 0.4-2.2 0.5-2.1zm56.8 0.5c0.1 0.5 0 1.3-0.3 1.8l-0.4 1 0.2-1c0.1-0.6 0.2-1.4 0.3-1.8 0-0.8 0-0.8 0.2 0zm33.6-0.5c0.1 0.1 0.1 1.2-0.1 2.5-0.1 1.2-0.4 2.1-0.5 2-0.1-0.1 0-1.2 0.1-2.4 0.2-1.3 0.4-2.2 0.5-2.1zm115.9 0c0.9-0.2-4 4.5-5.9 5.6-1.1 0.7-1.2 0.7-0.3 0 0.6-0.4 2.1-1.8 3.4-3.1 1.3-1.4 2.6-2.5 2.8-2.5zm-102.7 1.4c-0.9 1.6-2.1 3.1-1.4 1.7 0.2-0.6 0.7-1.4 1-1.9 0.8-1.3 1.1-1.1 0.4 0.2zm55.6-0.9c0.1 0.1 0.1 0.6 0 1.2-0.2 0.6-0.4 1-0.5 0.9-0.1-0.1-0.1-0.7 0.1-1.3 0.1-0.6 0.3-1 0.4-0.8zm-116.3 0.6c0.2 0.3 0.4 0.9 0.4 1.2 0 0.5 0 0.5-0.4 0-0.2-0.3-0.4-0.9-0.4-1.2 0-0.5 0.1-0.5 0.4 0zm74.7 0.1c0.1 0.1 0.1 0.8-0.1 1.5-0.1 0.7-0.3 1.2-0.5 1.1-0.1-0.2 0-0.8 0.1-1.5 0.2-0.7 0.4-1.2 0.5-1.1zm-36.7 0.3c0.4 0-3.8 4.1-5.8 5.7-1.1 0.9-0.3 0 1.8-2 2.1-2 3.9-3.7 4-3.7zm70.3 0.4c0.3 0-2.4 3.6-2.8 3.9-0.4 0.2 1-2 2.1-3.2 0.3-0.4 0.6-0.7 0.7-0.7zm-144 0.5c0.1 0.1 0.1 1.1-0.1 2.1-0.1 1-0.4 1.8-0.5 1.7-0.1-0.1 0-1.1 0.1-2.1 0.2-1 0.4-1.8 0.5-1.7zm16.8 0c0.1 0.1 0.1 0.6-0.1 1.1-0.1 0.5-0.3 0.8-0.4 0.7-0.2-0.2-0.1-0.6 0-1.1 0.2-0.5 0.4-0.8 0.5-0.7zm34.4 0.1c0.1 0.1 0.1 0.6 0 1.2-0.2 0.6-0.4 1-0.5 0.9-0.1-0.1-0.1-0.7 0.1-1.3 0.1-0.6 0.3-1 0.4-0.8zm64.8 0.1c0.2 0.7-0.3 4.2-0.5 4-0.1-0.1-0.1-1.2 0.1-2.4 0.1-1.1 0.3-1.9 0.4-1.6zm52.5 0.8c1.1 2 5.2 5 5.2 3.7 0-0.2-0.3-0.3-0.6-0.1q-0.6 0.2-2.8-2.1c-1.2-1.2-2-1.9-1.8-1.5zm4.8-0.3c0.2 0.3 0.4 0.9 0.4 1.4 0 1-0.2 0.7-0.5-0.8-0.2-0.9-0.2-1 0.1-0.6zm-136.9 0.2c0.5 0.5 1.4 2.6 1.1 2.6-0.2 0-1.4-2.2-1.4-2.7 0-0.1 0.2-0.1 0.3 0.1zm-10 0.3c0.1 0.1 0.1 1.2-0.1 2.5-0.1 1.2-0.4 2.1-0.5 2-0.1-0.1 0-1.2 0.1-2.4 0.2-1.3 0.4-2.2 0.5-2.1zm66.3-0.1c0.2 0 0 0.5-0.4 1.2-0.3 0.7-0.7 1.2-0.8 1.2-0.1 0 0.1-0.5 0.4-1.2 0.4-0.7 0.7-1.2 0.8-1.2zm-43.9 0.5c0.1 0.1 0 0.7-0.1 1.3-0.2 0.6-0.3 1-0.4 0.9-0.1-0.1-0.1-0.7 0.1-1.3 0.1-0.6 0.3-1 0.4-0.9zm21.7 2.7c-2.7 2.7-1.9 2.3 1.3-0.8l1.9-1.8v1.6c0 1.8 0.2 1.7 0.5-0.3 0.4-2.2-0.6-1.9-3.7 1.3zm80.7-2.7c0.1 0.1 0.1 0.9-0.1 1.7-0.1 0.8-0.4 1.4-0.4 1.3-0.1-0.1-0.1-0.9 0-1.7 0.2-0.8 0.4-1.4 0.5-1.3zm-56.9 0.3c0.2 0 0 0.5-0.4 1.2-0.3 0.7-0.7 1.2-0.8 1.2-0.1 0 0.1-0.5 0.4-1.2 0.4-0.7 0.7-1.2 0.8-1.2zm15.3 0.5c0.1 0.1 0.1 0.8-0.1 1.5-0.1 0.7-0.3 1.2-0.5 1.1-0.1-0.2 0-0.8 0.1-1.5 0.2-0.7 0.4-1.2 0.5-1.1zm66.2 2.4c0.1 0.8 0 1.4-0.2 1.2-0.1-0.1-0.3-1-0.2-2 0-2 0.2-1.7 0.4 0.8zm-159.8-2c0.1 0.1 0.1 0.6-0.1 1.1-0.1 0.5-0.3 0.8-0.4 0.7-0.2-0.2-0.1-0.6 0-1.1 0.2-0.5 0.4-0.8 0.5-0.7zm20.6 2c1 1.6 4.4 5 7.1 7.1 1.3 1 1.4 1.2 0.9 2l-0.5 1 0.3-1.1c0.2-0.9 0-1.2-1.3-2.1-2.3-1.5-5.9-5.2-6.9-7-1.2-2.1-0.8-2.1 0.4 0.1zm13.8-1.6c0.1 0.1 0 0.7-0.1 1.3-0.2 0.6-0.3 1-0.4 0.9-0.1-0.1-0.1-0.7 0.1-1.3 0.1-0.6 0.3-1 0.4-0.9zm92.9 0.6c0 0.2-0.3 0.5-0.8 0.8-0.7 0.5-0.8 0.5-0.3-0.3 0.5-0.8 1.1-1.1 1.1-0.5zm-2.5 0.1c0.3 0-1.5 2.4-2 2.7-0.5 0.2 0-0.5 1.3-2 0.3-0.4 0.6-0.7 0.7-0.7zm50.9 0.2c0 0.2-2.2 1.4-2.7 1.4-0.1 0 0.4-0.4 1.1-0.8 1.6-0.9 1.6-0.9 1.6-0.6zm-173.6 0.2c0.5 0 0.5 1.6 0 3.8l-0.3 1.6v-1.5c-0.1-0.9-0.2-1.5-0.5-1.3-0.2 0.1-0.4 0.1-0.4-0.2 0-0.2 0.2-0.5 0.4-0.6 0.2-0.1 0.4-0.6 0.4-1 0-0.5 0.2-0.8 0.4-0.8zm64.3 0.2c0.1 0.1 0.1 1.2-0.1 2.4-0.1 1.2-0.3 2.2-0.4 2.1-0.2-0.1-0.1-1.3 0-2.5 0.2-1.2 0.4-2.2 0.5-2zm-34.4 0.3c0.1 0.1 0.1 0.6-0.1 1.1-0.1 0.5-0.3 0.8-0.4 0.7-0.2-0.2-0.1-0.6 0-1.1 0.2-0.5 0.4-0.8 0.5-0.7zm-48.8 0.4c0.1 0.2 0.1 1.2-0.1 2.3-0.1 1.1-0.3 2-0.5 1.8-0.1-0.1 0-1.1 0.1-2.2 0.2-1.1 0.4-2 0.5-1.9zm40.9 1.6c3.8 4 6.4 5.1 6.4 2.5 0-0.2-0.3 0-0.6 0.5l-0.6 0.9-1.3-0.9c-0.7-0.4-2.3-1.7-3.5-2.9l-2.2-2zm-48.1 1.4c0.1 1.6 0.1 4.2 0 5.8-0.1 1.6-0.1 0.2-0.1-2.9 0-3.2 0-4.5 0.1-2.9zm149.6-2.7c0.3 0-2.3 3.5-2.8 3.8-0.4 0.3 0.4-1 2.2-3.3 0.3-0.3 0.5-0.5 0.6-0.5zm-26.4 0.5c0.1 0.1 0.1 0.9-0.1 1.7-0.1 0.8-0.3 1.4-0.4 1.2-0.1-0.1-0.1-0.8 0-1.6 0.2-0.8 0.4-1.4 0.5-1.3zm27.9 6.1c0 3.6-0.1 5.6-0.3 4.7-0.3-2-0.3-6.7 0-9.1 0.3-2.5 0.3-2.6 0.3 4.4zm7.3-6.1c0.1 0.1 0.1 1.1-0.1 2.3-0.1 1.1-0.3 1.9-0.5 1.8-0.1-0.1 0-1.1 0.1-2.2 0.2-1.2 0.4-2 0.5-1.9zm-41.7 1.8c-0.2 0.7-0.4 1.2-0.5 1.1-0.1-0.1 0-0.7 0.1-1.4 0.4-1.7 0.7-1.4 0.4 0.3zm63.7-1.5c0.7 0 1.3 1.3 0.9 2.2-0.3 0.7-0.3 0.7-0.3-0.3-0.1-0.5-0.3-1.2-0.6-1.5-0.3-0.3-0.3-0.4 0-0.4zm6.3 0.2c1.1 0.2 2.1 0.3 2.2 0.4 0.4 0.4-3 0.1-3.6-0.2-0.4-0.3 0.1-0.4 1.4-0.2zm6.6 0.2c-0.3 0.2-1.3 0.3-2.2 0.3l-1.6-0.1 1.6-0.2c2.6-0.5 2.9-0.5 2.2 0zm-118 0.9c-0.9 0.7-4.1 2.7-5.5 3.4-2.4 1.2-2.6 1-0.3-0.3 1.1-0.6 2.9-1.6 3.8-2.3 1.4-1 3-1.6 2-0.8zm6.3-0.4c0.1 0.1 0.1 1.5-0.1 3.1-0.1 1.5-0.4 2.7-0.5 2.6-0.1-0.1 0-1.5 0.1-3 0.2-1.6 0.4-2.8 0.5-2.7zm64.8-0.1c0.3 0-1.5 2.3-2 2.6-0.2 0.2 0.1-0.4 0.7-1.2 0.6-0.8 1.2-1.4 1.3-1.4zm-112.8 0.9c0.1 0.1 0.1 1.7-0.1 3.5-0.2 1.9-0.4 3.1-0.5 2.8-0.1-0.3 0-1.9 0.1-3.5 0.2-1.7 0.4-2.9 0.5-2.8zm150.3-0.1c0.5 0 1.2 0.2 1.6 0.4 1 0.4 0 0.4-1.4 0-0.8-0.3-0.8-0.4-0.2-0.4zm10.2 0.4c-0.3 0.2-1 0.3-1.6 0.3-0.9 0-0.9-0.1 0.2-0.3 1.8-0.5 2.1-0.5 1.4 0zm-137.3 0.1c0.1 0.1 0.1 0.6-0.1 1.1-0.1 0.4-0.3 0.7-0.4 0.6-0.2-0.1-0.1-0.6 0-1 0.2-0.5 0.4-0.8 0.5-0.7zm126.4 0.4c0.1 0.1 0 0.6-0.1 1.2-0.2 0.6-0.3 1-0.4 0.9-0.1-0.1-0.1-0.6 0.1-1.2 0.1-0.6 0.3-1 0.4-0.9zm-67.2 1.2c0.1 0.1 0.1 0.8-0.1 1.6-0.1 0.8-0.4 1.4-0.4 1.3-0.1-0.1-0.1-0.8 0-1.6 0.2-0.8 0.4-1.4 0.5-1.3zm30.4-0.1c0.3 0-1.5 2.3-2 2.6-0.5 0.3 0-0.4 1.3-1.9 0.3-0.4 0.6-0.7 0.7-0.7zm-24 0.5c0.1 0.1 0.1 0.8-0.1 1.6-0.1 0.8-0.4 1.4-0.4 1.3-0.1-0.1-0.1-0.8 0-1.6 0.2-0.8 0.4-1.4 0.5-1.3zm21.6-0.1c0.3 0-1.5 2.3-2 2.6-0.5 0.3 0-0.4 1.3-1.9 0.3-0.4 0.6-0.7 0.7-0.7zm36.8 0.1c0.1 0.1 0.1 0.6-0.1 1.1-0.1 0.4-0.3 0.7-0.4 0.6-0.2-0.1-0.1-0.6 0-1 0.2-0.5 0.4-0.8 0.5-0.7zm-116.3 0.7c0.6 0 0.6 0 0 0.4-0.3 0.2-0.8 0.3-1.2 0.3-0.5 0-0.5 0 0-0.3 0.4-0.3 0.9-0.4 1.2-0.4zm25.1 0.1c0.1 0.1 0.1 1.3-0.1 2.7-0.1 1.3-0.3 2.3-0.5 2.2-0.1-0.1 0-1.3 0.1-2.6 0.2-1.4 0.4-2.4 0.5-2.3zm-83.3 7.4c0 4-0.1 6.9-0.2 6.5-0.4-0.8-0.4-8.8-0.1-11.5 0.4-3.1 0.4-2.8 0.3 5zm19.4-0.2c-0.1 5.2-0.2 6-0.4 4.1-0.2-1.4-0.2-4.3-0.1-6.5 0.3-5.9 0.5-5.1 0.5 2.4zm33.6-6.4c3 0 3 0 1.1 0.4-1.2 0.2-2.2 0.2-3-0.1-0.9-0.3-0.5-0.3 1.9-0.3zm5.6 0.7c0.6 0 0.6 0 0 0.4-0.3 0.2-0.8 0.3-1.2 0.3-0.5 0-0.5 0 0-0.3 0.4-0.3 0.9-0.4 1.2-0.4zm115.1 0.1c0.1 0.1 0.1 0.6-0.1 1.1-0.1 0.4-0.3 0.7-0.4 0.6-0.2-0.1-0.1-0.6 0-1 0.2-0.5 0.4-0.8 0.5-0.7zm-38.2 3.4c-4.7 5.9-11.2 12.9-14.1 14.8-1 0.7-0.9 0.6 0.4-0.6 3.2-2.7 8-7.8 11.9-12.6 4.3-5.4 5.4-6.3 1.8-1.6zm15.8-1.2c0.1 1.1 0.1 3 0 4.2-0.1 1.1-0.1 0.2-0.1-2.1 0-2.4 0-3.3 0.1-2.1zm-103-1.4h4.1c3.3 0 3.7 0.1 2.4 0.4-0.9 0.2-2.6 0.2-3.9 0.1l-2.2-0.3-1.4 2.7c-0.8 1.5-1.4 2.6-1.5 2.5 0-0.2 0.6-1.5 1.3-2.9zm86.8-0.1c0.2 0-0.8 1.4-2.2 3.2-1.4 1.7-2.7 3.2-2.8 3.2-0.2 0 0.8-1.4 2.2-3.2 1.3-1.7 2.6-3.1 2.8-3.2zm-45.4 1c0.1 0.1-0.2 0.8-0.7 1.7-1 1.8-1.1 1.5-0.2-0.5 0.4-0.7 0.8-1.3 0.9-1.2zm19.1-0.1c0.1 0.1 0.1 1.1 0 2.1-0.2 1-0.4 1.8-0.5 1.6-0.1-0.1-0.1-1 0.1-2 0.1-1 0.3-1.8 0.4-1.7zm66.4 0c0.2 0.2 0.1 0.6 0 1.1-0.2 0.5-0.4 0.8-0.5 0.7-0.1-0.1-0.1-0.6 0.1-1.1 0.1-0.5 0.3-0.8 0.4-0.7zm-161.6 0.4c0.2 0.2 0.1 0.6 0 1.1-0.2 0.5-0.4 0.8-0.5 0.7-0.1-0.1-0.1-0.6 0.1-1.1 0.1-0.5 0.3-0.8 0.4-0.7zm101.6 0c0.2 0.2 0.1 0.8 0 1.5-0.2 0.7-0.4 1.2-0.5 1.1-0.1-0.1-0.1-0.8 0.1-1.5 0.1-0.7 0.3-1.2 0.4-1.1zm57.7 0.5c0.1 0.1-0.2 0.8-0.7 1.7-1 1.8-1.1 1.5-0.2-0.5 0.4-0.8 0.8-1.3 0.9-1.2zm-98.4 0.4c0.1 0.1 0 2.3-0.1 4.8-0.2 2.6-0.4 4.6-0.5 4.4-0.1-0.1-0.1-2.2 0.1-4.8 0.1-2.6 0.3-4.6 0.5-4.4zm-48 8.1c0 4.7-0.1 5.7-0.3 3.9-0.2-1.3-0.2-4.1-0.1-6.3 0.3-5.8 0.5-4.7 0.4 2.4zm56-5.3c0.1 0.1 0 1.4-0.1 2.8-0.2 1.5-0.4 2.6-0.5 2.5-0.1-0.2-0.1-1.4 0.1-2.9 0.1-1.5 0.3-2.6 0.5-2.4zm-88.7 0l0.4 1c0.1 0.6 0.3 1.5 0.3 2v1l-0.3-1c-0.2-0.5-0.4-1.4-0.4-2zm120.6 0.4c0.2 0.1 0.1 0.9 0 1.8-0.2 0.9-0.4 1.6-0.5 1.5-0.1-0.1-0.1-1 0.1-1.9 0.1-0.9 0.3-1.6 0.4-1.4zm56.8-0.2c0.1 0-0.1 0.5-0.4 1.2-0.4 0.7-0.7 1.2-0.9 1.2-0.1 0 0.1-0.5 0.5-1.2 0.3-0.7 0.7-1.2 0.8-1.2zm-25.8 1.4c0.2 0.4 0.3 1.1 0.3 1.4q0 0.6-0.3-0.2c-0.2-0.4-0.4-1.1-0.4-1.4q0-0.6 0.4 0.2zm-37.4 4.2c0 3.5-0.1 4.1-0.4 3-0.2-0.8-0.2-2.8 0-4.4 0.3-4.2 0.5-3.7 0.4 1.4zm64.8-4.3c0.7 0.7-5.3 8-8.1 10-2.6 1.7-2.5 1.3 0.1-0.6 2.2-1.6 6.2-6.3 7.4-8.6 0.2-0.5 0.5-0.9 0.6-0.8zm-43.1 0.3c0.8 0-7.7 8.5-10.1 10.1-0.7 0.4-0.4 0.1 0.6-0.7 1-0.9 3.5-3.3 5.6-5.5 2.1-2.1 3.8-3.9 3.9-3.9zm-119.3 2c0.1 0-0.1 0.5-0.4 1.2-0.4 0.7-0.7 1.2-0.9 1.2-0.1 0 0.1-0.5 0.5-1.2 0.3-0.7 0.7-1.2 0.8-1.2zm1.6 0.4c0.4 0 0.1 0.6-0.7 1.6l-0.8 1 0.7-1.3c0.3-0.7 0.7-1.3 0.8-1.3zm139.4 0.2l0.4 1c0.1 0.6 0.3 1.4 0.3 1.8v0.8l-0.3-0.8c-0.2-0.4-0.4-1.2-0.4-1.8zm-37.8 4.5c0 2.9-0.1 3.5-0.4 2.6-0.2-0.7-0.2-2.4-0.1-3.9 0.4-3.6 0.6-3.3 0.5 1.3zm-72-3.5c0.1 0-0.1 0.5-0.4 1.2-0.4 0.7-0.8 1.2-0.9 1.2-0.1 0 0.1-0.5 0.5-1.2 0.3-0.7 0.7-1.2 0.8-1.2zm126.3 0c0.2 0-0.3 0.7-1 1.7-1.3 1.6-5.3 4.7-6.1 4.7-0.2 0 0.7-0.7 2-1.6 1.3-0.8 2.9-2.3 3.6-3.2 0.6-0.8 1.3-1.6 1.5-1.6zm-124.7 0.4c0.1 0-0.1 0.5-0.4 1.2-0.4 0.7-0.8 1.2-0.9 1.2-0.1 0 0.1-0.5 0.5-1.2 0.3-0.7 0.7-1.2 0.8-1.2zm-34.3 0.8c0.4 0-1.9 2.6-2.8 3.2-0.5 0.3-0.1-0.2 0.9-1.3 0.9-1 1.8-1.9 1.9-1.9zm72.7 0.9c0.1 0.4 0.4 0.6 0.6 0.5 0.3-0.2 0.4-0.1 0.3 0.2-0.4 1.1-1.1 0.9-1.1-0.3 0-0.6 0.1-0.8 0.2-0.4zm-61.8 1.1c0.4 1.4 0.4 2.4 0 1.4-0.2-0.4-0.4-1.2-0.4-1.6 0-0.6 0.1-0.6 0.4 0.2zm128.6 0.3l0.7 1.1-0.9-0.8c-0.5-0.4-0.8-0.9-0.8-1.1 0-0.5 0.2-0.3 1 0.8zm-140.2 1.1c-1 1-2 1.8-2.2 1.8-0.2 0 0.6-0.8 1.6-1.8 2.5-2.3 2.8-2.3 0.6 0zm31.8-1.8c0.3 0-1.2 2.4-1.8 2.9-0.3 0.3-0.1-0.3 0.5-1.2 0.7-0.9 1.2-1.7 1.3-1.7zm-43.5 0.6c0.1 0.2 0.8 1 1.5 1.8l1.2 1.4-1.5-1.4c-0.9-0.7-1.5-1.5-1.5-1.8q0-0.3 0.3 0zm45.1-0.2c0.4 0-1.6 3.2-2.4 3.9-0.4 0.4-0.1-0.3 0.8-1.6 0.8-1.3 1.5-2.3 1.6-2.3zm-38.2 1.8c0.8 0 1.4 0.1 1.3 0.3-0.2 0.4-2.4 0.4-2.7 0-0.1-0.2 0.5-0.3 1.4-0.3zm70.2-0.2c0.1 0 0.1 1.6 0.1 3.6-0.1 3 0 3.7 0.7 4.5l0.7 0.9-0.9-0.9c-1-0.9-1.1-1.5-0.9-5.8 0-1.3 0.2-2.3 0.3-2.3zm77.1 1.3l1.3 1.2-1.3-0.9c-0.7-0.4-1.4-1-1.6-1.2-0.4-0.8 0.3-0.4 1.6 0.9zm2.7-0.6c0.9 1.5 4.7 2.3 6.3 1.3 0.4-0.2-0.3-0.3-1.8-0.1-2.2 0.2-2.5 0.1-3.7-0.9-1.1-0.9-1.2-1-0.8-0.3zm-44.1 1.8c0.5 0.8 0.8 1.5 0.7 1.5-0.3 0-1.8-2.5-1.8-3 0-0.4 0-0.4 1.1 1.5zm-72.4 0.2c-1.4 1.6-1.7 1.9-2.5 2.5-0.5 0.3 0.1-0.4 1.1-1.5 2.1-2.2 3.1-2.9 1.4-1zm-10.3-0.1l0.4 0.8c0.5 1.2 0.5 2.2 0 1.4-0.3-0.3-0.4-1-0.4-1.4zm88.6 0.5c1.1 0.2 1.3 0.3 0.8 0.6-0.5 0.3-2.3-0.2-2.3-0.6 0-0.1 0.7-0.1 1.5 0zm-76.7 0.1c0.5 0-3.5 3.8-4.6 4.2l-1.2 0.6 1-0.7c0.6-0.4 1.8-1.4 2.8-2.4 1-0.9 1.9-1.7 2-1.7zm118.6 0.2c1.7 0 2.7 0.1 2.4 0.3-0.4 0.1-1.5 0.3-2.4 0.3-0.8 0-1.9-0.2-2.3-0.3-0.4-0.2 0.7-0.3 2.3-0.3zm-76.2 2.2c-0.2 0.7-1 1.7-1.7 2.3-0.7 0.5-0.9 0.8-0.5 0.6 1.3-0.7 3.4-3.5 2.9-3.9-0.1-0.1-0.4 0.3-0.7 1zm-57.8 0.5c0.7 0.8 2.2 1.7 3.1 2 1 0.4 1.4 0.7 1 0.7-1.2 0-4-1.8-4.9-3.1-0.6-0.9-0.4-0.8 0.8 0.4zm91.3-1.1c1.4 0 2.2 0.1 1.8 0.3-0.9 0.3-3.4 0.4-3.9 0-0.3-0.2 0.7-0.3 2.1-0.3zm-82.3 3.4c-0.3 0.2-0.9 0.4-1.4 0.4h-0.8l0.8-0.4c1.2-0.5 2.2-0.5 1.4 0zm66.1 0.4c0.7 0 0.8 1.3 0.1 1.9-0.6 0.7-0.6 0.7-0.1-0.2 0.8-1.3 0.1-1.6-1.2-0.5l-1.1 1 1-1.1c0.5-0.6 1.1-1.1 1.3-1.1zm-42.9 2.2c2.3 0 3.3 0 2.1 0.1-1.1 0.1-3 0.1-4.2 0-1.1-0.1-0.2-0.1 2.1-0.1zm-7 0.3h1.2l-1.2 0.3c-0.6 0.2-1.6 0.3-2.2 0.3h-1l1-0.3c0.6-0.2 1.6-0.3 2.2-0.3zm13.2 0h1.2c0.7 0 1.7 0.1 2.2 0.3l1 0.3h-1c-0.5 0-1.5-0.1-2.2-0.3zm34.4-0.1c0.1 0-0.1 0.5-0.6 1.2-0.5 0.6-1.1 1.2-1.3 1.2-0.2 0 0.1-0.5 0.6-1.2 0.5-0.6 1.1-1.2 1.3-1.2zm1.7 0.4c0.3 0 0 0.3-1.2 1.4l-1.3 1.2 1.2-1.3c0.7-0.7 1.2-1.3 1.3-1.3zm-53.9 0.8c-0.3 0.2-0.9 0.4-1.4 0.4h-0.8l0.8-0.4c1.2-0.5 2.2-0.5 1.4 0zm16.4 0.2c0 0.1-2.1 0.1-4.8 0.1q-5-0.1-3.2-0.3c1.6-0.2 7.6-0.1 8 0.2zm7-0.5c0.5 0 1.2 0.1 1.6 0.3 1.1 0.4 0 0.4-1.4 0-0.8-0.2-0.8-0.3-0.2-0.3zm75.8 0.5c3.9 0 5.5 0 3.5 0.1-1.9 0.1-5 0.1-7 0-1.9-0.1-0.3-0.1 3.5-0.1zm-95.4 0.3h1.2l-1.2 0.3c-0.6 0.2-1.5 0.3-2 0.3l-0.8 0.1 0.8-0.4c0.5-0.2 1.4-0.3 2-0.3zm14.8 0h1.2c0.7 0 1.7 0.1 2.2 0.3l1 0.3h-1c-0.5 0-1.5-0.1-2.2-0.3zm70.8 0h1.2l-1.2 0.3c-0.6 0.2-1.7 0.3-2.4 0.3h-1.2l1.2-0.3c0.7-0.2 1.8-0.3 2.4-0.3zm18 0h1c0.6 0 1.5 0.1 2 0.3l1 0.3h-1c-0.5 0-1.4-0.1-2-0.3zm-107.8 0.8q0.6 0-0.2 0.3c-0.4 0.2-1 0.4-1.4 0.4q-0.5 0 0.2-0.4c0.5-0.2 1.1-0.3 1.4-0.3zm23.8 0h0.8c0.5 0 1.1 0.1 1.4 0.3 0.8 0.6-0.2 0.6-1.4 0zm60.4 0h0.8l-0.8 0.4c-0.4 0.2-1.1 0.3-1.6 0.3h-0.8l0.8-0.3c0.5-0.2 1.2-0.4 1.6-0.4zm21.4 0.3c1 0.2-1.7 0.3-6 0.3-4.3 0-7-0.1-6-0.3 2.6-0.3 9.9-0.3 12 0zm-55.3 0.1c0.3 0 0 0.3-1.6 1.8l-1.7 1.6 1.6-1.7c0.9-1 1.7-1.7 1.7-1.7zm-53.1 0.4c0.6 0 0.6 0 0 0.4-0.3 0.2-0.8 0.4-1.2 0.4-0.5 0-0.5-0.1 0-0.4 0.4-0.2 0.9-0.4 1.2-0.4zm54.5 0c0.5 0 0.4 0.2-0.9 1.4l-1.3 1.2 1-1.3c0.5-0.7 1.1-1.3 1.2-1.3zm28.7 0.4c-0.3 0.2-0.9 0.4-1.4 0.3h-0.8l0.8-0.3c1.2-0.5 2.2-0.5 1.4 0zm8.4-0.3h1.4l-1.6 0.3c-2.1 0.4-3.6 0.4-2.2 0 0.6-0.2 1.7-0.3 2.4-0.3zm19.8 0l1-0.1c0.6 0 1.4 0.2 1.8 0.4l0.8 0.3h-0.8c-0.4 0-1.2-0.1-1.8-0.3zm-78.2 0.7c0.4 0 0.9 0.2 1.2 0.4 0.6 0.3 0.6 0.4 0 0.4-0.3 0-0.8-0.2-1.2-0.4-0.5-0.3-0.5-0.4 0-0.4zm53.4 0.1c0.7 0 0.6 0-0.2 0.3-1.3 0.4-2.4 0.4-1.4 0 0.5-0.2 1.2-0.3 1.6-0.3zm29.4-0.1c0.4 0 0.9 0.2 1.2 0.4 0.6 0.3 0.6 0.4 0 0.4-0.3 0-0.8-0.2-1.2-0.4-0.5-0.3-0.5-0.4 0-0.4zm-123.2 1c0 0.1-0.5 0.4-1.1 0.8-0.6 0.3-1.7 1.1-2.4 1.8-0.7 0.7-1.4 1.2-1.5 1.1-0.2-0.2 2.7-2.7 4-3.4 1-0.5 1-0.6 1-0.3zm84.4-0.2c0.6 0 0.6 0.1 0 0.4-0.3 0.2-0.8 0.4-1.2 0.4-0.5 0-0.5-0.1 0-0.4 0.4-0.2 0.9-0.4 1.2-0.4zm5.6 0.4c-0.3 0.2-0.9 0.4-1.4 0.4l-0.8-0.1 0.8-0.3c1.2-0.5 2.2-0.5 1.4 0zm-3.2 0.4c0.6 0 0.6 0.1 0 0.4-0.3 0.2-0.8 0.4-1.2 0.4-0.5 0-0.5-0.1 0-0.4 0.4-0.2 0.9-0.4 1.2-0.4zm45.1 0.9l0.7 0.8-1.1-0.7c-0.6-0.4-1.1-0.8-1.1-0.8 0-0.5 0.8-0.1 1.5 0.7zm-72.4-0.5c0.3 0 0 0.3-1.2 1.4l-1.3 1.2 1.2-1.3c0.7-0.7 1.2-1.3 1.3-1.3zm-2.3 0.4c0.1 0-0.2 0.4-0.8 1-0.5 0.6-1.2 1-1.5 1q-0.7 0 0.1-0.4c0.5-0.2 1.1-0.6 1.4-1 0.3-0.3 0.6-0.6 0.8-0.6zm-59.8 2.5c-0.9 0.9-2.1 2.3-2.5 3.1-0.5 0.8-0.9 1.2-0.9 1 0-0.7 1.7-3.2 3.2-4.5 2-1.8 2.1-1.6 0.2 0.4zm132.9-1.9l1.9 1.9c1.1 1 1.9 1.9 1.8 2-0.1 0.1-1-0.8-1.9-1.9zm2.7 0.2c0.1 0 0.5 0.6 1 1.2 0.5 0.7 0.8 1.2 0.7 1.2-0.1 0-0.6-0.5-1.1-1.2-0.5-0.6-0.7-1.2-0.6-1.2zm-80.3 1.6c1.4 0 1.4 1.2 0 2.6-0.8 0.8-1.6 1.4-1.8 1.4-0.1 0 0.4-0.7 1.3-1.5 1.4-1.5 1.4-1.6 0.8-2-0.5-0.3-0.6-0.5-0.3-0.5zm82.5 1.4c0.4 0.3 1.4 3 1.1 3.2 0 0.1-0.4-0.6-0.7-1.6-0.4-1-0.5-1.7-0.4-1.6zm-79.8 0.3c0.6-0.1-4 4.5-7.6 7.5-3.9 3.3-4.6 3.8-4.6 3.5 0-0.1 1.1-1.1 2.5-2.2 1.4-1.1 4-3.5 5.9-5.4 1.9-1.9 3.6-3.4 3.8-3.4zm13.4 0.9c0 0.1-0.5 0.5-1.2 0.8-1.5 0.8-1.6 0.5-0.1-0.4 1.3-0.6 1.3-0.6 1.3-0.4zm-0.1 1.4c0.1 0 0 0.3-0.3 0.6-0.5 0.7-0.5 0.7 0.6 1.4 0.5 0.2 0.6 0.4 0.4 0.4-1.1 0-2-1.1-1.4-1.7 0.3-0.4 0.6-0.7 0.7-0.7zm-74.8 1.7c0.1 0.6 0.1 1.6 0 2.2-0.1 0.6-0.2 0.1-0.2-1.1 0-1.2 0.1-1.7 0.2-1.1zm56.1-0.7c0.1 0.1-0.7 1-1.8 2-1.1 1-2 1.7-2.1 1.6-0.1 0 0.7-0.9 1.8-1.9 1-1 2-1.7 2.1-1.7zm13.2-0.2c1.1 0 0.1 1-3.2 3.2-4.4 3-4.7 2.9-0.4-0.2 1.8-1.2 3.2-2.4 3.2-2.6 0-0.2 0.2-0.4 0.4-0.4zm-70.9 1.3c0.1 0.4 0.1 1.1 0 1.6-0.1 0.5-0.2 0.2-0.2-0.7 0-0.9 0.1-1.3 0.2-0.9zm144 0.5c0.1 0.1 0.1 0.7-0.1 1.3-0.1 0.5-0.3 0.9-0.4 0.8-0.1-0.1-0.1-0.7 0-1.2 0.2-0.6 0.4-1 0.5-0.9zm-143.7 2.7c0.3 0.3 1.4 3.1 1.2 3.1-0.3 0-1.4-2.3-1.4-2.8 0-0.3 0.1-0.4 0.2-0.3zm142.8-0.1c1.1 0-2.9 4.6-4.7 5.4-1.3 0.6-1.3 0.6-0.3-0.1 2-1.4 3.7-3 4.2-4.1 0.4-0.7 0.7-1.2 0.8-1.2zm-75.9 0.4c0.4 0-0.2 0.5-2.3 2.2-1.3 1-2.4 1.7-2.4 1.5 0-0.1 1.1-1 2.3-2 1.3-0.9 2.4-1.7 2.4-1.7zm-15.9 1.1c0.1 0.1 0.1 0.2 0 0.2-0.1 0.1-1.3 0.9-2.7 1.9-1.4 0.9-2.6 1.6-2.7 1.5-0.1-0.1 1-1 2.5-1.9 1.5-1 2.8-1.8 2.9-1.7zm12.3-0.3c0.2 0-1.4 1.6-3.5 3.6-2.1 2-3.8 3.5-3.9 3.4-0.1 0 1.5-1.6 3.6-3.5 2-1.9 3.7-3.5 3.8-3.5zm76.3 1.2c-0.6 0.7-1.2 1.1-1.3 1-0.1-0.1 0.3-0.6 1-1.1 1.5-1.4 1.7-1.3 0.3 0.1zm-77.9 2c0.1 0-1 1.3-2.4 2.8-1.5 1.5-3.6 4.2-4.7 5.9-2 3-3.3 4.6-2.6 3.3 1.2-2.2 4.4-6.6 6.8-9.1 1.5-1.6 2.8-2.9 2.9-2.9zm34.5 0c0.3 0 0.9 0.2 1.2 0.4 0.5 0.4 0.5 0.4 0 0.4-0.3 0-0.9-0.2-1.2-0.4-0.5-0.3-0.5-0.4 0-0.4zm-93.9 0.4c0.1 0 0.8 0.7 1.5 1.4 0.8 0.8 1.3 1.4 1.2 1.4-0.1 0-0.8-0.6-1.6-1.4-0.7-0.7-1.3-1.4-1.1-1.4zm98.1 0.8l0.8 0.4h-0.8c-0.4 0-1.1-0.2-1.4-0.4-0.8-0.5 0.2-0.5 1.4 0zm-93 1.5c0.9 0.6 1.5 1.1 1.4 1.2-0.2 0.2-3-1.8-3-2.1 0-0.1 0.7 0.3 1.6 0.9zm39.2-0.9c0 0.1-0.5 0.5-1.2 0.8-1.5 0.8-1.6 0.5-0.1-0.3 1.3-0.7 1.3-0.7 1.3-0.5zm50-0.2c0.3 0 0.9 0.2 1.2 0.4 0.5 0.4 0.5 0.4 0 0.4-0.3 0-0.9-0.2-1.2-0.4-0.5-0.3-0.5-0.4 0-0.4zm5 0.1h0.8c0.5 0 1.2 0.1 1.6 0.3l0.8 0.4h-0.8c-0.4 0-1.1-0.2-1.6-0.4zm-2.2 0.8c0.3 0 1 0.2 1.4 0.4q0.8 0.3 0.2 0.3c-0.3 0-0.9-0.1-1.4-0.3q-0.7-0.4-0.2-0.4zm6.2 0h1c0.6 0 1.5 0.2 2 0.4l1 0.3h-1c-0.5 0-1.4-0.2-2-0.3zm24.4-0.1h0.8l-0.8 0.4c-1.2 0.5-2.2 0.5-1.4 0 0.3-0.2 1-0.4 1.4-0.4zm-25.6 1.2l0.8 0.3-0.8 0.1c-0.4 0-1.1-0.2-1.4-0.4-0.8-0.5 0.2-0.5 1.4 0zm14.4-0.2c4.4 0 7.4 0.1 6.8 0.2-1.6 0.4-11.2 0.4-13.1 0.1-0.9-0.2 2-0.3 6.3-0.3zm13.8-0.2c0.5 0 0.5 0 0 0.4-0.3 0.2-0.9 0.4-1.2 0.4-0.5 0-0.5-0.1 0-0.4 0.3-0.2 0.9-0.4 1.2-0.4zm-26.2 0.9h1c0.6 0 1.5 0.1 2 0.3l1 0.3h-1c-0.5 0-1.4-0.1-2-0.3zm23.2 0h0.8l-0.8 0.3c-0.4 0.2-1.1 0.3-1.6 0.3h-0.8l0.8-0.3c0.5-0.2 1.2-0.3 1.6-0.3zm-120.6 1.3c0.7 0.3 1.2 0.7 1.2 0.8 0 0.1-0.5-0.1-1.2-0.4-0.6-0.3-1.2-0.7-1.2-0.8 0-0.1 0.6 0.1 1.2 0.4zm110-0.4c5.9 0 6.5 0 3.6 0.3-1.8 0.1-5 0.1-7 0-3.1-0.3-2.7-0.3 3.4-0.3zm-85.6 0.7q0.6 0-0.2 0.3c-0.4 0.2-1.1 0.3-1.4 0.3q-0.5 0 0.2-0.3c0.5-0.2 1.1-0.3 1.4-0.3zm-17.8 0.8h0.8c0.5 0 1.3 0.1 1.8 0.3l1 0.3h-1c-0.5 0-1.3-0.1-1.8-0.3zm13.8 0h1l-1 0.3c-0.5 0.2-1.5 0.4-2.2 0.4h-1.2l1.2-0.4c0.7-0.1 1.7-0.3 2.2-0.3zm3.6 0.8q0.6 0-0.2 0.3c-0.4 0.2-1.1 0.4-1.4 0.4q-0.5 0 0.2-0.4c0.5-0.1 1.1-0.3 1.4-0.3zm-17 0.8h1c0.6 0 1.6 0.2 2.2 0.3l1.2 0.4h-1.2c-0.6 0-1.6-0.2-2.2-0.4zm13 0.1l1-0.1-1 0.4c-0.5 0.1-1.6 0.3-2.4 0.3h-1.4l1.4-0.3c0.8-0.2 1.9-0.3 2.4-0.3zm22.2 3.1c-0.4 0.7-0.7 1.2-0.8 1-0.2-0.1 0.1-0.6 0.4-1.2 1-1.4 1.2-1.3 0.4 0.2zm-1 1.9c0.3 0.5 0.5 0.5 1 0.1 0.3-0.3 0.6-0.3 0.6-0.1 0 0.5-1.1 1-1.6 0.6-0.2-0.1-0.4-0.4-0.4-0.7q0-0.4 0.4 0.1zm-69.6 70.5c0 0.2-0.9 0.4-2 0.4h-2v2 2h1.4c0.8 0 1.4 0.1 1.4 0.4 0 0.2-0.6 0.4-1.4 0.4h-1.4v2.4c0 2.2 0 2.4-0.9 2.3-0.7 0-0.7-0.1-0.2-0.2 0.6-0.2 0.7-0.7 0.8-2.5 0-1.2 0-3.4 0.1-4.7 0-1.8-0.1-2.5-0.5-2.5-0.3 0-0.5 0.2-0.5 0.4 0 0.3-0.1 0.4-0.2 0.3-0.2-0.2-0.1-0.5 0-0.7 0.3-0.5 5.4-0.6 5.4 0zm14.2-0.1q0.4 0.2-0.1 0.4c-0.7 0.2-0.7 9.1 0 9.4 0.3 0.1 0.2 0.2-0.2 0.2-0.7 0.1-1.1-9.4-0.4-10.1 0.1-0.1 0.4-0.1 0.7 0.1zm16.2 0.8l1 1.1-1-0.9c-0.6-0.5-1.2-0.8-1.4-0.6-0.2 0.1-0.2 0 0-0.2 0.4-0.7 0.3-0.7 1.4 0.6zm23.6-0.7c0 0.2-0.4 0.4-1 0.4h-1v4.4c0 3.2-0.1 4.3-0.4 4.1-0.3-0.2-0.4-1.6-0.3-4.6 0.1-3.6 0.1-4.3-0.4-4.2-0.3 0.2-0.4 0.1-0.3-0.1 0.3-0.6 3.4-0.6 3.4 0zm17.4-0.1c-0.1 0.2-0.1 0.7 0.1 1.1 0.2 0.7 0.3 0.6 0.5-0.2l0.3-1 0.6 1.2c0.4 0.6 0.7 1 0.7 0.8 0-1.2-1.7-2.7-2.2-1.9zm5.5-0.3c0.7 0 1.8 1.8 1.4 2.2-0.2 0.2-0.3 0-0.3-0.3 0-1-1.1-1.7-1.3-0.9-0.2 0.6-0.2 0.6-0.2-0.1-0.1-0.5 0.1-0.9 0.4-0.9zm21.4 2.5l0.2 2.3h2.1 2.2l0.1-1.7c0.2-1.7 0.2-1.7 0.2 0.3 0 5.1 0.1 6.6 0.5 6.6 0.6 0 0.5-9.1-0.1-9.3-0.3-0.1-0.4-0.4-0.2-0.5 0.8-0.9 1.1 0.6 1.1 5.2 0 4.6 0 5-0.7 4.9-0.5-0.1-0.7-0.6-0.8-2.4l-0.1-2.3h-2.2-2.2v2.4c0 2.2 0 2.4-0.9 2.3-0.7 0-0.7-0.1-0.2-0.2 0.8-0.2 0.9-1.9 0.7-6.9-0.1-2.5-0.3-3.2-0.8-2.4-0.2 0.3-0.4 0.4-0.4 0.1 0-0.2 0.1-0.5 0.3-0.7 0.7-0.6 1.1 0.2 1.2 2.3zm26.6-1.8c-0.1 0.3 0.1 0.8 0.4 1.2 0.3 0.4 0 0.3-0.5-0.2-1-0.9-3.6-1.3-3.6-0.5 0 0.2-0.3 0.2-0.6 0.1-0.3-0.1-1 0.1-1.5 0.5-0.7 0.7-0.8 0.7-0.3 0.1 0.3-0.4 1-1 1.6-1.3 1.3-0.7 4.7-0.6 4.5 0.1zm38.9-0.7c2 0 3.1 0.3 2.8 0.8-0.1 0.2 0 0.4 0.2 0.6 0.2 0.1 0.4 0.5 0.4 0.9q0 0.7-0.6-0.5c-0.6-0.9-0.8-1.1-2-1-0.8 0.1-1.4 0-1.5-0.2-0.1-0.2-0.3-0.2-0.6-0.1-0.7 0.4-0.7 9.3 0 9.6q0.4 0.1-0.1 0.1c-0.6 0-1.1-8.4-0.6-9.7 0.1-0.3 0.9-0.5 2-0.5zm24.6 0.5c-0.1 0.2-1 0.4-2 0.4l-1.8 0.1-0.1 1.9-0.1 1.9h1.4c0.8 0 1.4 0.1 1.4 0.4 0 0.2-0.6 0.4-1.4 0.4h-1.4v2c0 1.8 0.1 2 1 2 0.6 0 1 0.1 1 0.4 0 0.2-0.8 0.4-1.8 0.4h-1.8v-5c0-2.7 0.1-5 0.3-5.2 0.4-0.4 5.6-0.1 5.3 0.3zm-104.7-0.1c0.3 0-0.6 2.6-1 3-0.5 0.5-0.3-0.8 0.2-1.9 0.3-0.6 0.6-1.1 0.8-1.1zm61.1 0.4c0 0.2-0.1 0.3-0.3 0.2-0.7-0.4-0.9 1.1-0.3 1.8 0.3 0.3 0.6 0.8 0.6 1 0 0.1-0.4-0.2-0.8-0.8-0.7-0.8-0.7-1.2-0.4-1.8 0.5-0.9 1.2-1.1 1.2-0.4zm39.3 4.5c0.1 3.5 0 4.7-0.4 4.7-0.5 0-0.7-8.8-0.2-9.4 0.5-0.4 0.5 0 0.6 4.7zm-127.5-3.6c0.1 0.4 0.1 0.7 0 0.7-0.3 0-1.4-1.1-1.4-1.4 0-0.6 1.3 0 1.4 0.7zm111.8 0.1c0.8 0.4 0.4 1.4-0.9 2.6-1.1 1.1-1.2 1.3-0.7 2.1 0.5 0.8 0.5 0.8-0.1 0.3-0.4-0.3-0.7-0.8-0.7-1.1 0-0.3-0.3-0.5-0.6-0.5-0.5 0-0.5 0.1-0.2 0.9 0.4 0.8 0.4 0.8-0.1 0.2-0.3-0.4-0.9-0.7-1.2-0.7-0.4 0-0.7-0.2-0.7-0.4 0-0.3 0.7-0.4 1.6-0.4 1.1 0 1.6-0.2 2-0.9 0.2-0.5 0.4-0.6 0.2-0.2-0.1 0.4 0 0.7 0.2 0.7 0.6 0 1.3-1.6 1.1-2.3-0.2-0.3-0.1-0.5 0.1-0.3zm-135.3 4.6c2.4 2.9 2.7 3.2 2.9 2.4q0.1-0.9-0.9-1.8c-0.5-0.5-1.6-1.7-2.5-2.8-1.4-2-0.4-1.1 1.2 1 0.5 0.6 1.2 1.3 1.7 1.5 0.7 0.4 0.9 0.9 0.9 1.9 0 2.1-0.7 1.7-3.6-2-3.1-4.1-3.3-4.1-3.6 0.2l-0.2 3.4-0.1-4.2c-0.1-4.9 0-4.9 4.2 0.4zm44.2-3.7c0.1 0.5 0.2 1.1 0.1 1.4-0.1 0.3 0 0.7 0.4 0.8 0.3 0.1 0.6 0.4 0.6 0.7q0 0.4-0.7 0c-0.6-0.3-0.8-0.9-0.8-2.1 0-1.4 0.1-1.5 0.4-0.8zm48.9 1.2c0.2 0.8 0.2 1.8-0.1 2.6-0.3 1.1-0.3 1-0.3-1.3 0-2.2 0.1-2.4 0.4-1.3zm-67.3 0.2c0.2 0.3 0.3 0.9 0.3 1.5 0 0.5-0.1 1.2-0.3 1.4-0.2 0.3-0.3-0.4-0.3-1.4 0-1.1 0.1-1.7 0.3-1.5zm68.6 0c0.1 0.3 0.1 1.1 0 1.6-0.1 0.5-0.2 0.1-0.2-0.7 0-0.9 0.1-1.3 0.2-0.9zm-45.2 0.4c0.2 0.8-0.1 1.4-0.5 1-0.2-0.2-0.1-0.6 0-1 0.3-0.7 0.3-0.7 0.5 0zm60 1.5q-0.3 1.2 0.2 1.2c0.3 0 0 0.3-0.6 0.7-0.6 0.3-1.1 1-1.1 1.4 0 0.4-0.2 0.7-0.4 0.7-0.5 0-0.5-0.6 0-1.5 0.2-0.4 0.6-1.4 1-2.2 0.8-1.8 1.2-2 0.9-0.3zm-65.5 0.4c0 0.2-0.1 0.6-0.3 0.9-0.4 0.3-0.5 0.3-0.5-0.2 0-0.3 0.1-0.7 0.3-0.9 0.2-0.2 0.4-0.1 0.5 0.2zm4.7 0.3c0.1 0.3 0 0.7-0.2 1-0.3 0.2-0.5 0.9-0.5 1.4 0 1.2-1.3 1.1-1.5-0.1-0.2-0.8-0.2-0.8 0.5 0 0.7 0.8 0.7 0.7 0.5-0.3-0.1-0.6 0-1 0.1-0.9 0.2 0.1 0.4-0.2 0.6-0.7q0.3-0.9 0.5-0.4zm36.7 0.7c0.6 1.3 2.2 2.9 1.7 1.7-0.7-1.7-0.7-2.1-0.3-1.3 0.3 0.4 1 1.2 1.6 1.7l1 0.9h-1c-1.6-0.1-3.6-2.1-3.6-3.7 0-0.3 0.3 0 0.6 0.7zm9 0c0.2 0.3-2.7 3-3.3 3-0.1 0-0.3-0.2-0.3-0.4 0-0.3 0.3-0.4 0.6-0.4 0.3 0 0.7-0.4 0.8-0.9 0.2-0.6 0.4-0.7 0.6-0.3 0.3 0.4 0.5 0.3 0.9-0.4 0.2-0.4 0.6-0.7 0.7-0.6zm38.5-0.2c0.1 0 0.8 0.7 1.5 1.6 0.7 0.8 1.1 1.6 0.9 1.6-0.2 0-0.9-0.8-1.4-1.6-0.6-0.9-1-1.6-1-1.6zm-90.1 0.6c0.6 0.6 0.4 2-0.4 2-0.3 0-0.6-0.3-0.7-0.6-0.1-0.5-0.1-0.5 0.2-0.1 0.5 0.7 1.1-0.1 0.7-1.1-0.2-0.5-0.1-0.5 0.2-0.2zm91.4-0.4l1.3 1.1q2 1.9 0.8 1.9c-0.2 0-0.3-0.2-0.1-0.3 0.1-0.2-0.3-0.8-0.9-1.5zm-111 1.8c0.6 0.8-0.2 1.2-2.8 1.2-1.5 0-2-0.1-1.6-0.4 0.4-0.2 1.4-0.4 2.3-0.4 1.1 0 1.7-0.2 1.7-0.5q0-0.5 0.4 0.1zm10.8 11.6c0.5 0 1.4 1.2 1.1 1.5-0.2 0.1-0.3 0-0.3-0.2 0-0.3-0.3-0.5-0.8-0.5-0.5 0-0.7-0.2-0.6-0.4 0.2-0.2 0.4-0.4 0.6-0.4zm28 1.7c0.5 0.9 0.5 0.9-0.5 0-1.1-1.1-1.8-1.2-1-0.2 0.5 0.7 0.5 0.7-0.3 0-1.2-1-2.9-0.9-4.1 0.2l-1 0.9 0.6-1c0.3-0.6 0.7-1.1 0.9-1.3 1.2-0.9 4.5 0 5.4 1.4zm14.2-1.3c-0.1 0.2-0.2 0.6 0 0.7 0.1 0.1 0.2 0 0.2-0.2 0-0.3 0.2-0.5 0.4-0.5 0.2 0 0.5 1.7 0.5 3.7l0.2 3.7-0.1-3.8c0-3.5-0.4-4.8-1.2-3.6zm-35.6 0c0.2 0 0.2 0.2-0.1 0.5-0.3 0.2-0.5 0.8-0.5 1.2 0 0.4-0.2 0.7-0.4 0.7-0.5 0-0.5-0.6 0.1-1.6 0.3-0.4 0.7-0.8 0.9-0.8zm14.6 0.9c-0.3 0.3-0.8 0.8-1.1 1.1-0.4 0.5-0.5 0.5-0.1-0.3 0.2-0.4 0.6-0.9 0.9-1 0.9-0.4 0.9-0.3 0.3 0.2zm28.4-0.5c0.3 0 0.4 1.4 0.4 3.4 0 1.8-0.2 3.5-0.4 3.6-0.2 0.2-0.4-1.1-0.4-3.4 0-2.1 0.2-3.6 0.4-3.6zm-22.4 2c0.2 0.3 0.4 0.9 0.4 1.4 0 1-0.2 0.7-0.5-0.8-0.2-0.9-0.2-1 0.1-0.6zm1.7 0.5c0.4 0.6 0.4 2.8 0 3.4-0.2 0.3-0.3-0.5-0.3-1.7 0-1.2 0.2-1.9 0.3-1.7zm-24.1-0.1c0.6 0 0.5 0.5-0.2 1.9-0.3 0.6-0.6 2-0.6 3 0 1.7-0.7 2.9-1.3 2.2-0.4-0.3-0.5-4.3-0.2-4.1 0.2 0.1 0.3 1 0.3 2 0 1 0.2 1.8 0.4 1.8 0.6 0 0.5-3.7 0-4.3-0.3-0.3-0.2-0.5 0.4-0.7 0.5-0.1 0.8-0.6 0.8-1 0-0.5 0.2-0.8 0.4-0.8zm14.6 2.4c0 1.3-0.1 2.1-0.3 1.9-0.3-0.6-0.4-2.8 0-3.7 0.3-0.9 0.3-0.8 0.3 1.8zm8.1 0.5c0.1 0.4 0 1-0.3 1.4-0.4 0.7-0.4 0.7-0.2 0 0.1-0.4 0.2-1.1 0.3-1.4 0-0.6 0-0.6 0.2 0zm-6.5 1.3c0.2 0.9 0.1 1-0.2 0.6-0.2-0.3-0.4-0.9-0.4-1.4 0-1 0.2-0.7 0.6 0.8zm7.3 0.4c0.3 0.3-0.7 1.4-1.9 2-1.3 0.7-1.5 0.5-0.5-0.6 0.3-0.4 0.9-0.6 1.2-0.5 0.3 0.1 0.6-0.1 0.8-0.5 0.1-0.3 0.3-0.5 0.4-0.4zm13.7 0c0 2.1 4.5 3.5 6.5 2 0.8-0.5 1-1.4 0.3-1.4-0.2 0-0.4 0.3-0.4 0.6 0 0.4-0.4 0.6-1.5 0.6-0.8 0-1.9 0.1-2.4 0.2-0.7 0.2-1 0-1.7-1.1-0.4-0.7-0.8-1.1-0.8-0.9zm-21.6 1.3c0.8 0.6 1.4 0.7 1 0.1-0.1-0.2 0.3-0.1 0.8 0.1 0.6 0.3 1 0.6 1 0.8 0 0.6-1.6 0.3-2.5-0.6-0.5-0.5-0.6-0.7-0.3-0.4z" />
	</g>
	<g id="path4">
		<path id="Layer" fill-rule="evenodd" class="s4" d="m525.1 125.8c1.3 0 1.3 0-0.5 0.5-6.8 1.8-12.5 9.8-17.5 24.4-1.1 3.1-2 5.1-2 4.5 0-0.6 0.2-1.2 0.4-1.3 0.2-0.1 0.4-0.7 0.4-1.2 0-0.5 0.2-1.1 0.4-1.2 0.2-0.1 0.4-0.7 0.4-1.2 0-0.5 0.2-1.1 0.4-1.2 0.2-0.1 0.4-0.6 0.4-1 0-0.5 0.2-1.1 0.4-1.5 0.1-0.4 0.5-1.2 0.7-1.7 1.1-2.6 4.7-9.6 5-9.6 0.1 0 0.3-0.2 0.3-0.5 0-1.5 4.9-6.4 8.2-8.2 0.9-0.4 2.2-0.8 3-0.8zm4.9-0.1c0.8 0 1.5 0.2 1.5 0.4 0 0.2 0.3 0.4 0.6 0.4 0.8 0 3 2.3 3.7 3.8 0.3 0.7 0.8 1.5 0.9 1.9 0.2 0.4 0.4 1.3 0.4 2l-0.1 1.3-0.3-1.4q-1.4-6.7-7-8c-1.2-0.3-1.2-0.3 0.3-0.4zm4.2 12.8l-0.1 3.8-0.1-4.3c-0.1-2.3-0.3-4.4-0.5-4.5-0.2-0.1-0.4-0.6-0.4-1 0-1.6-2.7-3.6-4.9-3.6-2.1 0-5.5 2.6-5.5 4.2 0 0.3-0.1 0.6-0.3 0.7-0.3 0.1-1.9 3.3-2.5 4.9-0.5 1.2-1.3 3.1-1.6 3.9-0.2 0.4-0.4 1-0.4 1.5 0 0.4-0.2 0.9-0.4 1-0.2 0.1-0.4 0.8-0.4 1.4 0 0.6-0.2 1.3-0.4 1.4-0.2 0.1-0.4 0.7-0.4 1.2 0 0.5-0.2 1.1-0.4 1.2-0.6 0.3-0.3-0.9 1.5-6.2 2.6-7.9 5.8-13.7 8.2-15.2 4.7-2.9 8.9 1.8 8.6 9.6zm3.3-1.2c0.5 0.8 0.5 1.9 0 2.2-0.2 0.1-0.4-0.4-0.4-1.3 0-1.1 0.1-1.3 0.4-0.9zm-0.5 5.2c0.1 1.2 0 2.3-0.3 2.5-0.2 0.3-0.4 1.1-0.4 1.8 0 0.7-0.2 1.3-0.4 1.3-0.4 0-0.3-0.6 0.4-3.6 0.2-0.8 0.4-2 0.5-2.8 0-0.9 0.1-0.6 0.2 0.8zm-8.3 14.9c-4 8-12.4 20.5-18.8 27.9l-1.2 1.4 0.1-2c0-1.1 0.1-1.5 0.2-0.9 0.2 1.6 0.6 1.4 2.5-1.3 0.5-0.8 1.3-1.7 1.7-2 0.4-0.4 0.7-0.9 0.7-1 0-0.2 0.5-1 1.2-1.7 0.7-0.7 1.2-1.4 1.2-1.6 0-0.2 0.3-0.7 0.7-1.1 1.1-1.2 6.5-9.3 6.5-9.8 0-0.2 0.1-0.4 0.3-0.5 0.4-0.1 1.7-2.3 2-3.2 0.1-0.4 0.4-0.7 0.5-0.7 0.2 0 0.4-0.4 0.4-0.8 0-0.4 0.2-0.8 0.4-0.8 0.2 0 0.4-0.4 0.4-0.8 0-0.4 0.2-0.8 0.4-0.8 0.2 0 0.4-0.4 0.4-0.8 0-0.4 0.2-0.8 0.4-0.8 0.2 0 0.4-0.4 0.4-0.8 0-0.4 0.2-0.8 0.4-0.8 0.2 0 0.4-0.3 0.4-0.6 0-0.3 0.2-1 0.4-1.4 0.2-0.4 0.6-1.2 0.8-1.6 0.2-0.4 0.4-1.1 0.4-1.6 0-0.4 0.2-0.9 0.4-1 0.2-0.1 0.4-0.7 0.4-1.2 0-0.5 0.2-1.1 0.4-1.2 0.2-0.1 0.4-0.8 0.4-1.6 0-0.7 0.1-1.4 0.3-1.5 1.6-1.7-1.7 8.4-4.7 14.6zm6.7-8.3c0.1 0.4 0 1.2-0.3 1.8-0.5 1-1 2.2-1.6 3.8-0.8 2.2-5 10.4-5.6 11-0.1 0.1-0.5 0.7-0.8 1.3-0.3 0.6-0.7 1.1-0.9 1.1-0.2 0-0.3 0.2-0.3 0.4 0 0.4-3.9 6.4-4.4 6.8-0.1 0.1-0.7 0.8-1.2 1.6-0.5 0.8-1.1 1.5-1.2 1.6-0.1 0.1-0.7 0.8-1.2 1.6-0.5 0.8-1.1 1.5-1.2 1.6-0.1 0.1-0.7 0.9-1.3 1.7-0.6 0.8-1.6 1.9-2 2.4-0.5 0.5-1.2 1.3-1.6 1.8-0.3 0.5-1.2 1.6-2 2.5-0.8 0.9-1.5 1.9-1.5 2.4 0 0.4-0.2 0.9-0.4 1-0.2 0.1-0.4 0.1-0.4-0.1 0-1.1 1-2.7 3.8-5.9 11.1-12.9 21.5-29.7 23.7-38 0.2-0.9 0.3-1 0.4-0.4zm-20 2.7c0.1 0.7 0 1.4-0.3 1.6-0.2 0.3-0.4 1-0.4 1.8 0 0.7-0.2 1.4-0.4 1.5-0.2 0.1-0.4 0.9-0.4 1.6 0 0.7-0.2 1.5-0.4 1.6-0.6 0.3-0.5 0.1 0.7-4.8 0.8-3 1.1-4 1.2-3.3zm-11.1 7.9c-0.6 2.1-0.7 2.3-0.8 1.3 0-0.7 0.2-1.4 0.4-1.5 0.2-0.1 0.4-0.7 0.4-1.4 0-0.6 0.1-1.2 0.3-1.4q0.9-0.8-0.3 3zm8.7 2c0.1 0.7-0.1 1.5-0.3 1.8-0.4 0.3-0.5 0.2-0.3-0.6 0.2-0.6 0.3-1.4 0.4-1.8 0-0.4 0.1-0.2 0.2 0.6zm-10.3 4.4c-0.6 2.5-0.7 2.7-0.8 1.5 0-0.8 0.2-1.6 0.4-1.7 0.2-0.1 0.4-0.8 0.4-1.6 0-0.7 0.1-1.4 0.3-1.6 0.6-0.5 0.5 0.4-0.3 3.4zm9.5-0.6c0.1 0.8 0 1.7-0.3 2-0.4 0.3-0.4 0.1-0.3-0.9 0.2-0.8 0.3-1.7 0.4-2 0-0.4 0.1 0 0.2 0.9zm-0.8 4.2c0.1 1 0 1.9-0.3 2.2-0.4 0.3-0.4 0.1-0.3-1 0.2-0.7 0.3-1.7 0.4-2.1 0-0.5 0.1-0.1 0.2 0.9zm-9.9 1.6l-0.3 1.8-0.1-1.6c0-0.9 0.1-1.8 0.3-1.9 0.4-0.5 0.5-0.1 0.1 1.7zm9.1 3c0.1 1 0 2.1-0.3 2.3-0.2 0.3-0.4 1.6-0.4 3 0 1.3-0.2 2.6-0.4 2.7-0.5 0.3-0.2-3.8 0.4-6.2 0.2-0.8 0.4-1.9 0.5-2.6 0-0.7 0.1-0.3 0.2 0.8zm-10.7 5.8l-0.3 1.8-0.1-2.1c0-1.1 0.2-2.2 0.4-2.3 0.2-0.1 0.4-1 0.4-2 0-0.9 0.1-1.8 0.3-1.9 0.6-0.7 0.5 0-0.7 6.5zm-32.8 0c0.6 0 1.3 0.2 1.4 0.4 0.1 0.2-0.4 0.4-1.4 0.4-1 0-1.6-0.2-1.4-0.4 0.1-0.2 0.8-0.4 1.4-0.4zm118.4 0c2.1 0 3.6 0.2 3.6 0.4 0 0.2 0.3 0.4 0.6 0.4 1.6 0 4.2 4 4.2 6.3l-0.1 1.5-0.3-1.7c-1-4.7-3.7-6.7-8.8-6.4-1.5 0.1-2.8 0-2.8-0.2 0-0.2 1.6-0.3 3.6-0.3zm-121.2 0.8c0.8 0 0.7 0.1-0.5 0.6-11.3 4-10.4 24 1.6 32.2 2 1.4 2 1.5 0.7 4.8-3.8 9.4-8.6 16.4-12.7 18.4-1.7 0.9-1.9 1-1.9 0.4 0-0.2 0.3-0.4 0.6-0.4 1.3 0 4.6-2.8 6.6-5.6 0.5-0.8 1.1-1.5 1.2-1.6 0.3-0.3 1.6-2.5 2.3-4.1 0.4-0.8 0.8-1.5 1-1.5 0.2 0 0.3-0.3 0.3-0.6 0-0.3 0.2-0.9 0.4-1.3 0.2-0.4 0.7-1.6 1.2-2.7 0.5-1.1 1.1-2.4 1.3-2.9 0.4-0.9-0.9-2.9-2-2.9-0.5 0-3.1-2.5-4.1-4-0.5-0.8-1.2-1.6-1.5-1.9-0.3-0.3-0.8-1.2-1.1-2-0.4-0.8-0.8-1.8-1-2.2-0.2-0.4-0.4-1-0.4-1.5 0-0.4-0.2-0.9-0.4-1-0.2-0.1-0.4-2.4-0.4-5.4 0-3 0.2-5.3 0.4-5.4 0.2-0.1 0.4-0.6 0.4-1 0-2 3-6 5.7-7.6 0.7-0.4 1.7-0.7 2.3-0.8zm4.6 0.1l1.1-0.1c1.3 0 4.7 3.1 4.7 4.4 0 0.4 0.2 0.9 0.4 1 0.2 0.1 0.4 1.2 0.3 2.3v2.1l-0.3-2c-0.6-3.7-2.5-6.7-4.9-7.4zm111.9 0c0.5 0-0.2 0.6-1.7 1.5-4.2 2.5-9.6 10.2-11.2 16.2-0.9 3.5-17.5 24.8-24.1 30.8-6.8 6.3-8.8 6.2-8.7-0.4l0.1-3.5 0.2 3.7c0.3 4.9 1.5 5.7 4.4 3 0.3-0.3 1.2-1 2-1.6 1.8-1.4 5.1-4.7 6.5-6.5 0.6-0.8 1.7-2.1 2.4-2.8 0.8-0.8 1.8-2.1 2.3-2.8 0.6-0.8 1.3-1.7 1.7-2 0.3-0.4 1-1.3 1.6-2 0.5-0.8 1-1.5 1.2-1.6 0.1-0.1 0.6-0.9 1.2-1.6 0.5-0.8 1-1.5 1.2-1.6 0.1-0.1 0.6-0.9 1.2-1.6 0.5-0.8 1-1.5 1.2-1.6 0.1-0.1 0.6-0.9 1.2-1.6 0.5-0.8 1-1.5 1.2-1.6 0.8-0.7 2.8-4.2 2.8-5 0-0.5 0.1-1.1 0.4-1.2 0.2-0.2 0.4-0.6 0.4-1.1 0-0.4 0.1-0.7 0.4-0.7 0.2 0 0.4-0.4 0.4-0.8 0-0.4 0.1-0.9 0.4-1 0.2-0.2 0.4-0.6 0.4-1 0-0.4 0.3-1.1 0.8-1.5 0.4-0.5 0.8-1 0.8-1.1 0-1.2 4-5.8 6.8-7.7 0.9-0.7 2.1-1.3 2.5-1.3zm-81.7 3.8l-0.3 2.4-0.1-2.3c0-1.2 0.1-2.3 0.2-2.5 0.5-0.5 0.6 0 0.2 2.4zm90.1-1.1c1.3 1.1 3 5.3 1.9 4.7-0.3-0.2-0.4-0.7-0.4-1.2 0-0.5-0.6-1.5-1.3-2.3-3.2-3.9-7.9-0.5-11.2 8.1-0.3 0.5-0.6 1.3-0.8 1.7-0.2 0.3-0.3 1-0.3 1.4 0 0.5-0.2 0.9-0.4 1.1-0.3 0.1-0.4 0.7-0.4 1.4 0 0.6-0.2 1.2-0.4 1.4-0.7 0.4-0.5-0.4 0.8-4.3 2.3-6.8 5.2-11.4 7.7-12.6 1.5-0.6 3.7-0.4 4.8 0.6zm-118.1 1.9c0.9 1.6 1.4 3.6 0.8 3.2-0.2-0.2-0.4-0.6-0.4-1.1 0-0.8-0.7-2.1-1.5-3-0.7-0.8-5.1-0.7-6.2 0.2-2.5 2-4.3 4.6-4.3 6 0 0.5-0.2 0.9-0.4 1.1-0.7 0.4-0.5-0.7 0.5-2.9 1.2-2.5 3.4-4.8 5.2-5.3q4.5-1.3 6.3 1.8zm-24.6-0.6c0.7 0 0.7 0-0.2 0.5-1.5 0.8-2.5 2.4-3.9 6.6-0.8 2.2-1.3 3.4-1.3 2.8 0-0.6 0.1-1.2 0.4-1.3 0.2-0.2 0.4-0.8 0.4-1.4 0-0.7 0.1-1.3 0.4-1.4 0.2-0.2 0.4-0.6 0.4-1 0-1 1.4-3.6 2.3-4.3 0.4-0.3 1-0.5 1.5-0.5zm3.1 0c0.9 0 1.9 0.9 1.9 1.7 0 0.3 0.1 0.7 0.4 0.9 0.2 0.1 0.4 0.6 0.4 1.2 0 0.5-0.2 1-0.4 1.2-0.3 0.1-0.4-0.3-0.4-1 0-1.8-0.7-3.2-1.7-3.6-0.8-0.3-0.8-0.4-0.2-0.4zm81.9 1.6c1 0 2 0.1 2.2 0.4 0.1 0.2 0.6 0.4 1 0.4 0.4 0 0.8 0.1 0.8 0.4 0 0.2 0.2 0.4 0.5 0.4 0.4 0 0.9 0.5 1.3 1.2 0.4 0.6 0.9 1.2 1 1.2 0.2 0 0.4 0.3 0.4 0.7 0 0.5 0.1 0.9 0.4 1.1 0.2 0.1 0.3 1.1 0.3 2.1v1.9l-0.4-2c-0.6-4-4-7.4-7.3-7.4-7.2-0.1-16.8 14-28 40.8-0.1 0.3-0.1-1.1 0-3 0.3-4 0.6-5 0.6-2.1 0 1.2 0.1 1.8 0.4 1.7 0.2-0.2 0.4-0.6 0.4-1.1 0-0.4 0.1-0.7 0.4-0.7 0.2 0 0.4-0.3 0.4-0.6 0-0.4 0.1-1 0.3-1.3 1.5-3 2.1-4.3 2.1-4.8 0-0.3 0.1-0.5 0.4-0.5 0.2 0 0.4-0.3 0.4-0.5 0-0.7 3.2-7.3 3.7-7.5 0.1 0 0.3-0.4 0.3-0.9 0-0.4 0.1-0.7 0.3-0.7 0.1 0 0.6-0.7 1-1.5 0.6-1.5 1.9-3.8 2.3-4.1 0.1-0.1 0.4-0.7 0.7-1.3 0.3-0.6 0.7-1.1 0.9-1.1 0.2 0 0.4-0.3 0.4-0.6 0-0.2 0.3-0.8 0.7-1.3 0.4-0.4 1.1-1.4 1.7-2.1 1.3-2 5.1-5.6 5.8-5.6 0.3 0 0.6-0.2 0.6-0.4 0-0.3 0.3-0.4 0.7-0.4 0.5 0 0.9-0.2 1.1-0.4 0.1-0.3 1.1-0.4 2.2-0.4zm-33.2 3.6l-0.3 2.6-0.1-2.5c0-1.3 0.1-2.5 0.2-2.7 0.5-0.4 0.5 0 0.2 2.6zm-73.3 1.1v1.1l-0.4-1c-1.8-4.7-7.4-1.3-8.7 5.3l-0.4 1.7v-1.5c0-0.9 0.1-1.9 0.3-2.2 0.2-0.4 0.6-1.3 0.9-1.9 0.3-0.7 1.1-1.8 1.7-2.5 2.2-2.2 6.7-1.5 6.6 1zm47.6 0.1c0 1.3 0 3.5 0 4.8-0.1 1.4-0.2 0.4-0.2-2.2 0-2.7 0.1-3.8 0.2-2.6zm61.1 0.1c-0.1 0.2-0.3 0-0.6-0.6-0.5-1.4-2.1-1.5-3.6-0.3-0.6 0.4-1.2 0.8-1.4 0.8-0.9 0-6.2 6.6-8.6 10.8-0.4 0.8-1 1.9-1.3 2.4-0.3 0.5-0.6 1.1-0.8 1.2-0.4 0.4-5.9 11.8-5.9 12.3 0 0.2-0.2 0.5-0.4 0.5-0.3 0-0.4 0.3-0.4 0.8 0 0.4-0.2 0.8-0.4 0.8-0.3 0-0.4 0.2-0.4 0.6 0 0.3-0.2 0.9-0.4 1.3-0.5 0.9-2 4.4-2.5 5.7-0.3 0.5-0.6 1.3-0.8 1.7-0.2 0.3-0.3 0.9-0.3 1.3 0 0.3-0.2 0.6-0.4 0.6-0.3 0-0.4 0.4-0.4 0.9 0 0.6-0.2 1.1-0.4 1.3-0.3 0.1-0.4 0.6-0.4 1 0 0.4-0.2 0.8-0.4 0.8-0.3 0-0.4 0.2-0.4 0.6 0 1.3-2.3 4.2-3.4 4.2-0.3 0-0.7 0.1-0.8 0.4-0.2 0.2-0.9 0.4-1.7 0.4-0.7 0-1.3-0.2-1.3-0.4 0-0.3-0.3-0.4-0.5-0.4-1.8 0-3-9.1-1.5-11.2 0.3-0.4 0.3 0.9 0.1 4.2-0.3 5.8 0.3 7 3.4 7 3.1 0 3.8-0.9 7.7-10 9.7-23.2 17.8-37 23.5-40 2.6-1.4 5.4-0.6 4.7 1.3zm-82.3 1.6c0 1.2-0.1 2.6-0.3 3-0.4 0.5-0.4 0.3-0.3-0.9 0.1-0.9 0.3-2.3 0.3-3 0.1-0.8 0.2-0.4 0.3 0.9zm24.5-1.7c0.4 0.7 0.4 2.3 0 3.4-0.3 0.5-0.4 0.1-0.4-1.6 0-1.7 0.1-2.3 0.4-1.8zm117.8 0c0.1 0 0.2 1.1 0.1 2.6-0.1 2.5-0.1 2.6 1 3.2 1.9 1 3.9 3.7 3.9 5.5 0 0.5 0.1 1.1 0.3 1.3 0.2 0.2 0.5 1.2 0.5 2.2l0.2 1.8 4.3 0.1c2.7 0 4.6-0.1 4.8-0.3 0.2-0.2 0.9-0.4 1.5-0.4 0.7 0 1.2-0.2 1.2-0.4 0-0.3 0.2-0.4 0.6-0.4 0.7 0 2-0.7 3.1-1.7 0.5-0.4 1-0.7 1.1-0.7 0.5 0 4.5-4.1 5.4-5.4 0.8-1.2 3.6-1.5 4-0.4 0.4 1-3.8 5.9-7 8.2-0.8 0.5-1.7 1.2-2 1.4-0.2 0.3-1.1 0.8-2 1.2-0.8 0.3-1.8 0.8-2.1 1-0.4 0.2-1.1 0.4-1.5 0.4-0.4 0-0.9 0.1-1 0.4-0.2 0.2-1 0.3-2 0.3-0.9 0-1.3-0.1-0.8-0.2 6.4-1.3 12.4-5 16.3-10 3.3-4.2 0.8-4.1-3.4 0.2-5.6 5.7-11.4 8.1-17.8 7.4-3.3-0.3-3.4-0.5-3.8-3.5-0.7-5.5-4.2-9.3-7.6-8.1-4.2 1.4-2.7 7.6 2.6 11.2 2.6 1.8 2.6 1.7 1.2 6.3-0.6 1.7-0.8 2-0.9 1.2-0.1-0.6 0.1-1.1 0.3-1.2 0.3 0 0.5-0.7 0.5-1.4 0-0.8 0.1-1.5 0.4-1.6 0.7-0.5 0.4-1.7-0.7-2.3-0.6-0.3-1.2-0.6-1.3-0.7-0.2-0.1-0.9-0.7-1.6-1.3-3.3-2.4-4.4-7.6-2-9.9 0.9-1 1.2-1.5 1.2-3 0-1 0.2-1.9 0.4-2.1 0.3-0.1 0.3 0.3 0.1 1.6-0.2 1.7-0.2 1.9 0.6 1.9 1 0 1.7-1.2 1.7-3 0-0.8 0.1-1.4 0.2-1.4zm-135.3 1l0.2 3.4c0 1.8 0.3 3.5 0.5 3.7 0.2 0.3 0.4 0.9 0.4 1.5 0 0.6 0.1 1.2 0.4 1.4 0.2 0.1 0.4 0.6 0.4 1 0 0.4 0.1 0.8 0.4 0.8 0.2 0 0.4 0.2 0.4 0.5 0 0.7 2.4 3.6 4.8 5.6l2.1 1.9 0.6-1.3c0.3-0.8 0.7-1.6 0.9-2 0.2-0.4 0.4-1.1 0.4-1.5 0-0.4 0.1-0.9 0.4-1 0.2-0.2 0.4-0.9 0.4-1.7 0-0.7 0.1-1.3 0.4-1.3 0.5 0 0.2 1.1-1.1 5.2-1.4 4.3-1.4 4.3-3.3 3-5.4-3.6-8.5-9.5-8.4-16zm-33.4 2.4c0.1 1.1-0.1 2.1-0.4 2.4-0.3 0.3-0.4 0.1-0.2-1 0.2-0.7 0.3-1.8 0.3-2.4 0.1-0.5 0.2-0.1 0.3 1zm72.5 1.4l-0.3 3-0.1-2.5c0-1.3 0.1-2.7 0.2-3.1q0.7-1.8 0.2 2.6zm9.9 0.2c0.1 1.4-0.1 2.5-0.4 2.8-0.3 0.3-0.4 0-0.2-1.2 0.2-0.9 0.3-2.1 0.3-2.8 0.1-0.7 0.2-0.1 0.3 1.2zm26.1 1.4l-0.3 2.2-0.1-2.2c0-1.3 0.1-2.4 0.3-2.6 0.5-0.5 0.5 0.3 0.1 2.6zm-92.8-1.6c0.2 0 0.3 0.3 0.2 0.7-0.1 0.4-0.8 2.8-1.5 5.3-0.8 2.8-1.4 4.2-1.5 3.7 0-0.6 0.1-1.2 0.3-1.4 0.3-0.3 0.5-1 0.5-1.6 0-0.6 0.2-1.2 0.4-1.3 0.2-0.1 0.4-0.8 0.4-1.4 0-0.6 0.2-1.3 0.4-1.4 0.2-0.1 0.4-0.8 0.4-1.4 0-0.7 0.2-1.2 0.4-1.2zm9.9 3.2c0.1 1.6-0.1 2.7-0.4 3-0.3 0.3-0.4 0-0.2-1.2 0.2-0.9 0.3-2.2 0.3-3 0.1-0.8 0.2-0.2 0.3 1.2zm24.8-0.4c0.1 1.3-0.1 2.3-0.4 2.6-0.3 0.3-0.4 0.1-0.2-1 0.2-0.7 0.3-1.9 0.4-2.6 0-0.6 0.1-0.2 0.2 1zm64.5-1.6c0.2 0.3 0.4 1 0.4 1.6 0 0.5-0.2 1.3-0.4 1.6-0.3 0.4-0.4 0-0.4-1.6 0-1.6 0.1-2 0.4-1.6zm-115.7 2c0.1 1-0.1 1.9-0.4 2.2-0.3 0.3-0.4 0.2-0.2-0.6 0.2-0.6 0.3-1.5 0.3-2.2q0.1-1.2 0.3 0.6zm-9.1 2.2l-0.3 2.8-0.1-2.6c0-1.5 0.1-2.8 0.2-2.9 0.5-0.5 0.5-0.1 0.2 2.7zm56.8-0.2l-0.3 1.8-0.1-1.8c0-1 0.1-2 0.3-2.2q0.7-0.7 0.1 2.2zm25-1.9c1 1-7.4 8.7-12.8 11.7-4.2 2.3-12 4-12.8 2.7-0.1-0.2 0.5-2.1 1.2-4.3 1-2.9 1.4-3.6 1.4-2.7 0 0.7-0.2 1.4-0.4 1.5-0.2 0.1-0.4 0.7-0.4 1.2 0 0.5-0.2 1.1-0.4 1.2-0.2 0.1-0.4 0.7-0.4 1.2 0 0.6-0.2 1-0.4 1-0.2 0-0.4 0.2-0.4 0.4 0 0.2 1.2 0.4 2.8 0.4 1.5 0 2.8-0.2 3-0.4 0.1-0.2 0.7-0.4 1.2-0.4 0.5 0 1-0.2 1.2-0.4 0.1-0.2 0.7-0.4 1.2-0.4 0.5 0 1-0.2 1-0.4 0-0.2 0.3-0.4 0.8-0.4 0.4 0 0.8-0.1 0.8-0.3 0-0.2 0.5-0.5 1.1-0.8 2.8-1.3 11.1-8.5 11.8-10.3 0.2-0.4 0.4-0.6 0.5-0.5zm98.5 2.5c0.8 1.5 1 4.6 0.4 4.6-1.6 0-5.2-5.1-4.6-6.6 0.6-1.5 3-0.3 4.2 2zm-88.8 0.4c0.1 1.7-0.1 2.9-0.4 3.2-0.3 0.3-0.4 0-0.2-1.2 0.2-0.9 0.3-2.3 0.4-3.2 0-0.9 0.1-0.4 0.2 1.2zm85-2c-0.3 0.8 0.5 2.5 2.2 4.1 1.6 1.6 1.7 1.6 1.7-0.3 0-0.9-0.2-1.6-0.4-1.6-0.2 0-0.4-0.2-0.4-0.5 0-0.3-0.3-0.8-0.5-1.1-0.8-1.1-2.3-1.4-2.6-0.6zm-58.9 1.8c-0.2 1-1 4.9-1.8 8.8-0.7 3.8-1.4 7.6-1.5 8.4-0.1 0.9-0.2 0.4-0.3-1.1 0-1.3 0.2-2.6 0.4-2.7 0.2-0.1 0.4-1 0.4-2 0-1 0.2-1.9 0.4-2 0.2-0.1 0.4-1 0.4-2 0-1 0.2-1.9 0.4-2 0.2-0.1 0.4-0.9 0.4-1.8 0-0.9 0.2-1.7 0.4-1.8 0.2-0.1 0.4-0.9 0.4-1.8 0-0.8 0.1-1.6 0.2-1.7 0.5-0.5 0.6 0 0.2 1.7zm42.6-1.8l0.1 1.3c0.1 1.3-0.1 2-0.5 1.6-0.1-0.1-0.1-0.8 0.1-1.5zm-100.7 2.9c0.1 0.8-0.1 1.6-0.4 1.8-0.3 0.4-0.4 0.2-0.2-0.5 0.2-0.6 0.3-1.4 0.3-1.8 0.1-0.5 0.2-0.2 0.3 0.5zm64.8 1.2c0.1 1.7-0.1 2.7-0.4 3-0.3 0.4-0.4 0.1-0.2-0.9 0.2-0.7 0.3-2.1 0.4-3 0-1 0.1-0.7 0.2 0.9zm-116-0.2c0.1 1.2-0.1 2.1-0.4 2.4-0.3 0.4-0.4 0.1-0.2-0.9 0.2-0.7 0.3-1.8 0.3-2.4 0.1-0.6 0.2-0.2 0.3 0.9zm26.4 1.8c0.1 1.9-0.1 3.1-0.4 3.4-0.3 0.4-0.4 0-0.2-1.5 0.2-1.1 0.3-2.6 0.4-3.4 0-0.8 0.1-0.1 0.2 1.5zm124.8-0.8c0.1 1.1-0.1 2-0.4 2.2-0.3 0.4-0.4 0.2-0.2-0.5 0.2-0.6 0.3-1.6 0.3-2.2q0.1-1.3 0.3 0.5zm-78.3-0.5c0.2 0.1 0.4 0.7 0.3 1.3q0 1-0.2 0.4c-0.2-1-0.3-0.9-1.9 0.6-0.8 0.8-2.1 1.9-2.9 2.5-0.8 0.6-1.9 1.5-2.3 1.9-0.4 0.3-1 0.7-1.3 0.7-0.2 0-0.5 0.1-0.6 0.3-0.1 0.1-1.4 0.9-2.9 1.6-1.6 0.7-3.1 1.5-3.5 1.7-0.4 0.2-1.2 0.4-1.7 0.4-0.5 0-1.1 0.1-1.2 0.4-0.2 0.2-2 0.4-4.1 0.4-4.1 0-4.9 0.4-4.9 2.6 0 0.3-0.2 0.6-0.4 0.6-0.2 0-0.4 0.3-0.4 0.8 0 0.4-0.2 0.8-0.4 0.8-0.2 0-0.4 0.3-0.4 0.8 0 0.4-0.2 0.8-0.4 0.8-0.2 0-0.4 0.2-0.4 0.5 0 0.7-1 2.7-1.3 2.7-0.2 0-0.3 0.3-0.3 0.8 0 0.4-0.2 0.8-0.4 0.8-0.2 0-0.4 0.3-0.6 0.7-0.2 0.7-1.5 2.9-1.8 3.3-0.2 0.1-0.7 0.8-1.2 1.6-2.6 3.6-6.3 6.4-8.5 6.3h-1.3l1.2-0.3c4.9-1.2 8.8-5.8 14.5-17.3l2.9-5.9h3.1c4.8 0 9.8-1.6 14.7-4.8 2.2-1.4 8.2-6.4 8.2-6.9 0-0.2 0.2-0.3 0.4-0.1zm-81.9 0.6c0.1 0 0.1 3.3 0.1 7.3 0 4.1-0.2 7.3-0.3 7.2-0.4-0.2-0.4-13-0.1-13.9 0.2-0.4 0.3-0.6 0.3-0.6zm91.4 3.9c0.1 1.9-0.1 3.1-0.4 3.4-0.3 0.4-0.4 0-0.2-1.5 0.2-1.1 0.3-2.6 0.4-3.4 0-0.8 0.1-0.1 0.2 1.5zm-75.7 17.3c-5.6 8.7-9.7 4.9-8.7-8.2l0.4-4.8v7.2c0.2 9.1 1.1 11 4.4 9.3 1.6-0.8 4.5-4.4 4.5-5.5 0-0.2 0.2-0.4 0.4-0.4 0.2 0 0.4-0.3 0.4-0.6 0-0.3 0.4-1.3 0.8-2.3 0.5-1 1.1-2.2 1.3-2.7 0.2-0.6 0.5-1.4 0.7-1.7 0.2-0.4 0.4-1.1 0.4-1.5 0-0.4 0.2-0.9 0.4-1 0.2-0.2 0.4-0.7 0.4-1.2 0-0.6 0.2-1.1 0.4-1.2 0.2-0.2 0.4-0.7 0.4-1.2 0-0.6 0.2-1.1 0.4-1.2 0.2-0.2 0.4-0.7 0.4-1.2 0-0.5 0.1-1 0.2-1.2 2-2-4.2 14.7-7.2 19.4zm135.5-19.6c0.1 0 0.1 3.1 0.1 6.9 0 9.3 1.3 14.1 5 17.8 8.5 8.4 22-0.3 27-17.3 1.2-4.2 0.9-3.8 2.4-3.4l1.2 0.3h-1.3c-1.2 0.1-1.3 0.2-1.3 1.4 0 0.8-0.2 1.5-0.4 1.7-0.2 0.1-0.4 0.6-0.4 1.2 0 0.5-0.2 1-0.4 1.2-0.2 0.1-0.4 0.5-0.4 0.9 0 0.9-3.2 7.3-3.7 7.3-0.2 0-0.3 0.2-0.3 0.5 0 1.4-6.1 7.3-8.8 8.5-0.8 0.4-1.7 0.8-2.1 1-1 0.5-7 0.5-7.3 0-0.2-0.3-0.6-0.4-1-0.4-0.5 0-0.8-0.2-0.8-0.4 0-0.3-0.3-0.4-0.5-0.4-1.1 0-5.1-4.8-5.1-6 0-0.3-0.2-0.8-0.4-1.2-0.2-0.5-0.6-1.2-0.8-1.6-0.2-0.5-0.4-1.4-0.4-2 0-0.7-0.2-1.3-0.4-1.4-0.3-0.2-0.4-2.8-0.4-6.5 0-3.8-0.2-6.1-0.4-6.1-0.2 0-0.4 0.2-0.4 0.5 0 0.3-0.3 0.9-0.7 1.3-0.4 0.4-1.2 1.4-1.7 2.2-0.6 0.7-1.1 1.5-1.2 1.6-0.2 0.1-0.7 0.8-1.2 1.6-0.6 0.7-1.3 1.6-1.6 2-0.4 0.3-1.1 1.2-1.6 2-0.6 0.7-1.3 1.6-1.6 2-0.4 0.3-1.4 1.6-2.4 2.8-3.6 4.3-10.3 10.4-11.6 10.4-0.2 0-0.4 0.1-0.4 0.4 0 0.2-0.4 0.4-0.8 0.4-0.4 0-0.9 0.1-1 0.4-0.2 0.2-1.5 0.4-3 0.4-2.9 0-6.4-2.3-6.4-4.1 0-0.4-0.2-0.8-0.4-0.9-0.5-0.3-0.6-10.5-0.1-10.8 0.2-0.1 0.3 1.8 0.2 4.1-0.3 6.2 0.8 9.1 4.1 10.8 5.6 2.9 15.1-5.2 29.5-24.8 1.8-2.4 3.2-4.3 3.2-4.3zm-143 2.7c0.1 1.4-0.1 2.8-0.3 3.2-0.4 0.5-0.4 0.3-0.3-0.9 0.2-0.9 0.3-2.4 0.3-3.2 0.1-1.1 0.2-0.7 0.3 0.9zm73.3 2.1l-0.3 3.8-0.1-3.3c0-1.8 0.1-3.6 0.2-3.9 0.5-1.3 0.6-0.4 0.2 3.4zm42.7-1.9c0.1 1.2-0.1 2.1-0.4 2.4-0.3 0.4-0.4 0.1-0.2-0.9 0.2-0.7 0.3-1.8 0.3-2.4 0.1-0.6 0.2-0.2 0.3 0.9zm35.2 0.8c0.1 1.5-0.1 3-0.3 3.4-0.4 0.5-0.4 0.2-0.3-1.5 0.2-1.2 0.3-2.8 0.3-3.4 0.1-0.7 0.2 0 0.3 1.5zm-133.6 3.5c-0.2 2.3-0.3 6.4-0.2 9.1 0.1 2.7 0 4.8-0.2 4.6-0.2-0.2-0.4-3.4-0.4-7.1-0.1-4.2-0.3-6.5-0.5-6-0.1 0.4-0.5 1.2-0.7 1.8-0.2 0.5-0.6 1.3-0.8 1.7-0.2 0.3-0.3 0.9-0.3 1.3 0 0.3-0.2 0.6-0.4 0.6-0.2 0-0.4 0.2-0.4 0.5 0 0.7-2.5 5.6-2.9 5.8-0.2 0.1-0.3 0.4-0.3 0.6 0 0.3-0.3 0.9-0.7 1.3-0.4 0.4-0.9 1.2-1.2 1.6-0.7 1.2-4.2 3.8-5.3 3.8-0.8 0-0.6-0.2 1-1 3.9-1.9 8.2-8.6 11.8-18.8 0.4-1.1 0.9-2.6 1.1-3.2 0.8-1.9 0.9-1 0.4 3.4zm8.8-0.3c0.1 2.1-0.1 3.8-0.3 4.2-0.4 0.5-0.4 0.2-0.3-1.5 0.2-1.2 0.3-3.1 0.4-4.2 0-1.1 0.1-0.5 0.2 1.5zm154.8-2.5c1.6 0 2.4 0.1 2.3 0.4-0.3 0.5-3.4 0.5-4.2 0-0.4-0.3 0.1-0.4 1.9-0.4zm-66 2.9c0.1 0.9-0.1 1.8-0.4 2-0.3 0.4-0.4 0.2-0.2-0.5 0.2-0.6 0.3-1.5 0.3-2 0.1-0.6 0.2-0.4 0.3 0.5zm-32.8 2c0.1 2.1-0.1 3.3-0.4 3.6-0.3 0.4-0.4 0-0.2-1.5 0.2-1.1 0.3-2.7 0.4-3.6 0-0.9 0.1-0.2 0.2 1.5zm68 1c0.1 1.1 0.1 3 0 4.2-0.1 1.1-0.2 0.2-0.2-2.1 0-2.3 0.1-3.3 0.2-2.1zm-77.9 4.5l-0.3 5.8-0.1-5.3c0-2.9 0.1-5.6 0.2-5.9 0.5-1.2 0.5-0.4 0.2 5.4zm41.9-3.5c0.1 0.9-0.1 1.8-0.4 2-0.3 0.4-0.4 0.2-0.2-0.5 0.2-0.6 0.3-1.5 0.3-2 0.1-0.6 0.2-0.4 0.3 0.5zm56.5-1.3c0.6 0 0.5 0.1-1.1 3.3-5.2 10.4-13.5 15.6-17.4 10.9-1-1.2-2.4-7-1.6-6.5 0.3 0.2 0.5 1 0.5 1.9 0 0.8 0.2 1.6 0.4 1.8 0.2 0.1 0.4 0.6 0.4 1 0 2.6 4.2 3.6 7.6 1.9 2.8-1.5 8.4-7.5 8.4-9.1 0-0.2 0.1-0.4 0.3-0.5 0.4-0.2 2.1-3.5 2.1-4.2 0-0.3 0.2-0.5 0.4-0.5zm-145.3 5.6c0 1.7 0 4.6 0 6.4-0.1 1.9-0.2 0.5-0.2-3 0-3.6 0.1-5.1 0.2-3.4zm-33.3-1c1.2 6 1.9 7.7 3.8 9.9 0.7 0.8 1.8 1.6 2.5 1.8 1.3 0.4 1.3 0.4 0.2 0.4-2 0.1-5.9-4.8-5.9-7.4 0-0.5-0.2-1-0.4-1.1-0.2-0.2-0.4-1.2-0.4-2.4 0-1.1 0.1-1.7 0.2-1.2zm121.3 1.1c0.1 1.2-0.1 2.1-0.4 2.4-0.3 0.4-0.4 0.2-0.2-0.5 0.2-0.6 0.3-1.7 0.3-2.4 0.1-1.1 0.2-1 0.3 0.5zm-95.6 6.7c0.9 5.4 3.8 9.5 7.5 10.4l1.2 0.3h-1.1c-2.6 0.1-7.1-4.4-7.1-7.1 0-0.4-0.2-0.9-0.4-1-0.2-0.2-0.4-1-0.4-2 0.1-1 0.1-1.3 0.3-0.6zm8.1 3.8c0.2 0.1 0.4 0.7 0.4 1.3 0 0.6 0.3 1.5 0.8 2 1 1.1 1 1.6 0 0.7-0.7-0.7-1.6-2.9-1.6-4 0-0.1 0.2-0.2 0.4 0zm72.3 7.3c0.1 0.5 0 1.1-0.2 1.2-0.2 0.2-1.1 1.3-2.1 2.5-1 1.2-2.2 2.6-2.7 3.1-1.2 1.2-3.1 3.7-2.9 3.8 0.9 0.6 5.4 2.7 5.8 2.7 0.3 0 0.6 0.1 0.6 0.4 0.2 0.4 2.4-0.4 2.4-0.9 0-0.2 0.3-0.3 0.8-0.3 0.4 0 0.8-0.2 0.8-0.4 0-0.3 0.3-0.4 0.8-0.4 0.4 0 0.8-0.2 0.8-0.4 0-0.3 0.2-0.4 0.5-0.4 0.3 0 1.4-0.4 2.3-0.9 1-0.5 2.2-1 2.8-1.2 0.5-0.3 1.3-0.6 1.7-0.8 0.4-0.2 0.9-0.3 1.3-0.3 0.3 0 0.9-0.2 1.4-0.4 0.4-0.3 1.1-0.6 1.6-0.8 0.4-0.3 1.2-0.4 1.7-0.4 0.6 0 1.1-0.2 1.3-0.4 0.1-0.3 0.7-0.4 1.4-0.4 0.6 0 1.2-0.2 1.4-0.4 0.1-0.3 0.9-0.4 1.7-0.4 1.2 0 1 0.1-1.5 0.8-5.9 1.6-11.5 3.7-17.1 6.4l-5.7 2.7-3.8-1.8c-4.5-2-4.4-1.9-1.9-4.6 4-4.4 6.5-7.6 6.4-8.1-0.5-1.3-2-0.2-6 4.4-5.2 6-4.5 5.6-7.6 4.2-4.4-2-10.4-4.1-14.7-5.3-3.1-0.8-3.8-1.1-2.7-1.1 0.8 0 1.5 0.1 1.7 0.4 0.1 0.2 0.8 0.4 1.6 0.4 0.7 0 1.4 0.1 1.6 0.4 0.1 0.2 0.7 0.4 1.2 0.4 0.5 0 1 0.1 1.2 0.4 0.1 0.2 0.7 0.4 1.2 0.4 0.5 0 1 0.1 1.2 0.4 0.1 0.2 0.6 0.4 1 0.4 0.4 0 1.4 0.3 2.2 0.8 0.8 0.4 1.7 0.8 2 0.8 0.3 0 1.2 0.3 2 0.8 0.8 0.4 1.6 0.8 2 0.8 0.3 0 0.6 0.2 0.7 0.5 0.2 0.5 0.2 0.5 3.5-3.3 1.2-1.5 2.7-3.2 3.3-3.8 0.7-0.7 1.4-1.7 1.8-2.2 0.8-1.3 3-1.1 3.2 0.3zm-44.3 0.5c2.7 0 4.8 0.1 5 0.4 0.1 0.2-1.6 0.4-5 0.4-3.4 0-5.2-0.2-5-0.4 0.1-0.3 2.2-0.4 5-0.4zm-8.1 0.8c2.8 0 2.6 0.2-0.4 0.5-1.4 0.1-2.2 0.1-2.1-0.2 0.1-0.2 1.2-0.3 2.5-0.3zm16.6 0c1.2 0 2.3 0.1 2.5 0.4 0.2 0.3-4.1 0.1-4.6-0.3-0.1-0.1 0.9-0.1 2.1-0.1zm-21 0.8c1.2 0 1 0.1-1.5 0.8-7 1.9-13.2 6-15.1 10.2-0.7 1.4-0.9 1.7-0.9 1 0-1.6 4.5-7.2 5.8-7.2 0.3 0 0.6-0.2 0.6-0.3 0.2-0.5 3.5-2.1 4.2-2.1 0.3 0 0.6-0.2 0.6-0.4 0-0.3 0.3-0.4 0.8-0.4 0.4 0 0.8-0.2 1-0.4 0.1-0.3 0.7-0.4 1.4-0.4 0.6 0 1.2-0.2 1.4-0.4 0.1-0.3 0.9-0.4 1.7-0.4zm100.1 0c3.9 0 7.2 0.1 7.3 0.3 0.1 0.1-3.2 0.3-7.3 0.3-4.2 0-7.5-0.2-7.4-0.3 0.1-0.2 3.4-0.3 7.4-0.3zm-11.3 0.8c3.3 0 3.1 0.2-0.4 0.5-1.7 0.1-2.7 0.1-2.5-0.2 0.1-0.2 1.4-0.3 2.9-0.3zm21.6 0c1.1 0 2.1 0.1 2.3 0.3 0.2 0.4-3.8 0.2-4.2-0.2-0.1-0.1 0.8-0.1 1.9-0.1zm-97.9 0.5c2.7 0 3.8 0.1 2.5 0.2-1.4 0-3.7 0-5 0-1.4-0.1-0.3-0.2 2.5-0.2zm-6.2 0.7c-0.2 0.2-1.2 0.3-2.3 0.3-2 0-2-0.1-0.7-0.3 2.1-0.5 3.3-0.5 3 0zm14.6-0.2c2.8 0.4 3 0.6 0.5 0.6-1.2 0-2.2-0.2-2.3-0.5q-0.3-0.4 1.8-0.1zm62.9-0.2c2 0 1.8 0.2-0.5 0.5q-1.7 0.3-1.4-0.1c0.1-0.3 1-0.4 1.9-0.4zm30.4 0c0.6 0 1.4 0.1 1.8 0.3 0.4 0.2 1.2 0.6 1.9 0.9 2.9 1.2 4.2 2 6 3.8 2.1 1.9 3.4 4.2 3.3 5.7v1.1l-0.3-1.2c-1-4.2-5.3-7.8-11.6-9.9-1.7-0.5-1.9-0.7-1.1-0.7zm-112.7 1.2c-0.2 0.2-0.9 0.4-1.6 0.4-0.8 0-1.5 0.1-1.6 0.4-0.2 0.2-0.6 0.4-0.9 0.4-2.7-0.1-11.7 6.4-11.7 8.4 0 0.4-0.2 0.8-0.4 1-0.2 0.1-0.4 1-0.4 2 0 0.9 0.2 1.8 0.4 2 0.2 0.1 0.4 0.6 0.4 1 0 0.4 0.1 0.8 0.3 0.8 0.1 0 0.7 0.6 1.2 1.5 0.5 0.8 1.6 1.9 2.4 2.5 2.2 1.5 4.2 2.8 4.9 3 0.3 0.1 0.9 0.4 1.3 0.6 0.4 0.2 1 0.4 1.4 0.4 0.5 0 0.9 0.1 1.1 0.4 1 1.6-7.1-2.3-9.7-4.6-8.3-7.4-2.9-17 11.3-20.4 1.4-0.3 1.8-0.2 1.6 0.2zm23.6-0.2q3.1 0.6 0.5 0.6c-0.8 0-1.6-0.2-1.7-0.5q-0.3-0.4 1.2-0.1zm75 0.3c4.3 0 6 0.1 3.9 0.2-2.2 0-5.7 0-7.8 0-2.2-0.1-0.4-0.2 3.9-0.2zm-68.6 1.5c4.3 1.4 11.4 4.2 12 4.8 1 1.1-10.7 10.8-17.1 14.1-4.8 2.6-13.3 5.5-12.6 4.3 0.2-0.2 0.9-0.4 1.7-0.4 0.7 0 1.4-0.2 1.6-0.4 0.1-0.3 0.6-0.4 1-0.4 0.4 0 1.1-0.2 1.5-0.4 0.4-0.2 1.1-0.5 1.7-0.7 2.1-0.9 6.6-3.1 6.7-3.4 0.1-0.2 0.4-0.3 0.6-0.3 0.3 0 1.1-0.6 1.9-1.2 0.8-0.7 1.6-1.2 1.8-1.2 0.3 0 0.6-0.2 0.6-0.4 0.1-0.1 1-0.9 2-1.7 4.9-3.8 8.7-8.3 7-8.3-0.4 0-0.9-0.2-1.3-0.4-0.7-0.4-2.4-1-4.1-1.7-0.6-0.3-1.3-0.6-1.7-0.8-0.4-0.2-1.1-0.3-1.5-0.3-0.4 0-0.9-0.2-1-0.4-0.2-0.3-0.7-0.4-1.2-0.4-0.5 0-1.1-0.2-1.2-0.4-0.2-0.3-0.7-0.4-1.2-0.4-0.5 0-1.1-0.2-1.2-0.4-0.4-0.6-0.3-0.6 4 0.8zm59.6-0.8c-0.2 0.2-1.4 0.3-2.7 0.3-2.5-0.1-2.5-0.1-0.7-0.3 2.8-0.5 3.6-0.5 3.4 0zm20-0.1l1.6 0.4h-2.1c-1.1 0-2.2-0.1-2.3-0.3-0.3-0.5 0.6-0.5 2.8-0.1zm-25.6 0.9c-0.2 0.2-1 0.3-1.9 0.3h-1.7l1.4-0.3c2.1-0.5 2.4-0.5 2.2 0zm36.2 3.6c1.8 1.4 4.4 6.4 2.8 5.4-0.2-0.2-0.4-0.6-0.4-1.1 0-1.4-3.3-4.7-6-6-1-0.4-2.1-1-2.5-1.2-0.4-0.2-1.1-0.3-1.5-0.3-0.4 0-0.9-0.2-1-0.5-0.8-1.2 6.2 1.7 8.6 3.7zm-40.3-3.2c0.2 0 0.2 0.1 0.1 0.4-0.2 0.2-0.9 0.4-1.6 0.4-0.8 0-1.5 0.1-1.6 0.4-0.2 0.2-0.8 0.4-1.4 0.4-0.7 0-1.3 0.1-1.4 0.4-0.2 0.2-0.6 0.4-1.1 0.4-0.4 0-1.1 0.2-1.6 0.4-1.9 1-2.3 1.2-2.9 1.2-0.4 0-1 0.1-1.4 0.4-0.5 0.2-1.2 0.5-1.6 0.8-0.5 0.2-1.1 0.4-1.4 0.4-0.4 0-0.6 0.1-0.6 0.4 0 0.2-0.4 0.4-0.8 0.4-0.5 0-0.8 0.1-0.8 0.4 0 0.2-0.3 0.4-0.6 0.4-0.5 0-3 1.1-3 1.3 0 0.2 5.1 2.6 6.2 3.1 0.4 0.1 1.6 0.6 2.5 1.1 1 0.5 2 0.9 2.3 0.9 0.3 0 0.9 0.1 1.4 0.4 0.4 0.2 1.1 0.5 1.6 0.8 0.4 0.2 1.1 0.4 1.5 0.4 0.5 0 0.9 0.1 1.1 0.4 0.1 0.2 0.7 0.4 1.2 0.4 0.5 0 1 0.1 1.2 0.4 0.1 0.2 0.7 0.4 1.4 0.4 0.6 0 1.2 0.1 1.4 0.4 0.1 0.2 0.8 0.4 1.6 0.4 0.7 0 1.4 0.1 1.6 0.4 0.1 0.2 0.9 0.4 1.8 0.4 0.8 0 1.6 0.2 1.8 0.4 1.2 2-20.1-5.1-28.8-9.5l-1.2-0.6 3.1-1.6c5.4-2.7 15-6.2 18.7-6.9 0.5-0.1 1.1-0.2 1.3-0.2zm-35.2 5.6c0.4 0 7.1 3.1 7.1 3.3 0 0.1-1.2 0.9-2.7 1.9-9.1 5.9-19.9 18.4-17.5 20.4 0.8 0.7 1.5-0.1 4.2-4.5 3.3-5.6 15.7-16.3 18.7-16.3 0.4 0 2.4 0.7 4.3 1.6 7.5 3.5 15.2 6.3 21.6 8 2.4 0.6 2.6 0.7 1.3 0.7-0.8 0-1.6-0.1-1.7-0.3-0.2-0.3-0.8-0.4-1.4-0.4-0.7 0-1.3-0.2-1.4-0.4-0.2-0.3-0.8-0.4-1.4-0.4-0.7 0-1.3-0.2-1.4-0.4-0.2-0.3-0.6-0.4-1.1-0.4-0.4 0-1.1-0.2-1.5-0.4-0.5-0.3-1.2-0.6-1.6-0.8-0.5-0.3-1.2-0.4-1.6-0.4-0.4 0-0.9-0.2-1-0.4-0.2-0.3-0.6-0.4-1-0.4-0.5 0-0.8-0.2-0.8-0.4 0-0.3-0.4-0.4-0.8-0.4-0.4 0-1.4-0.4-2.2-0.8-0.8-0.5-1.7-0.8-2-0.8-0.4 0-0.6-0.2-0.6-0.4 0-0.3-0.3-0.4-0.6-0.4-0.4 0-0.9-0.2-1.3-0.4-3.7-2-3.9-1.9-8.1 0.9-1.6 1.1-3.2 2.2-3.6 2.5-1.2 0.7-8.7 8.4-9.2 9.5-0.3 0.6-0.7 1.1-0.9 1.1-0.2 0-0.3 0.2-0.3 0.5 0 0.3-0.4 0.9-0.8 1.4-0.5 0.4-0.8 0.9-0.8 1.1 0 1.8-2.9 3.1-3.7 1.7-0.5-0.6 0.3-3.1 1-3.1 0.1 0 0.3-0.2 0.3-0.5 0-2.2 13.2-16.3 15.4-16.3 0.1 0 0.6-0.4 1.1-0.8 0.4-0.5 1.1-0.8 1.3-0.8 0.3 0 0.6-0.1 0.6-0.3 0-0.4-1.1-1.3-1.6-1.3-0.2 0-1-0.4-1.8-0.8-2.1-1.2-2.4-1.1-5.6 2.1-1.6 1.6-3.6 3.5-4.5 4.1-0.8 0.6-1.8 1.4-2.1 1.8-0.9 0.9-6.7 4.8-7.2 4.8-0.2 0-0.4 0.1-0.4 0.4 0 0.2-0.4 0.4-0.8 0.4-0.5 0-0.8 0.1-0.8 0.4 0 0.2-0.4 0.4-0.8 0.4-0.5 0-0.8 0.1-0.8 0.4 0 0.2-0.3 0.4-0.6 0.4-0.4 0-0.9 0.1-1.3 0.3-0.4 0.2-1.3 0.6-1.9 0.9-0.7 0.2-1.5 0.6-1.9 0.8-0.4 0.2-1.2 0.4-1.7 0.4-0.5 0-1.1 0.1-1.2 0.4-0.2 0.2-0.9 0.4-1.7 0.3-1.3 0-1.1-0.1 1.4-0.8 9.4-2.5 16.5-6.8 25.5-15.6 2-1.9 3.8-3.5 3.9-3.5zm-63.7 5.5c0.6 5.9 5.8 11.2 13.6 13.7 1.6 0.5 1.9 0.7 1.1 0.7-1.1 0.1-1.4-0.1-3.4-1.1-0.5-0.2-1.1-0.4-1.3-0.4-2.6 0-10-7.8-10-10.5 0-0.4-0.2-0.8-0.4-0.9-0.5-0.3-0.6-3.6-0.1-4 0.1-0.2 0.4 1 0.5 2.5zm140.3 3.1c-2.5 2.8-13.5 7.7-12.1 5.3 0.1-0.2 0.8-0.3 1.6-0.3 0.7 0 1.4-0.2 1.6-0.4 0.1-0.3 0.5-0.4 0.9-0.4 2.9 0 9.3-5.2 9.3-7.5 0-0.5 0.1-0.9 0.2-1.1 1.4-1.4 0 2.7-1.6 4.4zm4.5-3.3c0.1 1.1-0.7 3.5-1.2 3.5-0.2 0-0.3 0.2-0.3 0.5 0 0.5-1.1 1.6-3.5 3.5-0.4 0.3-1.6 1-2.7 1.5-1.1 0.5-2.3 1.1-2.7 1.3-0.4 0.2-1.2 0.4-1.7 0.4-0.5 0-1.1 0.1-1.2 0.4-0.2 0.2-1 0.3-1.9 0.3-1.1 0-1.3-0.1-0.7-0.2 7.6-1.3 14.7-6.2 15.5-10.7 0.2-1.4 0.3-1.5 0.4-0.5zm-36.4 8.3c1.1 0 2.1 0.2 2.3 0.4 0.2 0.4-3.7 0.1-4.2-0.3-0.1-0.1 0.8-0.1 1.9-0.1zm11.1 0.9c6.9 0 7.5 0 4.3 0.3-2.1 0.2-5.7 0.2-8 0-4-0.3-3.7-0.3 3.7-0.3zm-15.5 0.9c2 0.4 2.1 0.6 0.4 0.6-0.8 0-1.6-0.2-1.7-0.4-0.1-0.2 0.4-0.3 1.3-0.2zm4.6 0.8c2.7 0.3 2.9 0.6 0.4 0.6-1.2 0-2.2-0.2-2.3-0.4-0.2-0.3 0.6-0.3 1.9-0.2zm11.1 0.8c4.1 0 7.4 0.1 7.3 0.3-0.1 0.1-3.4 0.3-7.3 0.3-4 0-7.3-0.2-7.4-0.3-0.1-0.2 3.2-0.3 7.4-0.3zm-103.4 0.7l2.1-0.1c1.1 0 2.1 0.1 2.3 0.4 0.3 0.4-0.6 0.4-2.8 0zm12.3-0.1l2.5 0.1-1.8 0.3q-3.9 0.7-3.4 0c0.1-0.2 1.3-0.4 2.7-0.4zm-10.2 2.7c3 0.3 3.2 0.5 0.4 0.5-1.3 0-2.4-0.2-2.5-0.4-0.1-0.2 0.7-0.3 2.1-0.1zm12.7 0.1c-0.2 0.2-1.4 0.4-2.7 0.3h-2.5l2-0.3c3.1-0.4 3.4-0.4 3.2 0zm-52.5 74.1l2.9 0.1-5.8 0.2v5.2c0 4.9 0 5.2 0.8 5.2 0.6 0 0.8-0.3 0.9-2.3l0.1-2.3 1.4-0.1c1.3 0 1.3 0 0.1 0.2-1.3 0.1-1.3 0.2-1.4 2.4-0.1 2.1-0.2 2.3-1.1 2.3h-1l-0.1-5c-0.1-2.7-0.1-5.2 0-5.5 0.2-0.4 1.1-0.5 3.2-0.4zm16.5-0.1c1.2 0 1.4 1.2 1.3 6l-0.2 5v-5.1c-0.1-4.3-0.2-5.1-0.8-5.5-0.4-0.2-0.5-0.4-0.3-0.4zm15.5 0c0.2 0 0.1 0.2-0.3 0.5-0.6 0.5-0.7 1.1-0.6 5.4 0.1 2.7 0 4.9-0.1 4.9-0.5 0-0.4-9.8 0.2-10.3 0.2-0.3 0.6-0.5 0.8-0.5zm23.3 0.1h2l-4.4 0.5-0.2 5.2-0.3 5.2v-5c-0.1-3.5 0-5.2 0.4-5.5 0.2-0.3 1.3-0.5 2.5-0.4zm19.4-0.1c0.8 0 1.8 1.1 1.4 1.5-0.1 0.1-0.2 0-0.2-0.3 0-0.2-0.4-0.6-0.9-0.8q-0.9-0.4-0.3-0.4zm25.5 0c0.6 0.1 0.6 0.1 0 0.3-1.2 0.3-1.1 10.5 0.1 10.5 0.6 0 0.8-0.3 0.9-2.3l0.1-2.3h4v4.6l-0.3-4.4h-3.5l-0.1 2.3c-0.1 2.1-0.2 2.3-1.1 2.3h-1l-0.1-5c-0.1-2.7-0.1-5.2 0-5.5 0.2-0.3 0.6-0.5 1-0.5zm6.2 0c0.2 0 0.1 0.2-0.2 0.5-0.5 0.3-0.7 1.2-0.8 2.5l-0.1 2h-4l-0.1-4.4 0.3 4.2h3.6v-1.9c0-1.1 0.2-2.2 0.5-2.4 0.2-0.3 0.6-0.5 0.8-0.5zm17.3 0.1l1.8-0.1c1.1 0 2.1 0.2 2.6 0.6 0.4 0.4 0.5 0.5 0.2 0.3-0.4-0.1-1.5-0.4-2.6-0.5zm22.5 1.4c-0.5 0.9-0.9 1.6-1 1.6-0.2 0 0.7-2.1 1.1-2.6 0.8-0.9 0.7-0.6-0.1 1zm20.7-1.4c1.3 0 1.9 0 1.3 0.1-0.6 0.1-1.7 0.1-2.4 0-0.7-0.1-0.2-0.1 1.1-0.1zm18.8 0h3c2.7 0 3 0.1 3 0.8 0 0.7-0.3 0.8-2 0.8h-2l-0.1 1.5c-0.2 1.5-0.1 1.5 1.3 1.6 0.9 0.1 1.6 0.4 1.7 0.7q0.1 0.7-0.2 0.2c-0.2-0.3-1-0.6-1.7-0.6-1.5-0.2-1.9-1-1.4-3 0.2-1 0.3-1 2.2-0.8 1.6 0.2 2 0.2 2-0.3 0-0.5-0.7-0.7-2.9-0.8zm-182.4 0.3c0.1 0 0.2 0.4 0.2 0.8 0 0.8-0.2 0.8-2.2 0.6l-2.2-0.3v1.6c0 1.6 0 1.7 1.3 1.8 1.3 0.2 1.3 0.2-0.1 0.1-1.4 0-1.4 0-1.4-1.8v-1.8l2.1 0.1c1.6 0 2.1-0.1 2.1-0.5 0-0.3 0.1-0.6 0.2-0.6zm31.8 2.8c0.9 1.2 2 2.4 2.3 2.7 0.3 0.3 0.5 0.6 0.4 0.7-0.2 0.2-4.2-4.5-4.9-5.8-0.5-0.9 0.1-0.2 2.2 2.4zm3.6-2.8c0.8 0 1.3 10 0.5 10.5-0.2 0.1-0.3-2.1-0.2-4.9 0.1-4.7-0.2-6.4-0.9-4.7-0.1 0.3-0.2 0.2-0.2-0.2 0-0.5 0.3-0.7 0.8-0.7zm19.6 0.2c1.1 0.3 2.7 1.6 3.2 2.8 0.3 0.4 0 0.2-0.6-0.5-0.6-0.7-1.7-1.6-2.4-1.9-0.9-0.5-1-0.5-0.2-0.4zm105.7 0.2l0.3 9.3c-0.2-0.9-0.2-2.3-0.2-4.2zm0.4 10l0.8-0.1q1-0.2 0.7 0.2c-0.7 0.7-1.2 0.7-1.5-0.1zm-0.2 0.1v-0.8q0.1 0.4 0.2 0.7zm-106.8-9.3c0 0.2-0.6 0.2-1.2 0.1l-1.2-0.1v8.1h1.3c1 0 1.6-0.3 2.2-1.1 0.5-0.6 0.9-0.9 0.9-0.7 0 0.9-1.9 2.2-3.3 2.2h-1.5v-4.2c0-2.3 0.1-4.2 0.2-4.4 0.4-0.4 2.6-0.3 2.6 0.1zm68.9 0c0.1 0.1-0.4 0.3-1.1 0.3-0.9 0-1.4 0.3-2.1 1.3-0.5 0.8-0.9 1.2-0.9 0.9 0-0.2 0.4-0.9 1-1.6 1-1.2 2.7-1.7 3.1-0.9zm42.3 0.4c0.5 0.6 0.5 0.6-0.1 0.1-0.4-0.3-1.1-0.4-1.5-0.3-0.5 0.1-0.7 0-0.6-0.2 0.4-0.6 1.6-0.4 2.2 0.4zm-89.5 0.2c0.3 0.6 0.3 3.4 0 3.6-0.2 0.1-0.3-0.8-0.3-1.9 0-1.2 0.1-2 0.3-1.7zm28.4-0.7l0.2 4.3c0.1 4.5-0.2 5.5-1.5 5.4q-0.6 0 0.3-0.4c0.8-0.3 0.9-0.6 0.9-4.8zm-49.9 0.4l0.9 0.8c0.7 0.6 1 1.4 1.1 2.8l0.1 2-0.3-2c-0.2-1-0.7-2.3-1.1-2.8zm28.8 0.2c0.2 0-0.3 1.7-0.9 3.2-0.3 0.7-0.5 0.8-0.5 0.3 0-0.4 0.2-1 0.4-1.4 0.2-0.4 0.4-1 0.5-1.4 0.2-0.4 0.3-0.7 0.5-0.7zm-11.6 2c0.3 0.7 0.6 1.5 0.6 1.8 0 0.2-0.3-0.2-0.6-0.9-0.3-0.8-0.6-1.6-0.6-1.8 0-0.3 0.3 0.1 0.6 0.9zm53.1-0.8c0.2 0.2 0.3 0.8 0.2 1.3-0.1 0.8-0.2 0.7-0.4-0.4-0.1-0.8 0-1.2 0.2-0.9zm41.4-0.1c0.3 1.1-0.7 2.1-2 2.1l-1.3-0.1 1.3-0.2c1-0.1 1.3-0.4 1.6-1.2 0.1-0.6 0.3-0.9 0.4-0.6zm-135.3 2.4l1.5 1.9-1.5-1.5-1.4-1.6-0.2 6.3-0.1-3.5c-0.1-4.1-0.2-4 1.7-1.6zm85.9-2.1l0.3 2.7c0.1 1.8 0.4 3 1 3.6 0.4 0.5 0.3 0.5-0.3-0.2-1-1-1.1-1.4-1-3.6zm24.9 0.3c0.2 0.3-0.9 3.1-1.3 3.1-0.1 0 0.1-0.6 0.4-1.4 0.4-0.8 0.6-1.6 0.6-1.7 0-0.1 0.1-0.1 0.3 0zm-82.8 1.2c0.1 0.4 0.1 1.1 0 1.6-0.1 0.5-0.2 0.2-0.2-0.7 0-0.9 0.1-1.3 0.2-0.9zm108.3 0.6c-0.6 0.7-1.3 1.1-1.4 1-0.1-0.1 0.4-0.6 1-1.1 1.7-1.3 1.9-1.2 0.4 0.1zm-24.9 0.5c-0.2 0.9 1.7 1.2 2.1 0.3 0.1-0.3 0.2-0.1 0.2 0.4 0 0.8-0.2 0.9-1.2 0.9-1.2 0-1.8-0.7-1.4-1.8 0.3-0.9 0.6-0.7 0.3 0.2zm-63.8 3.7c-0.1 0.3-0.4-0.3-0.7-1.2-0.6-2.1-0.9-2.1-1.6-0.1-0.3 0.9-0.6 1.6-0.7 1.5-0.2-0.3 0.9-3.2 1.3-3.6 0.4-0.3 2 2.8 1.7 3.4zm107-3.6l1.3 0.1-1.3 0.1c-2 0.3-2 3.2 0.1 3.4l1.4 0.2h-1.5c-1.5-0.1-2.2-1.5-1.5-3.3 0.1-0.4 0.7-0.6 1.5-0.5zm-110.1 1.2c0 0.6-0.1 0.8-0.4 0.4-0.3-0.2-0.3-0.6-0.2-0.8q0.6-1 0.6 0.4zm4.4-0.7c0.2 0.2 0.4 0.5 0.4 0.9 0 0.3-0.2 0.5-0.4 0.3-0.2-0.1-0.4-0.5-0.4-0.8 0-0.4 0.2-0.5 0.4-0.4zm-47.4 1c0.1 0 0.7 0.7 1.4 1.6 0.7 0.9 1.2 1.6 1.1 1.6-0.1 0-0.8-0.7-1.5-1.6-0.7-0.9-1.1-1.6-1-1.6zm115.6 1.4c1.1 1.9-0.5 3.3-1.8 1.5-0.5-0.6-0.5-0.6 0-0.2 0.3 0.3 0.9 0.5 1.4 0.5 0.7 0 0.7-0.2 0-2.2-0.1-0.4 0.1-0.3 0.4 0.4zm-28.1-0.1c0.2 0.4 0.7 0.7 1 0.8q0.7 0 0.2 0.2c-0.6 0.2-1.7-0.6-1.7-1.2 0-0.3 0.2-0.2 0.5 0.2zm4.2 0.3c-0.2 0.5-0.7 0.8-1 0.8-0.3 0-0.2-0.3 0.4-0.8 1.2-1 1.2-1 0.6 0zm15.3 0.4c-0.3 0.7-0.5 1.2-0.6 1.1-0.1-0.1 0-0.6 0.2-1.2 0.6-1.5 0.9-1.3 0.4 0.1zm-12.8-0.8c0.4 0-1 1.3-1.7 1.7-0.5 0.2-0.4 0 0.3-0.6 0.7-0.6 1.3-1.1 1.4-1.1zm-52.7 1.2c0.2 0.6 0.5 0.8 1 0.6 0.6-0.2 0.6-0.1 0.2 0.3-0.6 0.6-1.7-0.2-1.6-1.2q0-0.7 0.4 0.3zm94.8-0.4c1 0.7 0.9 1.1-0.2 1.6-0.8 0.4-0.8 0.4-0.1-0.1 0.6-0.6 0.7-0.7 0.2-1.4-0.5-0.6-0.5-0.6 0.1-0.1zm16.5 1c1.9 0 3.3 0.2 3.2 0.3-0.1 0.2-1.5 0.3-3.2 0.3-1.6 0-3-0.1-3.1-0.3-0.1-0.1 1.3-0.3 3.1-0.3zm-132.8 0.4c1.6 0 2.1 0 1.3 0.1-0.8 0.1-2.1 0.1-2.8 0-0.7-0.1 0-0.1 1.5-0.1zm69.2-0.1c2.1 0 2.2 0.1 1.1 0.3-0.7 0.2-1.8 0.2-2.4 0-0.8-0.2-0.5-0.3 1.3-0.3zm-54.6 10.3c0.5 0.3 0.3 0.4-0.5 0.2-0.9-0.2-1.1-0.1-1.1 0.4 0 0.4-0.1 0.6-0.2 0.5-0.2-0.1-0.2-0.5 0-0.9 0.2-0.7 1-0.7 1.8-0.2zm23.6-0.3h1.8l-2 0.3c-2.5 0.3-3.6 0.9-4.6 2.5-0.4 0.7-0.8 1.1-0.8 0.9 0-0.7 1.3-2.2 2.6-3 0.8-0.5 1.9-0.8 3-0.7zm18.4 0c0.5 0 0.5 0.1-0.1 0.2-1 0.3-1 8.2 0 9.7l0.6 1-0.8-0.9c-0.9-1-1.3-9.1-0.6-9.8 0.1-0.2 0.5-0.3 0.9-0.2zm-36.9 0.5c0.2 0.1-1.1 2.6-1.3 2.6-0.2 0-0.2 0 0.6-1.7 0.3-0.6 0.6-1 0.7-0.9zm21.2 0.2c1.1 0.5 2.4 2.3 2 2.7-0.2 0.1-0.3 0-0.3-0.2 0-0.3-0.6-1.1-1.3-1.8-0.9-0.8-1-1.1-0.4-0.7zm22.4-0.3c0.6 0.1 0.7 0.6 0.7 3.9l0.1 3.8-0.2-3.7c-0.1-4.6-0.9-4.9-0.9-0.4 0 1.8-0.2 3.6-0.4 3.9-0.3 0.5-0.4 0.4-0.2-0.4 0.1-0.5 0.2-2.4 0.2-4.1 0-2.8 0.1-3.1 0.7-3zm-42.4 0.5c0.1 0.1-0.1 0.7-0.4 1.3-0.7 1.3-0.9 1-0.2-0.5 0.2-0.5 0.5-0.9 0.6-0.8zm36.8 1.5c0.1 1 0.1 2.8 0 4-0.1 1.2-0.1 0.3-0.1-1.9 0-2.2 0-3.1 0.1-2.1zm-18-0.3c0.5 0.4 0.9 1 0.9 1.4 0 0.5-0.1 0.5-0.3 0-0.1-0.3-0.5-0.9-0.8-1.4-0.7-0.8-0.7-0.8 0.2 0zm-23.2 1.6c0.6 1.1 0.7 1.1 1.2 0.4 0.4-0.6 0.5-0.6 0.5-0.1 0 1.4-1.1 1.6-1.7 0.4-0.4-0.7-0.7-1.4-0.7-1.6 0.1-0.1 0.3 0.3 0.7 0.9zm26.8 0.7c0.1 0.4 0.1 1.1 0 1.6-0.1 0.5-0.2 0.2-0.2-0.7 0-0.9 0.1-1.3 0.2-0.9zm-10.8 0.6c0.1 0.5 0.1 1.3 0 1.8-0.1 0.5-0.2 0.1-0.2-0.9 0-1 0.1-1.4 0.2-0.9zm2.4-0.2c0.1 0.4 0.1 1.1 0 1.6-0.1 0.5-0.2 0.2-0.2-0.7 0-0.9 0.1-1.3 0.2-0.9zm6 0c0.1 0.4 0.1 1 0 1.4-0.1 0.4-0.2 0.1-0.2-0.7 0-0.7 0.1-1.1 0.2-0.7zm-22.8 3c0.1 0.5 0.1 1.4 0 2-0.1 0.6-0.2 0.2-0.2-0.9 0-1.1 0.1-1.6 0.2-1.1zm24.8-0.7c0.4 0 0 0.9-0.7 1.7l-0.8 0.9 0.7-1.3c0.4-0.7 0.8-1.3 0.8-1.3zm-7.5 1.1c0.2 0.5 0.7 1 1.1 1.3 0.4 0.2 0.6 0.4 0.4 0.4-0.7 0-1.9-1.3-1.8-1.9q0-0.7 0.3 0.2zm22.8 0.8c0.3 0.3 1.1 0.5 1.8 0.5 0.7 0 1.5-0.2 1.8-0.5 0.5-0.4 0.5-0.4 0.1 0.2-0.4 0.4-1.1 0.7-1.9 0.7-0.7 0-1.5-0.3-1.8-0.7-0.5-0.6-0.5-0.6 0-0.2zm-25 0.4l1.1 0.7c1.3 0.7 4.8 0.8 6.1 0.2 0.6-0.4 0.7-0.4 0.4 0-1.2 1.3-5 1.3-6.6-0.1zm27.5 1.3c1.5 0 1.4 0.2-0.4 0.6-0.8 0.1-1.2 0.1-1.1-0.2 0.2-0.2 0.8-0.4 1.5-0.4z" />
	</g>
</svg>